<svg width="20" height="20" viewBox="0 0 20 20" fill="none" xmlns="http://www.w3.org/2000/svg">
    <path
        d="M8.60328 6.03651C8.60328 5.82757 8.66524 5.62333 8.78131 5.4496C8.89739 5.27588 9.06238 5.14048 9.25541 5.06052C9.44844 4.98056 9.66085 4.95964 9.86577 5.0004C10.0707 5.04117 10.2589 5.14178 10.4067 5.28952C10.5544 5.43726 10.655 5.62549 10.6958 5.83041C10.7365 6.03534 10.7156 6.24774 10.6357 6.44078C10.5557 6.63381 10.4203 6.7988 10.2466 6.91487C10.0729 7.03095 9.86862 7.09291 9.65968 7.09291C9.37951 7.09291 9.1108 6.98161 8.91269 6.7835C8.71458 6.58538 8.60328 6.31668 8.60328 6.03651ZM4.98133 6.03651C4.98133 4.79573 5.47422 3.60577 6.35158 2.72841C7.22895 1.85105 8.4189 1.35815 9.65968 1.35815C10.9005 1.35815 12.0904 1.85105 12.9678 2.72841C13.8451 3.60577 14.338 4.79573 14.338 6.03651C14.338 10.4742 10.0664 12.9658 9.88605 13.0699C9.81723 13.1096 9.73915 13.1305 9.65968 13.1305C9.58021 13.1305 9.50213 13.1096 9.43331 13.0699C9.25296 12.9658 4.98133 10.4742 4.98133 6.03651ZM5.88681 6.03651C5.88681 9.39587 8.81531 11.5819 9.65968 12.1418C10.5033 11.5819 13.4325 9.39662 13.4325 6.03651C13.4325 5.03588 13.035 4.07624 12.3275 3.36869C11.62 2.66114 10.6603 2.26364 9.65968 2.26364C8.65905 2.26364 7.69941 2.66114 6.99186 3.36869C6.28431 4.07624 5.88681 5.03588 5.88681 6.03651ZM15.2496 11.2815C15.1934 11.2588 15.1332 11.2476 15.0726 11.2486C15.012 11.2495 14.9522 11.2626 14.8968 11.2871C14.8413 11.3116 14.7914 11.347 14.7499 11.3912C14.7084 11.4353 14.6761 11.4874 14.6551 11.5442C14.6341 11.6011 14.6247 11.6616 14.6275 11.7221C14.6303 11.7826 14.6452 11.842 14.6714 11.8967C14.6975 11.9514 14.7344 12.0002 14.7798 12.0404C14.8252 12.0805 14.8782 12.1112 14.9357 12.1304C16.2622 12.6202 17.0545 13.2759 17.0545 13.8841C17.0545 15.0974 14.0173 16.4496 9.65968 16.4496C5.30202 16.4496 2.26486 15.0974 2.26486 13.8841C2.26486 13.2759 3.05716 12.6202 4.3837 12.1304C4.44116 12.1112 4.49416 12.0805 4.53956 12.0404C4.58496 12.0002 4.62183 11.9514 4.64799 11.8967C4.67416 11.842 4.68908 11.7826 4.69187 11.7221C4.69466 11.6616 4.68527 11.6011 4.66425 11.5442C4.64323 11.4874 4.61101 11.4353 4.5695 11.3912C4.52799 11.347 4.47803 11.3116 4.42259 11.2871C4.36716 11.2626 4.30736 11.2495 4.24676 11.2486C4.18616 11.2476 4.12599 11.2588 4.0698 11.2815C2.32221 11.9267 1.35938 12.8511 1.35938 13.8841C1.35938 14.8907 2.27845 15.7992 3.94832 16.4406C5.48085 17.0306 7.50915 17.3551 9.65968 17.3551C11.8102 17.3551 13.8385 17.0306 15.371 16.4406C17.0409 15.7992 17.96 14.8907 17.96 13.8841C17.96 12.8511 16.9972 11.9267 15.2496 11.2815Z"
        fill="currentColor" />
</svg>