<svg width="24" height="24" viewBox="0 0 24 24" fill="none" xmlns="http://www.w3.org/2000/svg">
    <path
        d="M20.2324 3.67578H17.7949V2.73828C17.7949 2.5891 17.7357 2.44602 17.6302 2.34053C17.5247 2.23504 17.3816 2.17578 17.2324 2.17578C17.0832 2.17578 16.9402 2.23504 16.8347 2.34053C16.7292 2.44602 16.6699 2.5891 16.6699 2.73828V3.67578H8.79492V2.73828C8.79492 2.5891 8.73566 2.44602 8.63017 2.34053C8.52468 2.23504 8.38161 2.17578 8.23242 2.17578C8.08324 2.17578 7.94016 2.23504 7.83467 2.34053C7.72919 2.44602 7.66992 2.5891 7.66992 2.73828V3.67578H5.23242C4.88433 3.67578 4.55049 3.81406 4.30434 4.0602C4.0582 4.30635 3.91992 4.64018 3.91992 4.98828V19.9883C3.91992 20.3364 4.0582 20.6702 4.30434 20.9164C4.55049 21.1625 4.88433 21.3008 5.23242 21.3008H20.2324C20.5805 21.3008 20.9144 21.1625 21.1605 20.9164C21.4066 20.6702 21.5449 20.3364 21.5449 19.9883V4.98828C21.5449 4.64018 21.4066 4.30635 21.1605 4.0602C20.9144 3.81406 20.5805 3.67578 20.2324 3.67578ZM20.4199 19.9883C20.4199 20.038 20.4002 20.0857 20.365 20.1209C20.3298 20.156 20.2822 20.1758 20.2324 20.1758H5.23242C5.18269 20.1758 5.135 20.156 5.09984 20.1209C5.06468 20.0857 5.04492 20.038 5.04492 19.9883V4.98828C5.04492 4.93855 5.06468 4.89086 5.09984 4.8557C5.135 4.82054 5.18269 4.80078 5.23242 4.80078H7.66992V5.73828C7.66992 5.88747 7.72919 6.03054 7.83467 6.13603C7.94016 6.24152 8.08324 6.30078 8.23242 6.30078C8.38161 6.30078 8.52468 6.24152 8.63017 6.13603C8.73566 6.03054 8.79492 5.88747 8.79492 5.73828V4.80078H16.6699V5.73828C16.6699 5.88747 16.7292 6.03054 16.8347 6.13603C16.9402 6.24152 17.0832 6.30078 17.2324 6.30078C17.3816 6.30078 17.5247 6.24152 17.6302 6.13603C17.7357 6.03054 17.7949 5.88747 17.7949 5.73828V4.80078H20.2324C20.2822 4.80078 20.3298 4.82054 20.365 4.8557C20.4002 4.89086 20.4199 4.93855 20.4199 4.98828V19.9883ZM17.2755 11.3286L14.3693 11.1036L13.249 8.51516C13.2052 8.41479 13.1331 8.32938 13.0415 8.2694C12.95 8.20941 12.8428 8.17746 12.7334 8.17746C12.6239 8.17746 12.5168 8.20941 12.4252 8.2694C12.3336 8.32938 12.2615 8.41479 12.2177 8.51516L11.1012 11.1036L8.19492 11.3286C8.0831 11.3372 7.97639 11.379 7.8885 11.4487C7.80062 11.5183 7.73557 11.6127 7.70171 11.7196C7.66785 11.8265 7.66672 11.9411 7.69848 12.0487C7.73024 12.1563 7.79342 12.2519 7.87992 12.3233L10.0821 14.1411L9.41086 16.8533C9.38427 16.9608 9.39001 17.0737 9.42736 17.178C9.46471 17.2823 9.532 17.3732 9.6208 17.4394C9.70959 17.5055 9.81595 17.544 9.92653 17.55C10.0371 17.556 10.147 17.5292 10.2424 17.473L12.7324 16.0039L15.228 17.473C15.3235 17.5292 15.4334 17.556 15.5439 17.55C15.6545 17.544 15.7609 17.5055 15.8497 17.4394C15.9385 17.3732 16.0058 17.2823 16.0431 17.178C16.0805 17.0737 16.0862 16.9608 16.0596 16.8533L15.3884 14.1411L17.5905 12.3233C17.677 12.2519 17.7402 12.1563 17.772 12.0487C17.8037 11.9411 17.8026 11.8265 17.7688 11.7196C17.7349 11.6127 17.6699 11.5183 17.582 11.4487C17.4941 11.379 17.3874 11.3372 17.2755 11.3286ZM14.3993 13.4989C14.3176 13.5665 14.2566 13.6557 14.2235 13.7564C14.1903 13.8571 14.1863 13.9651 14.2118 14.068L14.6459 15.8248L13.0137 14.8667C12.9273 14.8159 12.8289 14.7892 12.7287 14.7892C12.6285 14.7892 12.5301 14.8159 12.4437 14.8667L10.8152 15.8248L11.2493 14.068C11.2748 13.9651 11.2708 13.8571 11.2376 13.7564C11.2044 13.6557 11.1435 13.5665 11.0618 13.4989L9.66492 12.343L11.524 12.1995C11.6254 12.1908 11.7226 12.1547 11.8052 12.0951C11.8877 12.0355 11.9525 11.9546 11.9927 11.8611L12.7324 10.1577L13.4674 11.8611C13.5076 11.9546 13.5724 12.0355 13.655 12.0951C13.7375 12.1547 13.8347 12.1908 13.9362 12.1995L15.7952 12.343L14.3993 13.4989Z"
        fill="#1E1C1C" />
</svg>