<svg width="16" height="16" viewBox="0 0 16 16" fill="none" xmlns="http://www.w3.org/2000/svg">
    <path
        d="M13.3908 4.94941L12.4533 3.07441C12.4241 3.01595 12.3792 2.96678 12.3237 2.93242C12.2681 2.89806 12.204 2.87986 12.1387 2.87988H3.70117C3.63583 2.87986 3.57177 2.89806 3.51619 2.93242C3.46061 2.96678 3.41571 3.01595 3.38652 3.07441L2.44902 4.94941C2.42485 4.99824 2.41222 5.05197 2.41211 5.10645V13.0752C2.41211 13.2928 2.49853 13.5014 2.65237 13.6552C2.80621 13.8091 3.01486 13.8955 3.23242 13.8955H12.6074C12.825 13.8955 13.0336 13.8091 13.1875 13.6552C13.3413 13.5014 13.4277 13.2928 13.4277 13.0752V5.10645C13.4276 5.05197 13.415 4.99824 13.3908 4.94941ZM3.91855 3.58301H11.9213L12.5072 4.75488H3.33262L3.91855 3.58301ZM12.6074 13.1924H3.23242C3.20134 13.1924 3.17153 13.18 3.14956 13.1581C3.12758 13.1361 3.11523 13.1063 3.11523 13.0752V5.45801H12.7246V13.0752C12.7246 13.1063 12.7123 13.1361 12.6903 13.1581C12.6683 13.18 12.6385 13.1924 12.6074 13.1924ZM10.0434 8.60801C10.0779 8.64019 10.1056 8.67901 10.1248 8.72213C10.144 8.76525 10.1544 8.81181 10.1552 8.85901C10.156 8.90622 10.1473 8.95311 10.1297 8.99688C10.112 9.04066 10.0857 9.08042 10.0523 9.11381C10.0189 9.14719 9.97913 9.17351 9.93536 9.19119C9.89158 9.20887 9.84469 9.21756 9.79749 9.21672C9.75029 9.21589 9.70373 9.20556 9.66061 9.18634C9.61748 9.16713 9.57867 9.13942 9.54648 9.10488L8.27148 7.83047V11.6689C8.27148 11.7622 8.23445 11.8516 8.16851 11.9175C8.10258 11.9835 8.01316 12.0205 7.91992 12.0205C7.82668 12.0205 7.73726 11.9835 7.67133 11.9175C7.6054 11.8516 7.56836 11.7622 7.56836 11.6689V7.83047L6.29336 9.10488C6.22671 9.16698 6.13857 9.20079 6.04749 9.19918C5.95641 9.19758 5.86951 9.16068 5.8051 9.09627C5.74069 9.03186 5.70379 8.94496 5.70218 8.85388C5.70058 8.7628 5.73438 8.67465 5.79648 8.60801L7.67148 6.73301C7.7374 6.66717 7.82676 6.63019 7.91992 6.63019C8.01309 6.63019 8.10244 6.66717 8.16836 6.73301L10.0434 8.60801Z"
        fill="currentColor" />
</svg>