<svg width="22" height="22" viewBox="0 0 22 22" fill="none" xmlns="http://www.w3.org/2000/svg">
    <path
        d="M19.5 4.6875H4.5C3.95299 4.6875 3.42839 4.9048 3.04159 5.29159C2.6548 5.67839 2.4375 6.20299 2.4375 6.75V17.25C2.4375 17.797 2.6548 18.3216 3.04159 18.7084C3.42839 19.0952 3.95299 19.3125 4.5 19.3125H19.5C20.047 19.3125 20.5716 19.0952 20.9584 18.7084C21.3452 18.3216 21.5625 17.797 21.5625 17.25V6.75C21.5625 6.20299 21.3452 5.67839 20.9584 5.29159C20.5716 4.9048 20.047 4.6875 19.5 4.6875ZM3.5625 8.8125H20.4375V10.6875H15.6741C15.3715 10.6877 15.0783 10.7924 14.8441 10.9839C14.6099 11.1754 14.449 11.442 14.3888 11.7384C14.2787 12.2915 13.9803 12.7893 13.5444 13.147C13.1085 13.5047 12.562 13.7002 11.9981 13.7002C11.4342 13.7002 10.8878 13.5047 10.4519 13.147C10.016 12.7893 9.71756 12.2915 9.6075 11.7384C9.54734 11.4426 9.38703 11.1765 9.15358 10.9851C8.92014 10.7937 8.62783 10.6886 8.32594 10.6875H3.5625V8.8125ZM4.5 5.8125H19.5C19.7486 5.8125 19.9871 5.91127 20.1629 6.08709C20.3387 6.2629 20.4375 6.50136 20.4375 6.75V7.6875H3.5625V6.75C3.5625 6.50136 3.66127 6.2629 3.83709 6.08709C4.0129 5.91127 4.25136 5.8125 4.5 5.8125ZM19.5 18.1875H4.5C4.25136 18.1875 4.0129 18.0887 3.83709 17.9129C3.66127 17.7371 3.5625 17.4986 3.5625 17.25V11.8125H8.32594C8.36967 11.8116 8.41235 11.826 8.44659 11.8532C8.48083 11.8804 8.50448 11.9187 8.51344 11.9616C8.67697 12.7669 9.11388 13.4909 9.75015 14.011C10.3864 14.531 11.1829 14.8151 12.0047 14.8151C12.8265 14.8151 13.6229 14.531 14.2592 14.011C14.8955 13.4909 15.3324 12.7669 15.4959 11.9616C15.5047 11.9195 15.5277 11.8818 15.561 11.8547C15.5942 11.8276 15.6358 11.8127 15.6788 11.8125H20.4375V17.25C20.4375 17.4986 20.3387 17.7371 20.1629 17.9129C19.9871 18.0887 19.7486 18.1875 19.5 18.1875Z"
        fill="currentColor" />
</svg>