<svg width="24" height="24" viewBox="0 0 24 24" fill="none" xmlns="http://www.w3.org/2000/svg">
<circle cx="12" cy="12" r="12" fill="#C9E7D9"/>
<path fill-rule="evenodd" clip-rule="evenodd" d="M10.3015 7.8995C10.5125 7.65611 10.7734 7.46098 11.0664 7.32734C11.3595 7.1937 11.6779 7.12469 12 7.125C12.6785 7.125 13.2865 7.425 13.6985 7.8995C14.0198 7.87656 14.3424 7.92304 14.6442 8.0358C14.9459 8.14856 15.2199 8.32496 15.4475 8.553C15.6755 8.78053 15.8518 9.05444 15.9645 9.35613C16.0773 9.65782 16.1238 9.98024 16.101 10.3015C16.3443 10.5125 16.5393 10.7734 16.6729 11.0665C16.8064 11.3596 16.8754 11.6779 16.875 12C16.8753 12.3221 16.8063 12.6405 16.6727 12.9336C16.539 13.2266 16.3439 13.4875 16.1005 13.6985C16.1233 14.0198 16.0768 14.3422 15.964 14.6439C15.8513 14.9456 15.675 15.2195 15.447 15.447C15.2195 15.675 14.9456 15.8513 14.6439 15.964C14.3422 16.0768 14.0198 16.1233 13.6985 16.1005C13.4875 16.3439 13.2266 16.539 12.9336 16.6727C12.6405 16.8063 12.3221 16.8753 12 16.875C11.6779 16.8753 11.3595 16.8063 11.0664 16.6727C10.7734 16.539 10.5125 16.3439 10.3015 16.1005C9.98019 16.1235 9.65769 16.0771 9.3559 15.9644C9.05412 15.8518 8.78011 15.6755 8.5525 15.4475C8.32448 15.2199 8.14811 14.9459 8.03535 14.6441C7.92259 14.3424 7.87609 14.0198 7.899 13.6985C7.65571 13.4875 7.46066 13.2266 7.32711 12.9335C7.19356 12.6404 7.12463 12.3221 7.125 12C7.125 11.3215 7.425 10.7135 7.8995 10.3015C7.87663 9.98023 7.92315 9.65781 8.03591 9.35611C8.14867 9.05442 8.32502 8.78051 8.553 8.553C8.78051 8.32502 9.05442 8.14867 9.35611 8.03591C9.65781 7.92315 9.98023 7.87663 10.3015 7.8995ZM13.805 11.093C13.835 11.053 13.8567 11.0075 13.8688 10.959C13.881 10.9105 13.8833 10.8601 13.8757 10.8107C13.8681 10.7613 13.8506 10.7139 13.8244 10.6713C13.7982 10.6288 13.7638 10.5919 13.7231 10.5628C13.6825 10.5338 13.6364 10.5131 13.5877 10.5021C13.5389 10.4911 13.4884 10.49 13.4392 10.4987C13.39 10.5075 13.3431 10.526 13.3011 10.5532C13.2592 10.5804 13.2231 10.6157 13.195 10.657L11.577 12.922L10.765 12.11C10.6939 12.0438 10.5999 12.0077 10.5027 12.0094C10.4056 12.0111 10.3129 12.0505 10.2442 12.1192C10.1755 12.1879 10.1361 12.2806 10.1344 12.3777C10.1327 12.4749 10.1688 12.5689 10.235 12.64L11.36 13.765C11.3985 13.8035 11.4449 13.8331 11.496 13.8518C11.5471 13.8706 11.6016 13.8779 11.6559 13.8735C11.7101 13.869 11.7627 13.8528 11.8101 13.8259C11.8574 13.7991 11.8983 13.7623 11.93 13.718L13.805 11.093Z" fill="#008D4E"/>
</svg>
