<svg width="33" height="32" viewBox="0 0 33 32" fill="none" xmlns="http://www.w3.org/2000/svg">
<path d="M28.25 16C28.25 16.1989 28.171 16.3897 28.0303 16.5303C27.8897 16.671 27.6989 16.75 27.5 16.75H17.25V27C17.25 27.1989 17.171 27.3897 17.0303 27.5303C16.8897 27.671 16.6989 27.75 16.5 27.75C16.3011 27.75 16.1103 27.671 15.9697 27.5303C15.829 27.3897 15.75 27.1989 15.75 27V16.75H5.5C5.30109 16.75 5.11032 16.671 4.96967 16.5303C4.82902 16.3897 4.75 16.1989 4.75 16C4.75 15.8011 4.82902 15.6103 4.96967 15.4697C5.11032 15.329 5.30109 15.25 5.5 15.25H15.75V5C15.75 4.80109 15.829 4.61032 15.9697 4.46967C16.1103 4.32902 16.3011 4.25 16.5 4.25C16.6989 4.25 16.8897 4.32902 17.0303 4.46967C17.171 4.61032 17.25 4.80109 17.25 5V15.25H27.5C27.6989 15.25 27.8897 15.329 28.0303 15.4697C28.171 15.6103 28.25 15.8011 28.25 16Z" fill="black"/>
</svg>
