<svg width="24" height="24" viewBox="0 0 24 24" fill="none" xmlns="http://www.w3.org/2000/svg">
<circle cx="12" cy="12" r="12" fill="#EA4335" fill-opacity="0.05"/>
<path fill-rule="evenodd" clip-rule="evenodd" d="M7.125 12C7.125 9.3075 9.3075 7.125 12 7.125C14.6925 7.125 16.875 9.3075 16.875 12C16.875 14.6925 14.6925 16.875 12 16.875C9.3075 16.875 7.125 14.6925 7.125 12ZM11.478 11.279C12.051 10.9925 12.6965 11.5105 12.541 12.132L12.1865 13.55L12.2075 13.54C12.2956 13.5013 12.3952 13.4979 12.4858 13.5306C12.5763 13.5633 12.6508 13.6295 12.6938 13.7156C12.7369 13.8017 12.7452 13.901 12.717 13.993C12.6888 14.0851 12.6264 14.1628 12.5425 14.21L12.5225 14.221C11.949 14.5075 11.3035 13.9895 11.459 13.368L11.814 11.95L11.793 11.96C11.7488 11.9846 11.7 12 11.6497 12.0052C11.5994 12.0104 11.5485 12.0054 11.5001 11.9905C11.4518 11.9756 11.407 11.951 11.3684 11.9183C11.3298 11.8856 11.2982 11.8454 11.2755 11.8001C11.2529 11.7549 11.2396 11.7055 11.2365 11.655C11.2335 11.6045 11.2406 11.5539 11.2576 11.5062C11.2746 11.4586 11.3011 11.4148 11.3355 11.3777C11.3698 11.3405 11.4113 11.3107 11.4575 11.29L11.478 11.279ZM12 10.5C12.0995 10.5 12.1948 10.4605 12.2652 10.3902C12.3355 10.3198 12.375 10.2245 12.375 10.125C12.375 10.0255 12.3355 9.93016 12.2652 9.85983C12.1948 9.78951 12.0995 9.75 12 9.75C11.9005 9.75 11.8052 9.78951 11.7348 9.85983C11.6645 9.93016 11.625 10.0255 11.625 10.125C11.625 10.2245 11.6645 10.3198 11.7348 10.3902C11.8052 10.4605 11.9005 10.5 12 10.5Z" fill="#EA4335"/>
</svg>
