<svg width="33" height="32" viewBox="0 0 33 32" fill="none" xmlns="http://www.w3.org/2000/svg">
<path d="M28.5 15V27C28.5 27.2652 28.3947 27.5195 28.2071 27.7071C28.0196 27.8946 27.7652 28 27.5 28H5.50001C5.2348 28 4.98044 27.8946 4.79291 27.7071C4.60537 27.5195 4.50001 27.2652 4.50001 27V15C4.49908 14.737 4.55042 14.4765 4.65107 14.2336C4.75171 13.9907 4.89964 13.7702 5.08626 13.585L15.0863 3.58496C15.4613 3.21017 15.9698 2.99963 16.5 2.99963C17.0302 2.99963 17.5387 3.21017 17.9138 3.58496L27.9138 13.585C28.1004 13.7702 28.2483 13.9907 28.349 14.2336C28.4496 14.4765 28.5009 14.737 28.5 15Z" fill="#EB361F"/>
</svg>
