<svg width="33" height="32" viewBox="0 0 33 32" fill="none" xmlns="http://www.w3.org/2000/svg">
<path d="M27.7375 13.7625L17.7375 3.7625C17.575 3.59998 17.3821 3.47106 17.1697 3.38311C16.9574 3.29515 16.7298 3.24988 16.5 3.24988C16.2702 3.24988 16.0426 3.29515 15.8303 3.38311C15.6179 3.47106 15.425 3.59998 15.2625 3.7625L5.26251 13.7625C5.09956 13.9247 4.97037 14.1176 4.88241 14.33C4.79444 14.5424 4.74944 14.7701 4.75001 15V27C4.75001 27.1989 4.82902 27.3897 4.96968 27.5303C5.11033 27.671 5.30109 27.75 5.50001 27.75H27.5C27.6989 27.75 27.8897 27.671 28.0303 27.5303C28.171 27.3897 28.25 27.1989 28.25 27V15C28.2506 14.7701 28.2056 14.5424 28.1176 14.33C28.0296 14.1176 27.9004 13.9247 27.7375 13.7625ZM26.75 26.25H6.25001V15C6.24981 14.9671 6.25612 14.9345 6.26856 14.904C6.281 14.8736 6.29934 14.8459 6.32251 14.8225L16.3225 4.8225C16.3457 4.79907 16.3734 4.78047 16.4039 4.76778C16.4343 4.75509 16.467 4.74855 16.5 4.74855C16.533 4.74855 16.5657 4.75509 16.5961 4.76778C16.6266 4.78047 16.6543 4.79907 16.6775 4.8225L26.6775 14.8225C26.7007 14.8459 26.719 14.8736 26.7314 14.904C26.7439 14.9345 26.7502 14.9671 26.75 15V26.25Z" fill="#1E1C1C"/>
</svg>
