<svg width="24" height="24" viewBox="0 0 24 24" fill="none" xmlns="http://www.w3.org/2000/svg">
    <path
        d="M23.222 6.72765C23.141 6.67715 23.0485 6.64807 22.9532 6.64315C22.858 6.63823 22.763 6.65763 22.6773 6.69952C18.5841 8.69827 15.6751 7.76733 12.5954 6.78202C9.43883 5.77233 6.17539 4.7289 1.67727 6.9264C1.58256 6.97258 1.50274 7.04444 1.44688 7.13377C1.39102 7.22311 1.36138 7.32635 1.36133 7.43171V18.6817C1.36137 18.7771 1.38568 18.8709 1.43195 18.9543C1.47822 19.0377 1.54495 19.108 1.62585 19.1585C1.70676 19.2091 1.79918 19.2382 1.89444 19.2432C1.9897 19.2482 2.08466 19.2288 2.17039 19.187C6.26352 17.1883 9.17258 18.1192 12.2523 19.1045C14.0335 19.6755 15.8579 20.2576 17.9166 20.2576C19.4963 20.2576 21.2176 19.9145 23.1666 18.9601C23.2613 18.914 23.3412 18.8421 23.397 18.7528C23.4529 18.6634 23.4825 18.5602 23.4826 18.4548V7.20483C23.483 7.10975 23.4593 7.01611 23.4138 6.93266C23.3682 6.84921 23.3022 6.77867 23.222 6.72765ZM22.3613 18.0976C18.4332 19.8986 15.5954 18.9911 12.5954 18.0311C10.8095 17.4583 8.98977 16.8789 6.93102 16.8789C5.57258 16.8789 4.11102 17.132 2.48633 17.8089V7.78515C6.41445 5.98421 9.25227 6.89171 12.2523 7.85171C15.2157 8.8014 18.2748 9.78015 22.3613 8.07671V18.0976ZM12.4238 10.1289C11.8676 10.1289 11.3238 10.2938 10.8613 10.6029C10.3988 10.9119 10.0383 11.3512 9.82542 11.8651C9.61255 12.379 9.55685 12.9445 9.66537 13.4901C9.77389 14.0357 10.0418 14.5368 10.4351 14.9301C10.8284 15.3235 11.3296 15.5913 11.8751 15.6999C12.4207 15.8084 12.9862 15.7527 13.5001 15.5398C14.014 15.3269 14.4533 14.9665 14.7623 14.5039C15.0714 14.0414 15.2363 13.4977 15.2363 12.9414C15.2363 12.1955 14.94 11.4801 14.4126 10.9527C13.8851 10.4252 13.1697 10.1289 12.4238 10.1289ZM12.4238 14.6289C12.0901 14.6289 11.7638 14.5299 11.4863 14.3445C11.2088 14.1591 10.9925 13.8955 10.8648 13.5872C10.7371 13.2788 10.7036 12.9395 10.7688 12.6122C10.8339 12.2848 10.9946 11.9842 11.2306 11.7482C11.4666 11.5122 11.7673 11.3514 12.0946 11.2863C12.422 11.2212 12.7613 11.2546 13.0696 11.3823C13.378 11.5101 13.6415 11.7264 13.8269 12.0039C14.0124 12.2814 14.1113 12.6076 14.1113 12.9414C14.1113 13.3889 13.9335 13.8182 13.6171 14.1346C13.3006 14.4511 12.8714 14.6289 12.4238 14.6289ZM5.48633 9.9414V14.4414C5.48633 14.5906 5.42706 14.7337 5.32158 14.8391C5.21609 14.9446 5.07301 15.0039 4.92383 15.0039C4.77464 15.0039 4.63157 14.9446 4.52608 14.8391C4.42059 14.7337 4.36133 14.5906 4.36133 14.4414V9.9414C4.36133 9.79221 4.42059 9.64914 4.52608 9.54365C4.63157 9.43816 4.77464 9.3789 4.92383 9.3789C5.07301 9.3789 5.21609 9.43816 5.32158 9.54365C5.42706 9.64914 5.48633 9.79221 5.48633 9.9414ZM19.3613 15.9414V11.4414C19.3613 11.2922 19.4206 11.1491 19.5261 11.0436C19.6316 10.9382 19.7746 10.8789 19.9238 10.8789C20.073 10.8789 20.2161 10.9382 20.3216 11.0436C20.4271 11.1491 20.4863 11.2922 20.4863 11.4414V15.9414C20.4863 16.0906 20.4271 16.2337 20.3216 16.3391C20.2161 16.4446 20.073 16.5039 19.9238 16.5039C19.7746 16.5039 19.6316 16.4446 19.5261 16.3391C19.4206 16.2337 19.3613 16.0906 19.3613 15.9414Z"
        fill="currentColor" />
</svg>