<svg width="33" height="32" viewBox="0 0 33 32" fill="none" xmlns="http://www.w3.org/2000/svg">
<g clip-path="url(#clip0_331_1225)">
<path fill-rule="evenodd" clip-rule="evenodd" d="M3.16602 13.3334C3.16602 6.70596 8.5386 1.33337 15.166 1.33337C21.7934 1.33337 27.166 6.70596 27.166 13.3334C27.166 19.9608 21.7934 25.3334 15.166 25.3334C8.5386 25.3334 3.16602 19.9608 3.16602 13.3334ZM13.7774 5.25897C13.8638 5.80446 13.4917 6.3167 12.9462 6.40309C10.5214 6.78713 8.61977 8.68881 8.23573 11.1135C8.14934 11.659 7.6371 12.0312 7.09161 11.9448C6.54613 11.8584 6.17396 11.3461 6.26036 10.8007C6.77994 7.52015 9.3528 4.9473 12.6333 4.42772C13.1788 4.34132 13.691 4.71349 13.7774 5.25897Z" fill="#EB361F"/>
<path d="M25.1256 23.2929C25.5161 22.9024 26.1493 22.9024 26.5398 23.2929L31.873 28.6262C32.2635 29.0167 32.2635 29.6499 31.873 30.0404C31.4825 30.4309 30.8493 30.4309 30.4588 30.0404L25.1256 24.7071C24.735 24.3166 24.7351 23.6835 25.1256 23.2929Z" fill="#EB361F"/>
</g>
<defs>
<clipPath id="clip0_331_1225">
<rect width="32" height="32" fill="white" transform="translate(0.5)"/>
</clipPath>
</defs>
</svg>
