<svg width="24" height="24" viewBox="0 0 24 24" fill="none" xmlns="http://www.w3.org/2000/svg">
<path d="M22.868 10.7373L15.368 3.23726C15.2893 3.15869 15.1892 3.1052 15.0801 3.08354C14.9711 3.06187 14.858 3.07301 14.7553 3.11554C14.6526 3.15808 14.5648 3.2301 14.503 3.32251C14.4411 3.41492 14.4081 3.52358 14.408 3.63476V7.59101C9.30051 7.92757 3.12144 12.7473 2.41457 18.9029C2.39161 19.0989 2.4311 19.2971 2.5274 19.4694C2.6237 19.6417 2.7719 19.7791 2.9509 19.8623C3.12989 19.9454 3.33055 19.9699 3.52429 19.9323C3.71803 19.8947 3.89496 19.7969 4.02988 19.6529C5.08551 18.5269 8.87676 14.941 14.408 14.7094V18.6348C14.4081 18.7459 14.4411 18.8546 14.503 18.947C14.5648 19.0394 14.6526 19.1114 14.7553 19.154C14.858 19.1965 14.9711 19.2076 15.0801 19.186C15.1892 19.1643 15.2893 19.1108 15.368 19.0323L22.868 11.5323C22.9733 11.4268 23.0325 11.2838 23.0325 11.1348C23.0325 10.9857 22.9733 10.8427 22.868 10.7373ZM15.533 17.2773V14.1348C15.533 13.9856 15.4737 13.8425 15.3683 13.737C15.2628 13.6315 15.1197 13.5723 14.9705 13.5723C12.3708 13.5723 9.83676 14.2519 7.44051 15.5926C6.04384 16.3771 4.75733 17.3434 3.61457 18.466C4.05519 15.976 5.50457 13.591 7.73957 11.6907C9.95207 9.81663 12.6539 8.69726 14.9705 8.69726C15.1197 8.69726 15.2628 8.638 15.3683 8.53251C15.4737 8.42702 15.533 8.28394 15.533 8.13476V4.9932L21.6746 11.1348L15.533 17.2773Z" fill="currentColor"/>
</svg>
