<svg width="24" height="24" viewBox="0 0 24 24" fill="none" xmlns="http://www.w3.org/2000/svg">
    <path
        d="M21.8027 10.4922C21.9519 10.4922 22.095 10.4329 22.2005 10.3274C22.306 10.2219 22.3652 10.0789 22.3652 9.92969V6.92969C22.3652 6.58159 22.227 6.24775 21.9808 6.00161C21.7347 5.75547 21.4008 5.61719 21.0527 5.61719H3.05273C2.70464 5.61719 2.3708 5.75547 2.12466 6.00161C1.87852 6.24775 1.74023 6.58159 1.74023 6.92969V9.92969C1.74023 10.0789 1.7995 10.2219 1.90499 10.3274C2.01048 10.4329 2.15355 10.4922 2.30273 10.4922C2.9492 10.4922 3.56919 10.749 4.02631 11.2061C4.48343 11.6632 4.74023 12.2832 4.74023 12.9297C4.74023 13.5762 4.48343 14.1961 4.02631 14.6533C3.56919 15.1104 2.9492 15.3672 2.30273 15.3672C2.15355 15.3672 2.01048 15.4265 1.90499 15.5319C1.7995 15.6374 1.74023 15.7805 1.74023 15.9297V18.9297C1.74023 19.2778 1.87852 19.6116 2.12466 19.8578C2.3708 20.1039 2.70464 20.2422 3.05273 20.2422H21.0527C21.4008 20.2422 21.7347 20.1039 21.9808 19.8578C22.227 19.6116 22.3652 19.2778 22.3652 18.9297V15.9297C22.3652 15.7805 22.306 15.6374 22.2005 15.5319C22.095 15.4265 21.9519 15.3672 21.8027 15.3672C21.1563 15.3672 20.5363 15.1104 20.0792 14.6533C19.622 14.1961 19.3652 13.5762 19.3652 12.9297C19.3652 12.2832 19.622 11.6632 20.0792 11.2061C20.5363 10.749 21.1563 10.4922 21.8027 10.4922ZM2.86523 18.9297V16.4481C3.70277 16.3152 4.4654 15.8878 5.01603 15.2429C5.56666 14.5979 5.86916 13.7777 5.86916 12.9297C5.86916 12.0817 5.56666 11.2615 5.01603 10.6165C4.4654 9.97158 3.70277 9.54421 2.86523 9.41125V6.92969C2.86523 6.87996 2.88499 6.83227 2.92015 6.7971C2.95531 6.76194 3.00301 6.74219 3.05273 6.74219H8.49023V19.1172H3.05273C3.00301 19.1172 2.95531 19.0974 2.92015 19.0623C2.88499 19.0271 2.86523 18.9794 2.86523 18.9297ZM21.2402 16.4481V18.9297C21.2402 18.9794 21.2205 19.0271 21.1853 19.0623C21.1502 19.0974 21.1025 19.1172 21.0527 19.1172H9.61523V6.74219H21.0527C21.1025 6.74219 21.1502 6.76194 21.1853 6.7971C21.2205 6.83227 21.2402 6.87996 21.2402 6.92969V9.41125C20.4027 9.54421 19.6401 9.97158 19.0894 10.6165C18.5388 11.2615 18.2363 12.0817 18.2363 12.9297C18.2363 13.7777 18.5388 14.5979 19.0894 15.2429C19.6401 15.8878 20.4027 16.3152 21.2402 16.4481Z"
        fill="currentColor" />
</svg>