<svg width="430" height="287" viewBox="0 0 430 287" fill="none" xmlns="http://www.w3.org/2000/svg">
<g clip-path="url(#clip0_4038_34615)">
<g opacity="0.2" clip-path="url(#clip1_4038_34615)">
<path d="M601.701 0H-67.2988V446H601.701V0Z" fill="#FFF8F7"/>
<path d="M186.675 130.425C195.215 130.425 202.138 125.808 202.138 120.113C202.138 114.417 195.215 109.8 186.675 109.8C178.134 109.8 171.211 114.417 171.211 120.113C171.211 125.808 178.134 130.425 186.675 130.425Z" fill="#FFD4CE"/>
<path d="M165.41 135.177C174.136 135.177 181.211 130.461 181.211 124.642C181.211 118.823 174.136 114.107 165.41 114.107C156.684 114.107 149.609 118.823 149.609 124.642C149.609 130.461 156.684 135.177 165.41 135.177Z" fill="#FFD4CE"/>
<path fill-rule="evenodd" clip-rule="evenodd" d="M142.957 130.887C151.658 130.887 158.757 126.155 158.757 120.351C158.757 114.547 151.658 109.816 142.957 109.816C134.256 109.816 127.156 114.547 127.156 120.351C127.156 126.155 134.256 130.887 142.957 130.887Z" fill="#FFD4CE"/>
<path fill-rule="evenodd" clip-rule="evenodd" d="M173.402 118.299C182.103 118.299 189.203 113.568 189.203 107.763C189.203 101.959 182.103 97.228 173.402 97.228C164.701 97.228 157.602 101.959 157.602 107.763C157.602 113.568 164.701 118.299 173.402 118.299Z" fill="#FFD4CE"/>
<path d="M152.212 117.117C159.43 117.117 165.282 113.217 165.282 108.406C165.282 103.595 159.43 99.6948 152.212 99.6948C144.994 99.6948 139.143 103.595 139.143 108.406C139.143 113.217 144.994 117.117 152.212 117.117Z" fill="#FFD4CE"/>
<path d="M-15.9849 127.502C-0.757484 127.502 11.5868 119.272 11.5868 109.118C11.5868 98.9651 -0.757484 90.7342 -15.9849 90.7342C-31.2124 90.7342 -43.5566 98.9651 -43.5566 109.118C-43.5566 119.272 -31.2124 127.502 -15.9849 127.502Z" fill="#FFD4CE"/>
<path fill-rule="evenodd" clip-rule="evenodd" d="M21.9174 119.822C37.4382 119.822 50.0868 111.384 50.0868 101.037C50.0868 90.6896 37.4293 82.2513 21.9174 82.2513C6.40553 82.2513 -6.25195 90.6896 -6.25195 101.037C-6.25195 111.384 6.40553 119.822 21.9174 119.822Z" fill="#FFD4CE"/>
<path d="M61.9486 127.476C77.5061 127.476 90.118 119.065 90.118 108.69C90.118 98.3152 77.5061 89.9046 61.9486 89.9046C46.3911 89.9046 33.7793 98.3152 33.7793 108.69C33.7793 119.065 46.3911 127.476 61.9486 127.476Z" fill="#FFD4CE"/>
<path fill-rule="evenodd" clip-rule="evenodd" d="M7.66936 149.91C23.1902 149.91 35.8387 141.471 35.8387 131.124C35.8387 120.777 23.1812 112.338 7.66936 112.338C-7.84252 112.338 -20.5 120.777 -20.5 131.124C-20.5 141.471 -7.84252 149.91 7.66936 149.91Z" fill="#FFD4CE"/>
<path d="M45.4475 145.521C58.3152 145.521 68.7465 138.568 68.7465 129.991C68.7465 121.414 58.3152 114.461 45.4475 114.461C32.5798 114.461 22.1484 121.414 22.1484 129.991C22.1484 138.568 32.5798 145.521 45.4475 145.521Z" fill="#FFD4CE"/>
<path fill-rule="evenodd" clip-rule="evenodd" d="M115.144 53.2678C122.777 53.2678 129.001 49.1166 129.001 44.028C129.001 38.9395 122.777 34.7883 115.144 34.7883C107.511 34.7883 101.287 38.9395 101.287 44.028C101.287 49.1166 107.511 53.2678 115.144 53.2678Z" fill="#FFD4CE"/>
<path fill-rule="evenodd" clip-rule="evenodd" d="M133.978 44.5155C143.523 44.5155 151.306 39.3252 151.306 32.9618C151.306 26.5984 143.523 21.4081 133.978 21.4081C124.433 21.4081 116.65 26.5984 116.65 32.9618C116.65 39.3252 124.433 44.5155 133.978 44.5155Z" fill="#FFD4CE"/>
<path fill-rule="evenodd" clip-rule="evenodd" d="M157.015 54.8265C166.561 54.8265 174.343 49.6362 174.343 43.2728C174.343 36.9094 166.561 31.7191 157.015 31.7191C147.47 31.7191 139.688 36.9094 139.688 43.2728C139.688 49.6362 147.47 54.8265 157.015 54.8265Z" fill="#FFD4CE"/>
<path fill-rule="evenodd" clip-rule="evenodd" d="M130.303 64.3555C139.848 64.3555 147.63 59.1652 147.63 52.8018C147.63 46.4384 139.848 41.2481 130.303 41.2481C120.757 41.2481 112.975 46.4384 112.975 52.8018C112.975 59.1652 120.757 64.3555 130.303 64.3555Z" fill="#FFD4CE"/>
<path fill-rule="evenodd" clip-rule="evenodd" d="M148.148 64.9555C155.781 64.9555 162.005 60.8043 162.005 55.7157C162.005 50.6272 155.781 46.476 148.148 46.476C140.515 46.476 134.291 50.6272 134.291 55.7157C134.291 60.8043 140.515 64.9555 148.148 64.9555Z" fill="#FFD4CE"/>
<path d="M138.651 212.037H137.75V216.926H138.651V212.037Z" fill="#F47474"/>
<path d="M135.958 208.906H135.057V216.926H135.958V208.906Z" fill="#F47474"/>
<path d="M151.022 213.01H150.121V216.925H151.022V213.01Z" fill="#F47474"/>
<path d="M153.715 210.494H152.814V216.925H153.715V210.494Z" fill="#F47474"/>
<path d="M157.133 203.572C157.133 205.597 155.608 209.54 152.754 212.394C150.738 214.41 148.071 215.918 144.797 215.918C144.761 215.918 144.779 215.918 144.61 215.918C140.676 215.837 137.108 213.242 134.548 208.639C132.077 204.197 130.543 197.863 130.543 190.13C130.543 189.844 130.543 189.443 130.561 188.926L132.363 188.961C132.363 189.238 132.363 189.63 132.363 190.13C132.363 197.551 133.817 203.581 136.136 207.765C138.366 211.788 141.39 214.053 144.654 214.116C144.717 214.116 144.654 214.116 144.806 214.116C147.527 214.116 149.774 212.84 151.478 211.128C153.985 208.621 155.323 205.267 155.323 203.581H157.133V203.572Z" fill="#F47474"/>
<path d="M75.522 212.037H74.6211V216.926H75.522V212.037Z" fill="#F47474"/>
<path d="M78.2173 208.906H77.3164V216.926H78.2173V208.906Z" fill="#F47474"/>
<path d="M63.1509 213.01H62.25V216.926H63.1509V213.01Z" fill="#F47474"/>
<path d="M60.4556 210.494H59.5547V216.925H60.4556V210.494Z" fill="#F47474"/>
<path d="M57.9503 203.572C57.9503 205.258 59.2883 208.612 61.7948 211.119C63.4985 212.822 65.7464 214.107 68.4759 214.107C68.6275 214.107 68.5651 214.107 68.6275 214.107C71.8922 214.044 74.9072 211.77 77.1461 207.756C79.4742 203.572 80.9193 197.542 80.9193 190.121C80.9193 189.621 80.9193 189.238 80.9193 188.952L82.7211 188.917C82.73 189.434 82.739 189.835 82.739 190.121C82.739 197.855 81.1958 204.197 78.7339 208.63C76.1738 213.233 72.6058 215.828 68.6721 215.909C68.5026 215.909 68.5294 215.909 68.4848 215.909C65.2112 215.909 62.5441 214.401 60.5282 212.385C57.6827 209.531 56.1484 205.588 56.1484 203.563H57.9592L57.9503 203.572Z" fill="#F47474"/>
<path d="M58.0036 200.316H55.0332V225.203H58.0036V200.316Z" fill="#F47474"/>
<path fill-rule="evenodd" clip-rule="evenodd" d="M56.5139 194.75L58.0036 200.316H55.0332L56.5139 194.75Z" fill="#F47474"/>
<path d="M158.15 200.316H155.18V225.203H158.15V200.316Z" fill="#F47474"/>
<path fill-rule="evenodd" clip-rule="evenodd" d="M156.669 194.75L158.15 200.316H155.18L156.669 194.75Z" fill="#F47474"/>
<path d="M158.157 215.9H55.0332V219.575H158.157V215.9Z" fill="#F47474"/>
<path fill-rule="evenodd" clip-rule="evenodd" d="M78.2882 225.203H80.5985C80.9642 222.037 83.6581 219.575 86.9317 219.575C90.2053 219.575 92.8902 222.037 93.2649 225.203H95.5752V215.9H78.2793V225.203H78.2882Z" fill="#F47474"/>
<path fill-rule="evenodd" clip-rule="evenodd" d="M117.601 225.203H119.911C120.277 222.037 122.971 219.575 126.244 219.575C129.518 219.575 132.203 222.037 132.577 225.203H134.888V215.9H117.592V225.203H117.601Z" fill="#F47474"/>
<path d="M93.0778 184.252H80.7949V219.575H93.0778V184.252Z" fill="#F47474"/>
<path d="M93.0758 204.509H80.793V207.006H93.0758V204.509Z" fill="#FFF8F7"/>
<path d="M93.0758 193.136H80.793V195.633H93.0758V193.136Z" fill="#FFF8F7"/>
<path d="M93.0758 181.745H80.793V184.243H93.0758V181.745Z" fill="#FFF8F7"/>
<path d="M85.8822 185.795H82.3945V191.548H85.8822V185.795Z" fill="#FFF8F7"/>
<path d="M91.4838 185.795H87.9961V191.548H91.4838V185.795Z" fill="#FFF8F7"/>
<path d="M85.8822 197.087H82.3945V202.841H85.8822V197.087Z" fill="#FFF8F7"/>
<path d="M91.4838 197.087H87.9961V202.841H91.4838V197.087Z" fill="#FFF8F7"/>
<path d="M85.8822 208.603H82.3945V214.357H85.8822V208.603Z" fill="#FFF8F7"/>
<path d="M91.4838 208.603H87.9961V214.357H91.4838V208.603Z" fill="#FFF8F7"/>
<path fill-rule="evenodd" clip-rule="evenodd" d="M86.932 166.724L90.946 181.745H82.918L86.932 166.724Z" fill="#F47474"/>
<path fill-rule="evenodd" clip-rule="evenodd" d="M83.3282 172.272L85.8526 181.745H80.7949L83.3282 172.272Z" fill="#F47474"/>
<path fill-rule="evenodd" clip-rule="evenodd" d="M90.545 172.272L93.0783 181.745H88.0117L90.545 172.272Z" fill="#F47474"/>
<path d="M87.2463 162.968H86.6309V168.392H87.2463V162.968Z" fill="#F47474"/>
<path d="M88.5391 164.547H85.3457V165.163H88.5391V164.547Z" fill="#F47474"/>
<path d="M90.8479 168.089H90.2324V173.512H90.8479V168.089Z" fill="#F47474"/>
<path d="M92.1406 169.658H88.9473V170.274H92.1406V169.658Z" fill="#F47474"/>
<path d="M83.6331 168.089H83.0176V173.512H83.6331V168.089Z" fill="#F47474"/>
<path d="M84.9277 169.658H81.7344V170.274H84.9277V169.658Z" fill="#F47474"/>
<path d="M132.39 184.252H120.107V219.575H132.39V184.252Z" fill="#F47474"/>
<path d="M132.39 204.509H120.107V207.006H132.39V204.509Z" fill="#FFF8F7"/>
<path d="M132.39 193.136H120.107V195.633H132.39V193.136Z" fill="#FFF8F7"/>
<path d="M132.39 181.745H120.107V184.243H132.39V181.745Z" fill="#FFF8F7"/>
<path d="M125.189 185.795H121.701V191.548H125.189V185.795Z" fill="#FFF8F7"/>
<path d="M130.79 185.795H127.303V191.548H130.79V185.795Z" fill="#FFF8F7"/>
<path d="M125.189 197.087H121.701V202.841H125.189V197.087Z" fill="#FFF8F7"/>
<path d="M130.79 197.087H127.303V202.841H130.79V197.087Z" fill="#FFF8F7"/>
<path d="M125.189 208.603H121.701V214.357H125.189V208.603Z" fill="#41C4C0"/>
<path d="M130.79 208.603H127.303V214.357H130.79V208.603Z" fill="#41C4C0"/>
<path fill-rule="evenodd" clip-rule="evenodd" d="M126.243 166.724L130.257 181.745H122.238L126.243 166.724Z" fill="#F47474"/>
<path fill-rule="evenodd" clip-rule="evenodd" d="M122.641 172.272L125.174 181.745H120.107L122.641 172.272Z" fill="#F47474"/>
<path fill-rule="evenodd" clip-rule="evenodd" d="M129.856 172.272L132.389 181.745H127.322L129.856 172.272Z" fill="#F47474"/>
<path d="M126.555 162.968H125.939V168.392H126.555V162.968Z" fill="#F47474"/>
<path d="M127.848 164.547H124.654V165.163H127.848V164.547Z" fill="#F47474"/>
<path d="M130.16 168.089H129.545V173.512H130.16V168.089Z" fill="#F47474"/>
<path d="M131.453 169.658H128.26V170.274H131.453V169.658Z" fill="#F47474"/>
<path d="M122.946 168.089H122.33V173.512H122.946V168.089Z" fill="#F47474"/>
<path d="M124.236 169.658H121.043V170.274H124.236V169.658Z" fill="#F47474"/>
<path d="M121.703 189.461H91.4727V193.136H121.703V189.461Z" fill="#F47474"/>
<path d="M95.3086 224.846L104.666 217.666L105.21 218.379L95.8527 225.56L95.3086 224.846Z" fill="#F47474"/>
<path d="M97.6451 216.979H96.7441V223.847H97.6451V216.979Z" fill="#F47474"/>
<path d="M100.053 217.273H99.1523V222.224H100.053V217.273Z" fill="#F47474"/>
<path d="M117.323 225.56L107.975 218.379L108.519 217.666L117.876 224.846L117.323 225.56Z" fill="#F47474"/>
<path d="M116.432 216.979H115.531V223.847H116.432V216.979Z" fill="#F47474"/>
<path d="M114.032 217.273H113.131V222.224H114.032V217.273Z" fill="#F47474"/>
<path fill-rule="evenodd" clip-rule="evenodd" d="M220.931 147.403C222.59 147.403 223.946 146.047 223.946 144.388C223.946 142.729 222.59 141.373 220.931 141.373C219.272 141.373 217.916 142.729 217.916 144.388C217.916 146.047 219.272 147.403 220.931 147.403Z" fill="#F47474"/>
<path fill-rule="evenodd" clip-rule="evenodd" d="M234.151 143.701C235.721 144.272 236.524 146.003 235.953 147.573C235.382 149.142 233.651 149.945 232.081 149.374C230.511 148.803 229.709 147.073 230.279 145.503C230.85 143.933 232.581 143.13 234.151 143.701Z" fill="#F47474"/>
<path fill-rule="evenodd" clip-rule="evenodd" d="M245.781 150.409C247.057 151.479 247.226 153.379 246.156 154.664C245.086 155.939 243.186 156.109 241.901 155.039C240.626 153.968 240.456 152.059 241.526 150.784C242.597 149.508 244.506 149.339 245.781 150.409Z" fill="#F47474"/>
<path fill-rule="evenodd" clip-rule="evenodd" d="M254.408 160.694C255.237 162.139 254.747 163.985 253.302 164.815C251.856 165.644 250.01 165.154 249.18 163.709C248.351 162.264 248.842 160.417 250.287 159.588C251.732 158.758 253.578 159.249 254.408 160.694Z" fill="#F47474"/>
<path fill-rule="evenodd" clip-rule="evenodd" d="M259.002 173.307C259.287 174.948 258.199 176.518 256.558 176.803C254.916 177.089 253.347 176.001 253.061 174.359C252.776 172.718 253.864 171.148 255.505 170.863C257.146 170.577 258.707 171.665 259.002 173.307Z" fill="#F47474"/>
<path fill-rule="evenodd" clip-rule="evenodd" d="M259.002 186.731C258.717 188.373 257.147 189.47 255.506 189.175C253.864 188.89 252.767 187.32 253.061 185.679C253.347 184.038 254.917 182.94 256.558 183.235C258.199 183.52 259.297 185.09 259.002 186.731Z" fill="#F47474"/>
<path fill-rule="evenodd" clip-rule="evenodd" d="M254.408 199.353C253.578 200.798 251.732 201.289 250.287 200.459C248.842 199.63 248.351 197.783 249.18 196.338C250.01 194.893 251.856 194.403 253.302 195.232C254.747 196.062 255.237 197.908 254.408 199.353Z" fill="#F47474"/>
<path fill-rule="evenodd" clip-rule="evenodd" d="M245.781 209.638C244.506 210.708 242.597 210.539 241.526 209.263C240.456 207.988 240.626 206.079 241.901 205.008C243.177 203.938 245.086 204.107 246.156 205.383C247.226 206.659 247.057 208.567 245.781 209.638Z" fill="#F47474"/>
<path fill-rule="evenodd" clip-rule="evenodd" d="M234.15 216.346C232.58 216.917 230.849 216.105 230.278 214.544C229.708 212.974 230.519 211.243 232.08 210.673C233.65 210.102 235.381 210.913 235.952 212.474C236.523 214.044 235.711 215.775 234.15 216.346Z" fill="#F47474"/>
<path fill-rule="evenodd" clip-rule="evenodd" d="M220.931 218.674C219.263 218.674 217.916 217.327 217.916 215.659C217.916 213.991 219.263 212.644 220.931 212.644C222.599 212.644 223.946 213.991 223.946 215.659C223.946 217.327 222.599 218.674 220.931 218.674Z" fill="#F47474"/>
<path fill-rule="evenodd" clip-rule="evenodd" d="M207.71 216.346C206.14 215.775 205.338 214.044 205.908 212.474C206.479 210.905 208.21 210.102 209.78 210.673C211.35 211.244 212.152 212.974 211.582 214.544C211.011 216.114 209.28 216.917 207.71 216.346Z" fill="#F47474"/>
<path fill-rule="evenodd" clip-rule="evenodd" d="M196.081 209.638C194.805 208.567 194.636 206.659 195.706 205.383C196.777 204.107 198.677 203.938 199.961 205.008C201.237 206.079 201.406 207.979 200.336 209.263C199.265 210.539 197.356 210.708 196.081 209.638Z" fill="#F47474"/>
<path fill-rule="evenodd" clip-rule="evenodd" d="M187.454 199.353C186.624 197.908 187.115 196.062 188.56 195.232C190.005 194.403 191.851 194.893 192.681 196.338C193.511 197.783 193.02 199.63 191.575 200.459C190.13 201.289 188.283 200.798 187.454 199.353Z" fill="#F47474"/>
<path fill-rule="evenodd" clip-rule="evenodd" d="M182.86 186.731C182.574 185.09 183.663 183.52 185.304 183.235C186.945 182.949 188.515 184.037 188.801 185.679C189.086 187.32 187.998 188.881 186.357 189.175C184.715 189.461 183.145 188.373 182.86 186.731Z" fill="#F47474"/>
<path fill-rule="evenodd" clip-rule="evenodd" d="M182.86 173.307C183.146 171.665 184.716 170.568 186.357 170.863C187.998 171.148 189.095 172.718 188.801 174.359C188.516 176.001 186.946 177.098 185.304 176.803C183.663 176.518 182.566 174.948 182.86 173.307Z" fill="#F47474"/>
<path fill-rule="evenodd" clip-rule="evenodd" d="M187.454 160.694C188.283 159.249 190.13 158.758 191.575 159.588C193.02 160.417 193.511 162.264 192.681 163.709C191.851 165.154 190.005 165.644 188.56 164.815C187.115 163.985 186.624 162.139 187.454 160.694Z" fill="#F47474"/>
<path fill-rule="evenodd" clip-rule="evenodd" d="M196.081 150.409C197.356 149.339 199.265 149.508 200.336 150.784C201.406 152.059 201.237 153.968 199.961 155.039C198.685 156.109 196.777 155.939 195.706 154.664C194.636 153.388 194.805 151.479 196.081 150.409Z" fill="#F47474"/>
<path fill-rule="evenodd" clip-rule="evenodd" d="M207.711 143.701C209.281 143.13 211.012 143.942 211.582 145.503C212.153 147.073 211.342 148.804 209.781 149.374C208.211 149.945 206.48 149.134 205.909 147.573C205.338 146.003 206.15 144.272 207.711 143.701Z" fill="#F47474"/>
<path fill-rule="evenodd" clip-rule="evenodd" d="M220.93 184.698C223.508 184.698 225.604 182.601 225.604 180.023C225.604 177.446 223.499 175.349 220.93 175.349C218.361 175.349 216.256 177.454 216.256 180.023C216.256 182.592 218.352 184.698 220.93 184.698Z" fill="#F47474"/>
<path d="M220.931 185.723L211.048 226.488L208.398 225.979L219.602 179.738L220.931 179.988L222.26 179.738L233.464 225.979L230.814 226.488L220.931 185.723Z" fill="#F47474"/>
<path d="M220.931 146.725C230.128 146.725 238.45 150.454 244.48 156.475C250.51 162.505 254.23 170.827 254.23 180.023C254.23 189.22 250.501 197.542 244.48 203.572C238.45 209.602 230.128 213.322 220.931 213.322V211.966C229.753 211.966 237.736 208.389 243.517 202.609C249.297 196.829 252.874 188.845 252.874 180.023C252.874 171.202 249.297 163.218 243.517 157.438C237.736 151.658 229.753 148.081 220.931 148.081V146.725ZM220.931 213.322C211.735 213.322 203.412 209.593 197.382 203.572C191.352 197.542 187.633 189.22 187.633 180.023C187.633 170.827 191.361 162.505 197.382 156.475C203.412 150.445 211.735 146.725 220.931 146.725V148.081C212.109 148.081 204.126 151.658 198.346 157.438C192.566 163.218 188.989 171.202 188.989 180.023C188.989 188.845 192.566 196.829 198.346 202.609C204.126 208.389 212.109 211.966 220.931 211.966V213.322Z" fill="#F47474"/>
<path d="M220.931 152.452C228.54 152.452 235.435 155.538 240.43 160.524C245.416 165.511 248.503 172.406 248.503 180.023C248.503 187.641 245.416 194.527 240.43 199.523C235.444 204.509 228.549 207.595 220.931 207.595V206.239C228.165 206.239 234.721 203.305 239.467 198.559C244.212 193.814 247.147 187.266 247.147 180.023C247.147 172.78 244.212 166.233 239.467 161.488C234.721 156.742 228.174 153.808 220.931 153.808V152.452ZM220.931 207.595C213.313 207.595 206.427 204.509 201.432 199.523C196.446 194.536 193.359 187.641 193.359 180.023C193.359 172.406 196.446 165.52 201.432 160.524C206.418 155.538 213.313 152.452 220.931 152.452V153.808C213.688 153.808 207.141 156.742 202.395 161.488C197.65 166.233 194.715 172.789 194.715 180.023C194.715 187.258 197.65 193.814 202.395 198.559C207.141 203.305 213.688 206.239 220.931 206.239V207.595Z" fill="#F47474"/>
<path d="M220.287 147.121L217.91 152.991L219.167 153.5L221.543 147.63L220.287 147.121Z" fill="#F47474"/>
<path d="M221.555 147.125L220.299 147.634L222.676 153.504L223.933 152.995L221.555 147.125Z" fill="#F47474"/>
<path d="M226.006 147.515L222.646 152.884L223.796 153.603L227.156 148.234L226.006 147.515Z" fill="#F47474"/>
<path d="M227.256 154.227L225.936 148.036L227.256 147.76L228.576 153.95L227.256 154.227Z" fill="#F47474"/>
<path d="M231.599 148.948L227.357 153.651L228.364 154.559L232.606 149.856L231.599 148.948Z" fill="#F47474"/>
<path d="M232.775 149.319L231.42 149.367L231.646 155.697L233.001 155.648L232.775 149.319Z" fill="#F47474"/>
<path d="M236.838 151.254L231.844 155.149L232.678 156.218L237.672 152.323L236.838 151.254Z" fill="#F47474"/>
<path d="M235.693 157.946L236.568 151.676L237.914 151.863L237.031 158.134L235.693 157.946Z" fill="#F47474"/>
<path d="M241.585 154.472L235.99 157.44L236.626 158.638L242.22 155.67L241.585 154.472Z" fill="#F47474"/>
<path d="M239.307 160.846L241.251 154.825L242.545 155.244L240.591 161.265L239.307 160.846Z" fill="#F47474"/>
<path d="M239.691 160.364L245.712 158.41L246.132 159.695L240.102 161.648L239.691 160.364Z" fill="#F47474"/>
<path d="M245.348 158.76L242.379 164.354L243.576 164.99L246.546 159.396L245.348 158.76Z" fill="#F47474"/>
<path d="M242.822 163.914L249.093 163.04L249.271 164.387L243.001 165.261L242.822 163.914Z" fill="#F47474"/>
<path d="M248.641 163.273L244.746 168.267L245.815 169.1L249.71 164.106L248.641 163.273Z" fill="#F47474"/>
<path d="M245.306 167.968L245.258 169.323L251.587 169.549L251.635 168.194L245.306 167.968Z" fill="#F47474"/>
<path d="M251.129 168.328L246.426 172.569L247.334 173.576L252.037 169.334L251.129 168.328Z" fill="#F47474"/>
<path d="M247.004 172.37L253.195 173.69L252.918 175.019L246.719 173.699L247.004 172.37Z" fill="#F47474"/>
<path d="M252.708 173.813L247.34 177.173L248.054 178.315L253.423 174.955L252.708 173.813Z" fill="#F47474"/>
<path d="M247.921 176.992L247.412 178.249L253.282 180.625L253.791 179.369L247.921 176.992Z" fill="#F47474"/>
<path d="M253.296 179.421L247.426 181.798L247.935 183.054L253.805 180.678L253.296 179.421Z" fill="#F47474"/>
<path d="M248.067 181.773L247.348 182.922L252.716 186.283L253.435 185.134L248.067 181.773Z" fill="#F47474"/>
<path d="M246.719 186.348L252.918 185.028L253.195 186.348L247.004 187.668L246.719 186.348Z" fill="#F47474"/>
<path d="M247.326 186.397L246.418 187.404L251.121 191.645L252.029 190.639L247.326 186.397Z" fill="#F47474"/>
<path d="M251.546 190.535L245.217 190.761L245.265 192.116L251.594 191.89L251.546 190.535Z" fill="#F47474"/>
<path d="M245.817 190.907L244.748 191.741L248.644 196.734L249.713 195.9L245.817 190.907Z" fill="#F47474"/>
<path d="M243.001 194.786L249.271 195.66L249.093 197.007L242.822 196.124L243.001 194.786Z" fill="#F47474"/>
<path d="M243.555 195.112L242.357 195.748L245.326 201.342L246.523 200.707L243.555 195.112Z" fill="#F47474"/>
<path d="M240.102 198.39L246.132 200.343L245.712 201.637L239.691 199.683L240.102 198.39Z" fill="#F47474"/>
<path d="M240.591 198.782L242.545 204.803L241.251 205.214L239.307 199.193L240.591 198.782Z" fill="#F47474"/>
<path d="M236.62 201.446L235.984 202.644L241.579 205.612L242.214 204.415L236.62 201.446Z" fill="#F47474"/>
<path d="M237.031 201.904L237.914 208.175L236.568 208.362L235.693 202.092L237.031 201.904Z" fill="#F47474"/>
<path d="M232.658 203.828L231.824 204.897L236.818 208.792L237.652 207.723L232.658 203.828Z" fill="#F47474"/>
<path d="M231.668 204.348L231.441 210.677L232.796 210.725L233.023 204.396L231.668 204.348Z" fill="#F47474"/>
<path d="M228.343 205.486L227.336 206.394L231.578 211.097L232.585 210.189L228.343 205.486Z" fill="#F47474"/>
<path d="M228.576 206.097L227.256 212.287L225.936 212.011L227.256 205.811L228.576 206.097Z" fill="#F47474"/>
<path d="M223.821 206.449L222.672 207.168L226.032 212.536L227.181 211.817L223.821 206.449Z" fill="#F47474"/>
<path d="M222.696 206.551L220.318 212.421L221.575 212.93L223.953 207.06L222.696 206.551Z" fill="#F47474"/>
<path d="M219.184 206.497L217.928 207.006L220.305 212.876L221.562 212.367L219.184 206.497Z" fill="#F47474"/>
<path d="M218.066 206.444L214.705 211.812L215.854 212.532L219.215 207.164L218.066 206.444Z" fill="#F47474"/>
<path d="M214.606 205.811L215.927 212.011L214.606 212.287L213.277 206.097L214.606 205.811Z" fill="#F47474"/>
<path d="M213.523 205.553L209.281 210.256L210.288 211.164L214.53 206.461L213.523 205.553Z" fill="#F47474"/>
<path d="M210.244 204.297L208.889 204.345L209.115 210.674L210.47 210.626L210.244 204.297Z" fill="#F47474"/>
<path d="M209.195 203.865L204.201 207.76L205.035 208.829L210.029 204.934L209.195 203.865Z" fill="#F47474"/>
<path d="M206.168 202.092L205.294 208.362L203.947 208.175L204.821 201.904L206.168 202.092Z" fill="#F47474"/>
<path d="M205.24 201.409L199.646 204.379L200.282 205.576L205.876 202.607L205.24 201.409Z" fill="#F47474"/>
<path d="M202.556 199.193L200.612 205.214L199.318 204.803L201.272 198.782L202.556 199.193Z" fill="#F47474"/>
<path d="M202.173 199.683L196.152 201.637L195.732 200.343L201.762 198.39L202.173 199.683Z" fill="#F47474"/>
<path d="M198.293 195.051L195.324 200.646L196.522 201.281L199.49 195.687L198.293 195.051Z" fill="#F47474"/>
<path d="M199.042 196.124L192.771 197.007L192.584 195.66L198.855 194.786L199.042 196.124Z" fill="#F47474"/>
<path d="M196.03 190.898L192.135 195.892L193.204 196.726L197.099 191.732L196.03 190.898Z" fill="#F47474"/>
<path d="M190.304 190.504L190.256 191.859L196.585 192.085L196.634 190.73L190.304 190.504Z" fill="#F47474"/>
<path d="M194.519 186.407L189.816 190.649L190.725 191.656L195.427 187.414L194.519 186.407Z" fill="#F47474"/>
<path d="M194.858 187.668L188.668 186.348L188.944 185.028L195.135 186.348L194.858 187.668Z" fill="#F47474"/>
<path d="M193.813 181.733L188.445 185.094L189.165 186.243L194.533 182.882L193.813 181.733Z" fill="#F47474"/>
<path d="M188.571 179.401L188.062 180.657L193.932 183.035L194.441 181.778L188.571 179.401Z" fill="#F47474"/>
<path d="M193.923 177.049L188.053 179.426L188.562 180.683L194.432 178.306L193.923 177.049Z" fill="#F47474"/>
<path d="M189.157 173.756L188.438 174.905L193.806 178.265L194.525 177.116L189.157 173.756Z" fill="#F47474"/>
<path d="M195.135 173.699L188.944 175.019L188.668 173.69L194.858 172.37L195.135 173.699Z" fill="#F47474"/>
<path d="M190.746 168.388L189.838 169.395L194.541 173.637L195.449 172.63L190.746 168.388Z" fill="#F47474"/>
<path d="M196.583 167.963L190.254 168.189L190.302 169.544L196.632 169.318L196.583 167.963Z" fill="#F47474"/>
<path d="M193.21 163.267L192.141 164.101L196.036 169.094L197.105 168.26L193.21 163.267Z" fill="#F47474"/>
<path d="M198.855 165.261L192.584 164.387L192.771 163.04L199.042 163.914L198.855 165.261Z" fill="#F47474"/>
<path d="M196.547 158.756L195.35 159.392L198.318 164.986L199.516 164.351L196.547 158.756Z" fill="#F47474"/>
<path d="M201.762 161.648L195.732 159.695L196.152 158.41L202.173 160.364L201.762 161.648Z" fill="#F47474"/>
<path d="M201.272 161.265L199.318 155.244L200.612 154.825L202.556 160.846L201.272 161.265Z" fill="#F47474"/>
<path d="M200.272 154.418L199.637 155.616L205.231 158.584L205.867 157.386L200.272 154.418Z" fill="#F47474"/>
<path d="M204.821 158.134L203.947 151.863L205.294 151.676L206.168 157.946L204.821 158.134Z" fill="#F47474"/>
<path d="M205.045 151.264L204.211 152.333L209.204 156.229L210.038 155.16L205.045 151.264Z" fill="#F47474"/>
<path d="M209.123 149.355L208.896 155.684L210.251 155.732L210.478 149.403L209.123 149.355Z" fill="#F47474"/>
<path d="M210.272 148.886L209.266 149.794L213.507 154.497L214.514 153.589L210.272 148.886Z" fill="#F47474"/>
<path d="M213.277 153.95L214.606 147.76L215.927 148.036L214.606 154.227L213.277 153.95Z" fill="#F47474"/>
<path d="M215.833 147.519L214.684 148.238L218.044 153.606L219.194 152.887L215.833 147.519Z" fill="#F47474"/>
<path d="M221.351 153.13H220.504V180.023H221.351V153.13Z" fill="#F47474"/>
<path d="M230.529 154.896L221.332 180.166L220.529 179.881L229.726 154.61L230.529 154.896Z" fill="#F47474"/>
<path d="M238.54 159.695L221.253 180.291L220.602 179.747L237.889 159.151L238.54 159.695Z" fill="#F47474"/>
<path d="M244.435 166.938L221.145 180.389L220.717 179.658L244.007 166.206L244.435 166.938Z" fill="#F47474"/>
<path d="M247.486 175.769L221.002 180.443L220.859 179.604L247.343 174.93L247.486 175.769Z" fill="#F47474"/>
<path d="M247.343 185.108L220.859 180.443L221.002 179.604L247.486 184.278L247.343 185.108Z" fill="#F47474"/>
<path d="M244.007 193.832L220.717 180.389L221.145 179.658L244.435 193.1L244.007 193.832Z" fill="#F47474"/>
<path d="M237.889 200.896L220.602 180.291L221.253 179.747L238.54 200.352L237.889 200.896Z" fill="#F47474"/>
<path d="M229.726 205.437L220.529 180.166L221.332 179.881L230.529 205.151L229.726 205.437Z" fill="#F47474"/>
<path d="M221.351 180.023H220.504V206.917H221.351V180.023Z" fill="#F47474"/>
<path d="M211.334 205.151L220.531 179.881L221.333 180.166L212.128 205.437L211.334 205.151Z" fill="#F47474"/>
<path d="M203.324 200.352L220.602 179.747L221.253 180.291L203.966 200.896L203.324 200.352Z" fill="#F47474"/>
<path d="M197.428 193.1L220.718 179.658L221.146 180.389L197.856 193.832L197.428 193.1Z" fill="#F47474"/>
<path d="M194.377 184.278L220.86 179.604L221.003 180.443L194.52 185.108L194.377 184.278Z" fill="#F47474"/>
<path d="M194.52 174.93L221.003 179.604L220.86 180.443L194.377 175.769L194.52 174.93Z" fill="#F47474"/>
<path d="M197.856 166.206L221.146 179.658L220.718 180.389L197.428 166.938L197.856 166.206Z" fill="#F47474"/>
<path d="M203.966 159.151L221.253 179.747L220.602 180.291L203.324 159.695L203.966 159.151Z" fill="#F47474"/>
<path d="M212.134 154.607L211.338 154.897L220.536 180.169L221.332 179.879L212.134 154.607Z" fill="#F47474"/>
<path d="M373.357 198.131H377.915C377.781 197.578 377.647 197.025 377.522 196.472C377.522 196.454 377.522 196.445 377.513 196.427C377.201 195.054 376.916 193.671 376.657 192.226C376.657 192.217 376.657 192.208 376.657 192.199C376.407 190.817 376.184 189.389 375.979 187.828C375.979 187.82 375.979 187.802 375.979 187.793C375.934 187.481 375.899 187.159 375.854 186.829H373.357V110.733C373.571 110.733 373.749 110.876 373.865 111.108C373.954 111.286 374.008 111.527 374.008 111.794C374.008 113.614 374.302 114.863 374.73 115.684C375.256 116.691 375.997 117.057 376.639 117.057C376.773 117.057 376.88 117.164 376.88 117.298V118.413C376.88 118.556 376.773 118.663 376.639 118.663H375.872V120.197C376.38 120.358 376.702 120.59 376.702 120.893V121.107V121.901C376.702 122.962 376.184 123.729 375.444 124.202L375.381 124.541C375.426 125.388 375.462 126.218 375.506 127.048C375.506 127.048 375.506 127.065 375.506 127.074L375.595 128.841V128.849C375.64 129.679 375.676 130.5 375.72 131.302C375.72 131.311 375.72 131.32 375.72 131.329C375.765 132.186 375.809 133.024 375.854 133.845C375.854 133.854 375.854 133.862 375.854 133.871C375.899 134.692 375.943 135.486 375.988 136.28C375.988 136.307 375.988 136.342 375.988 136.369C376.032 137.181 376.077 137.984 376.122 138.768C376.122 138.777 376.122 138.786 376.122 138.795C376.175 139.714 376.229 140.606 376.282 141.48C376.282 141.489 376.282 141.498 376.282 141.507C376.336 142.452 376.398 143.38 376.452 144.281C376.452 144.281 376.452 144.308 376.452 144.317C376.496 145.057 376.541 145.78 376.594 146.493C376.594 146.502 376.594 146.511 376.594 146.529C376.639 147.234 376.684 147.929 376.737 148.616C376.737 148.616 376.737 148.643 376.737 148.652V148.67C376.737 148.67 376.755 148.741 376.737 148.777C376.782 149.472 376.835 150.15 376.88 150.828V150.846C376.951 151.854 377.023 152.835 377.094 153.79C377.094 153.799 377.094 153.808 377.094 153.817C377.174 154.851 377.255 155.85 377.335 156.831V156.849C377.406 157.706 377.478 158.535 377.549 159.347C377.602 159.392 377.647 159.463 377.647 159.534C377.647 159.597 377.62 159.65 377.585 159.695C377.665 160.605 377.745 161.488 377.825 162.344V162.371C377.95 163.629 378.066 164.833 378.191 165.992V166.019C378.334 167.375 378.485 168.668 378.637 169.899V169.908C378.824 171.398 379.012 172.798 379.208 174.118C379.208 174.118 379.208 174.145 379.208 174.154C379.369 175.225 379.529 176.232 379.69 177.205H381.456C381.59 177.205 381.697 177.312 381.697 177.446V177.936V177.954L380.591 181.709C382.107 188.667 383.971 193.154 386.406 197.962H387.682C387.816 197.962 387.923 198.069 387.923 198.202V200.923V203.59L389.528 206.266C389.528 206.266 389.546 206.293 389.546 206.302L390.046 207.14C390.135 207.176 390.197 207.265 390.197 207.363C390.197 207.372 390.197 207.381 390.197 207.39L393.096 212.216C393.096 212.216 393.114 212.243 393.114 212.251L395.326 215.935C395.326 215.935 395.335 215.953 395.344 215.962L397.788 220.03C397.788 220.03 397.833 220.119 397.833 220.172C397.833 220.226 397.815 220.788 397.788 221.448V224.945H373.312V219.932H386.585C386.496 219.548 386.389 219.173 386.264 218.817V218.808C385.345 216.078 383.588 214 381.393 212.581C381.072 212.376 380.742 212.18 380.403 212.002C380.252 211.921 380.1 211.841 379.948 211.77C377.915 210.797 375.631 210.307 373.339 210.298V197.971L373.357 198.131ZM368.798 198.131H373.357V210.459H373.321C371.019 210.459 368.709 210.949 366.675 211.93C366.524 212.011 366.372 212.082 366.221 212.162C365.882 212.341 365.551 212.537 365.23 212.742C363.036 214.16 361.279 216.23 360.36 218.968V218.977C360.235 219.334 360.137 219.709 360.039 220.092H373.392V225.105H348.871V220.342C348.871 220.279 348.889 220.235 348.916 220.19L351.351 216.132C351.351 216.132 351.36 216.105 351.369 216.096L353.581 212.412C353.581 212.412 353.599 212.385 353.608 212.376L356.587 207.417C356.587 207.417 356.596 207.39 356.605 207.381L357.158 206.462C357.158 206.462 357.176 206.436 357.185 206.427L358.79 203.751V201.093V198.363C358.79 198.229 358.897 198.113 359.031 198.113H360.307C360.619 197.507 360.922 196.9 361.207 196.294V196.276H361.216C362.983 192.601 364.428 188.908 365.65 183.913C365.65 183.904 365.65 183.886 365.65 183.877C365.81 183.235 365.962 182.566 366.113 181.87L365.007 178.115V177.606C365.007 177.463 365.114 177.356 365.248 177.356H367.014C367.817 172.673 368.513 166.965 369.164 159.704C369.164 159.686 369.164 159.668 369.164 159.659C369.164 159.623 369.164 159.597 369.182 159.57C369.744 153.183 370.27 145.583 370.779 136.423C370.779 136.423 370.779 136.396 370.779 136.378C370.912 134.005 371.037 131.534 371.171 128.948V128.93C371.171 128.93 371.171 128.903 371.171 128.885C371.242 127.494 371.314 126.066 371.385 124.604L371.323 124.273C370.573 123.801 370.065 123.034 370.065 121.963V121.178V120.946C370.065 120.643 370.386 120.411 370.895 120.251V118.716H370.127C369.994 118.716 369.887 118.609 369.887 118.475V117.36C369.887 117.218 369.994 117.111 370.127 117.111C370.779 117.111 371.51 116.745 372.036 115.737C372.464 114.907 372.759 113.659 372.759 111.848C372.759 111.58 372.812 111.339 372.911 111.161C373.026 110.929 373.205 110.786 373.419 110.786V186.883H370.921C370.877 187.213 370.841 187.534 370.796 187.855V187.882C370.591 189.443 370.368 190.879 370.119 192.253V192.271C369.86 193.716 369.574 195.098 369.262 196.472C369.262 196.472 369.262 196.499 369.262 196.508C369.137 197.061 369.004 197.614 368.87 198.167L368.798 198.131Z" fill="#F47474"/>
<path d="M7.40163 225.64H-6.12109V226.621H7.40163V225.64Z" fill="#FFF8F7"/>
<path d="M27.8098 225.64H14.2871V226.621H27.8098V225.64Z" fill="#FFF8F7"/>
<path d="M48.2278 225.64H34.7051V226.621H48.2278V225.64Z" fill="#FFF8F7"/>
<path d="M68.6379 225.64H55.1152V226.621H68.6379V225.64Z" fill="#FFF8F7"/>
<path d="M89.0559 225.64H75.5332V226.621H89.0559V225.64Z" fill="#FFF8F7"/>
<path d="M109.466 225.64H95.9434V226.621H109.466V225.64Z" fill="#FFF8F7"/>
<path d="M129.882 225.64H116.359V226.621H129.882V225.64Z" fill="#FFF8F7"/>
<path d="M150.292 225.64H136.77V226.621H150.292V225.64Z" fill="#FFF8F7"/>
<path d="M170.708 225.64H157.186V226.621H170.708V225.64Z" fill="#FFF8F7"/>
<path d="M191.118 225.64H177.596V226.621H191.118V225.64Z" fill="#FFF8F7"/>
<path d="M211.536 225.64H198.014V226.621H211.536V225.64Z" fill="#FFF8F7"/>
<path d="M231.945 225.64H218.422V226.621H231.945V225.64Z" fill="#FFF8F7"/>
<path d="M252.363 225.64H238.84V226.621H252.363V225.64Z" fill="#FFF8F7"/>
<path d="M272.771 225.64H259.248V226.621H272.771V225.64Z" fill="#FFF8F7"/>
<path d="M293.189 225.64H279.666V226.621H293.189V225.64Z" fill="#FFF8F7"/>
<path d="M313.601 225.64H300.078V226.621H313.601V225.64Z" fill="#FFF8F7"/>
<path d="M334.017 225.64H320.494V226.621H334.017V225.64Z" fill="#FFF8F7"/>
<path d="M354.427 225.64H340.904V226.621H354.427V225.64Z" fill="#FFF8F7"/>
<path d="M374.843 225.64H361.32V226.621H374.843V225.64Z" fill="#FFF8F7"/>
<path d="M7.40163 238.102H-6.12109V239.083H7.40163V238.102Z" fill="#FFF8F7"/>
<path d="M27.8098 238.102H14.2871V239.083H27.8098V238.102Z" fill="#FFF8F7"/>
<path d="M48.2278 238.102H34.7051V239.083H48.2278V238.102Z" fill="#FFF8F7"/>
<path d="M68.6379 238.102H55.1152V239.083H68.6379V238.102Z" fill="#FFF8F7"/>
<path d="M89.0559 238.102H75.5332V239.083H89.0559V238.102Z" fill="#FFF8F7"/>
<path d="M109.466 238.102H95.9434V239.083H109.466V238.102Z" fill="#FFF8F7"/>
<path d="M129.882 238.102H116.359V239.083H129.882V238.102Z" fill="#FFF8F7"/>
<path d="M150.292 238.102H136.77V239.083H150.292V238.102Z" fill="#FFF8F7"/>
<path d="M170.708 238.102H157.186V239.083H170.708V238.102Z" fill="#FFF8F7"/>
<path d="M191.118 238.102H177.596V239.083H191.118V238.102Z" fill="#FFF8F7"/>
<path d="M211.536 238.102H198.014V239.083H211.536V238.102Z" fill="#FFF8F7"/>
<path d="M231.945 238.102H218.422V239.083H231.945V238.102Z" fill="#FFF8F7"/>
<path d="M252.363 238.102H238.84V239.083H252.363V238.102Z" fill="#FFF8F7"/>
<path d="M272.771 238.102H259.248V239.083H272.771V238.102Z" fill="#FFF8F7"/>
<path d="M293.189 238.102H279.666V239.083H293.189V238.102Z" fill="#FFF8F7"/>
<path d="M313.601 238.102H300.078V239.083H313.601V238.102Z" fill="#FFF8F7"/>
<path d="M334.017 238.102H320.494V239.083H334.017V238.102Z" fill="#FFF8F7"/>
<path d="M354.427 238.102H340.904V239.083H354.427V238.102Z" fill="#FFF8F7"/>
<path d="M374.843 238.102H361.32V239.083H374.843V238.102Z" fill="#FFF8F7"/>
<path d="M396.325 225.64H382.803V226.621H396.325V225.64Z" fill="#FFF8F7"/>
<path d="M416.743 225.64H403.221V226.621H416.743V225.64Z" fill="#FFF8F7"/>
<path d="M437.152 225.64H423.629V226.621H437.152V225.64Z" fill="#FFF8F7"/>
<path d="M396.325 238.102H382.803V239.083H396.325V238.102Z" fill="#FFF8F7"/>
<path d="M416.743 238.102H403.221V239.083H416.743V238.102Z" fill="#FFF8F7"/>
<path d="M437.152 238.102H423.629V239.083H437.152V238.102Z" fill="#FFF8F7"/>
<path fill-rule="evenodd" clip-rule="evenodd" d="M44.9023 208.683L62.0644 205.677V234.427L44.9023 237.433V208.683Z" fill="#4D4D4D"/>
<path fill-rule="evenodd" clip-rule="evenodd" d="M44.9023 208.683L63.2686 206.748V235.497L44.9023 237.433V208.683Z" fill="#E6E6E6"/>
<path fill-rule="evenodd" clip-rule="evenodd" d="M44.9023 208.683L64.6602 207.791V236.541L44.9023 237.433V208.683Z" fill="white"/>
<path d="M65.6681 208.683H44.9023V237.433H65.6681V208.683Z" fill="#4D4D4D"/>
<path d="M55.6513 232.759C55.9278 232.741 56.2044 232.696 56.472 232.643C56.6504 232.598 56.8288 232.553 56.9982 232.491C57.0785 232.464 57.1588 232.428 57.248 232.402C57.4086 232.339 57.5691 232.268 57.7208 232.188C57.801 232.152 57.8724 232.107 57.9438 232.063C58.2827 231.867 58.5949 231.644 58.8804 231.385C58.9428 231.331 59.0052 231.269 59.0677 231.206C59.1301 231.144 59.1836 231.082 59.2461 231.019C59.3353 230.921 59.4156 230.823 59.4958 230.725C59.6207 230.564 59.7367 230.395 59.8437 230.225C59.8705 230.181 59.8972 230.136 59.924 230.083C59.9686 230.011 60.0043 229.931 60.0489 229.86C60.0667 229.824 60.0846 229.779 60.1024 229.744C60.1381 229.663 60.1738 229.583 60.2094 229.503C60.2451 229.422 60.2719 229.342 60.3076 229.262C60.37 229.101 60.4235 228.932 60.4592 228.762C60.477 228.673 60.5038 228.593 60.5216 228.504C60.5395 228.415 60.5573 228.325 60.5662 228.236C60.5752 228.147 60.593 228.058 60.6019 227.968C60.6198 227.79 60.6287 227.603 60.6287 227.424C60.6287 227.246 60.6198 227.059 60.6019 226.88C60.593 226.791 60.5841 226.702 60.5662 226.613C60.5484 226.523 60.5395 226.434 60.5216 226.345C60.5038 226.256 60.486 226.176 60.4592 226.086C60.4146 225.917 60.3611 225.747 60.3076 225.587C60.2897 225.542 60.2808 225.507 60.263 225.462C60.2184 225.337 60.1648 225.221 60.1024 225.105C60.0846 225.069 60.0667 225.025 60.0489 224.989C60.0132 224.909 59.9686 224.838 59.924 224.757C59.7991 224.534 59.6475 224.32 59.4958 224.115C59.4156 224.017 59.3353 223.919 59.2461 223.821C59.1926 223.758 59.1301 223.696 59.0677 223.633C59.0052 223.571 58.9428 223.517 58.8804 223.455C58.7555 223.348 58.6306 223.241 58.4968 223.134C58.3184 223 58.14 222.884 57.9438 222.768C57.8724 222.724 57.7921 222.688 57.7208 222.643C57.6851 222.625 57.6494 222.608 57.6137 222.59C57.5691 222.572 57.5245 222.545 57.4888 222.527C57.471 222.527 57.4532 222.509 57.4353 222.501C57.3729 222.474 57.3104 222.447 57.248 222.42C57.1856 222.393 57.1142 222.367 57.0428 222.349C57.025 222.349 57.0161 222.34 56.9982 222.331C56.8377 222.278 56.6771 222.233 56.5166 222.188C56.463 222.179 56.4095 222.162 56.3649 222.153C56.3292 222.153 56.2936 222.135 56.249 222.135C56.0527 222.099 55.8565 222.072 55.6602 222.063V222.358C55.8743 222.376 56.0884 222.402 56.2936 222.447C56.2757 222.483 56.2311 222.465 56.1954 222.483C56.1598 222.501 56.1508 222.536 56.1062 222.536C55.9992 222.554 55.9189 222.509 55.8297 222.509C55.8297 222.545 55.8743 222.572 55.9011 222.581C55.9814 222.625 56.0527 222.616 56.1687 222.616C56.2311 222.616 56.2936 222.634 56.3471 222.599C56.3828 222.581 56.3738 222.527 56.4006 222.501C56.4095 222.492 56.4274 222.474 56.4452 222.465C56.4987 222.483 56.5612 222.492 56.6147 222.509C56.6058 222.545 56.5433 222.536 56.5433 222.59C56.579 222.616 56.6771 222.581 56.7128 222.536C56.7306 222.536 56.7396 222.536 56.7574 222.545C56.8377 222.572 56.918 222.599 56.9982 222.625C57.1142 222.67 57.2212 222.706 57.3283 222.759C57.3104 222.768 57.2837 222.786 57.2658 222.786C57.2212 222.786 57.1945 222.724 57.141 222.741C57.141 222.804 57.2034 222.831 57.248 222.857C57.2926 222.884 57.3461 222.92 57.364 222.973C57.3194 223.071 57.2391 222.973 57.1677 222.973C57.0874 222.973 56.9715 223.125 56.9001 223C56.918 222.938 56.9893 222.92 57.0072 222.857C56.9893 222.857 56.9804 222.857 56.9626 222.875C56.9358 222.884 56.909 222.902 56.8823 222.92C56.8466 222.938 56.8109 222.955 56.7663 222.964C56.7306 222.964 56.686 222.964 56.6504 222.982C56.579 223 56.5344 223.054 56.463 223.08C56.4363 223.089 56.4006 223.08 56.3738 223.098C56.3025 223.125 56.2222 223.161 56.1508 223.205C56.0795 223.241 55.9992 223.285 55.9457 223.321C55.9189 223.339 55.8565 223.419 55.8565 223.437C55.8565 223.473 55.9278 223.482 55.9278 223.517C55.9278 223.535 55.8922 223.58 55.9189 223.616C55.9457 223.642 55.9903 223.616 56.0438 223.624C56.133 223.633 56.1865 223.705 56.2579 223.74C56.3114 223.767 56.3828 223.803 56.4452 223.812C56.5255 223.821 56.6147 223.785 56.6236 223.856C56.6325 223.919 56.5522 223.937 56.5433 223.972C56.5879 224.026 56.5166 224.053 56.5166 224.106C56.5166 224.142 56.5612 224.204 56.6058 224.213C56.6593 224.213 56.7485 224.16 56.7752 224.097C56.802 224.026 56.7931 223.937 56.8466 223.883C57.1142 223.883 57.3372 223.758 57.3194 223.491C57.3194 223.464 57.3015 223.428 57.3104 223.401C57.3104 223.357 57.3907 223.321 57.3818 223.268C57.4086 223.259 57.4264 223.232 57.4442 223.205C57.4621 223.17 57.4799 223.125 57.5245 223.107C57.5513 223.107 57.5691 223.107 57.5959 223.107C57.6405 223.125 57.694 223.143 57.7475 223.143C57.7743 223.143 57.81 223.116 57.8367 223.116C57.8902 223.116 57.9259 223.196 57.9705 223.223C58.0062 223.25 58.0508 223.241 58.0597 223.277C58.0508 223.339 58.0062 223.339 58.0062 223.401C58.0062 223.455 58.0686 223.5 58.0954 223.5C58.14 223.5 58.1935 223.482 58.2381 223.464C58.2827 223.446 58.3273 223.393 58.363 223.366C58.4165 223.41 58.479 223.455 58.5325 223.5C58.5325 223.526 58.5414 223.544 58.5414 223.562C58.5414 223.624 58.5414 223.669 58.5414 223.731C58.5414 223.83 58.6663 223.821 58.7287 223.865C58.7466 223.883 58.7555 223.919 58.7733 223.937C58.8001 223.972 58.8358 223.972 58.8447 224.017C58.8536 224.115 58.7555 224.124 58.7644 224.231C58.7466 224.276 58.693 224.276 58.693 224.329C58.693 224.418 58.8268 224.347 58.8625 224.418C58.8804 224.454 58.8625 224.481 58.8447 224.534C58.8893 224.588 58.8893 224.668 58.809 224.668C58.7644 224.668 58.7466 224.615 58.702 224.606C58.6752 224.606 58.6395 224.606 58.6038 224.597C58.5771 224.597 58.5414 224.579 58.5146 224.579C58.4433 224.579 58.363 224.588 58.3273 224.552C58.3987 224.463 58.4879 224.374 58.5771 224.293C58.6038 224.267 58.6574 224.258 58.6484 224.204C58.6038 224.16 58.5414 224.204 58.4968 224.231C58.4522 224.258 58.3898 224.293 58.3362 224.302C58.2381 224.32 58.1132 224.276 58.0419 224.329C58.033 224.374 58.1311 224.356 58.1132 224.418C58.0776 224.418 58.0419 224.427 58.0062 224.4C57.9794 224.374 57.9973 224.338 57.9794 224.329C57.9527 224.302 57.8367 224.293 57.7921 224.302C57.7297 224.311 57.6762 224.347 57.6762 224.4C57.7475 224.436 57.8635 224.365 57.8902 224.454C57.8546 224.525 57.7564 224.561 57.7654 224.659C57.7654 224.695 57.81 224.748 57.8456 224.748C57.8813 224.748 57.8992 224.722 57.9259 224.722C57.9616 224.722 57.9527 224.766 57.9884 224.757C58.0419 224.731 58.0776 224.659 58.14 224.659C58.2203 224.748 58.0686 224.793 57.9884 224.829C57.8992 224.864 57.7743 224.882 57.7118 224.909C57.6762 224.927 57.5334 225.061 57.5156 224.954C57.4978 224.882 57.587 224.9 57.6048 224.838C57.5156 224.82 57.4353 224.873 57.355 224.909C57.2391 224.954 57.0428 224.98 57.0161 225.105C57.0161 225.132 57.025 225.177 57.0161 225.194C56.9982 225.212 56.918 225.212 56.8823 225.221C56.8288 225.239 56.7752 225.284 56.7485 225.292C56.7217 225.292 56.686 225.292 56.6682 225.301C56.6236 225.319 56.6058 225.382 56.5522 225.417C56.5344 225.435 56.4809 225.444 56.463 225.462C56.4363 225.489 56.4274 225.569 56.3738 225.578C56.3382 225.578 56.3114 225.551 56.2846 225.578C56.2846 225.649 56.3114 225.747 56.2846 225.828C56.2133 225.881 56.1419 225.926 56.0527 225.97C56.0081 225.997 55.9635 226.006 55.9011 226.033C55.8565 226.051 55.8208 226.104 55.7762 226.131C55.7494 226.149 55.7227 226.167 55.6959 226.184V228.682C55.6959 228.682 55.7494 228.62 55.7673 228.593C55.803 228.53 55.803 228.486 55.8565 228.459C55.9189 228.423 55.9635 228.441 56.0438 228.414C56.0795 228.406 56.1062 228.379 56.1419 228.361C56.1687 228.343 56.1954 228.29 56.2311 228.325C56.2757 228.37 56.1776 228.397 56.2133 228.441C56.2936 228.486 56.3292 228.361 56.3917 228.361C56.4095 228.361 56.472 228.397 56.5076 228.414C56.5522 228.441 56.5701 228.486 56.6147 228.495C56.6504 228.495 56.695 228.486 56.7396 228.495C56.802 228.495 56.8288 228.557 56.8734 228.548C56.9269 228.548 56.9536 228.486 56.9982 228.477C57.0964 228.459 57.141 228.486 57.1856 228.548C57.2391 228.548 57.2391 228.495 57.2837 228.513C57.2569 228.566 57.2926 228.584 57.3104 228.629C57.3194 228.655 57.3194 228.673 57.3372 228.682C57.364 228.709 57.4175 228.709 57.4621 228.736C57.5067 228.762 57.5245 228.816 57.578 228.869C57.6316 228.923 57.7118 228.985 57.7743 228.985C57.8367 228.985 57.8902 228.968 57.9438 228.976C58.0597 228.994 58.14 229.048 58.2203 229.11C58.2649 229.146 58.3095 229.173 58.3273 229.217C58.3362 229.244 58.3273 229.289 58.3452 229.324C58.3719 229.396 58.479 229.431 58.4344 229.556C58.4522 229.592 58.4879 229.601 58.5325 229.628C58.5682 229.645 58.5949 229.69 58.6306 229.699C58.6574 229.699 58.6752 229.699 58.702 229.699C58.7644 229.699 58.809 229.726 58.8714 229.752C58.9071 229.77 58.9517 229.77 58.9785 229.788C59.0052 229.806 59.0142 229.877 59.0498 229.895C59.0766 229.904 59.1212 229.895 59.1658 229.895C59.2282 229.895 59.3085 229.94 59.362 229.94C59.3977 229.94 59.4245 229.922 59.4512 229.931C59.5226 229.931 59.5761 229.984 59.6296 230.029C58.9428 231.144 57.8278 231.965 56.5166 232.286C56.5166 232.232 56.4987 232.188 56.4987 232.134C56.4987 232.027 56.5076 231.947 56.4987 231.849C56.4809 231.768 56.472 231.652 56.4452 231.608C56.4184 231.554 56.2936 231.465 56.2311 231.429C56.1954 231.412 56.1419 231.403 56.0973 231.376C56.0081 231.331 55.8208 231.233 55.7851 231.144C55.7762 231.117 55.7762 231.082 55.7584 231.055C55.7494 231.028 55.7316 231.001 55.7138 230.975V232.714L55.6513 232.759ZM50.0406 226.345C50.0228 226.434 50.005 226.523 49.996 226.613C49.9782 226.702 49.9693 226.791 49.9604 226.88C49.9425 227.059 49.9336 227.246 49.9336 227.424C49.9336 227.603 49.9425 227.79 49.9604 227.968C49.9693 228.058 49.9782 228.147 49.996 228.236C50.005 228.325 50.0228 228.415 50.0406 228.504C50.0585 228.593 50.0763 228.673 50.1031 228.762C50.1477 228.932 50.2012 229.101 50.2636 229.262C50.2904 229.342 50.3261 229.422 50.3618 229.503C50.3974 229.583 50.4331 229.663 50.4688 229.744C50.4866 229.779 50.5045 229.824 50.5223 229.86C50.558 229.94 50.6026 230.011 50.6472 230.083C50.7721 230.306 50.9237 230.52 51.0754 230.725C51.1556 230.823 51.2359 230.921 51.3251 231.019C51.3786 231.082 51.4411 231.144 51.5035 231.206C51.566 231.269 51.6284 231.322 51.6908 231.385C51.9763 231.644 52.2885 231.875 52.6274 232.063C52.6988 232.107 52.7791 232.143 52.8594 232.188C53.011 232.268 53.1716 232.339 53.3321 232.402C53.4124 232.437 53.4927 232.464 53.5819 232.491C54.1171 232.669 54.6969 232.776 55.2945 232.776C55.4194 232.776 55.5443 232.776 55.6692 232.767V231.028C55.6692 231.028 55.6246 230.975 55.6067 230.939C55.5354 230.832 55.4818 230.698 55.4105 230.582C55.3748 230.529 55.3391 230.457 55.3034 230.413C55.2767 230.386 55.2053 230.359 55.1964 230.323C55.1875 230.27 55.1429 230.198 55.1518 230.154C55.1518 230.1 55.2678 230.056 55.2678 230.002C55.2678 229.958 55.2142 229.931 55.1964 229.895C55.1696 229.806 55.2142 229.752 55.2499 229.681C55.2588 229.654 55.2767 229.619 55.2856 229.601C55.3034 229.565 55.348 229.565 55.3748 229.529C55.3926 229.512 55.4016 229.467 55.4194 229.44C55.464 229.387 55.5354 229.36 55.5532 229.306C55.571 229.262 55.58 229.048 55.5532 228.976C55.5443 228.932 55.5086 228.905 55.4908 228.86C55.464 228.789 55.4551 228.718 55.3837 228.718C55.3391 228.718 55.3124 228.771 55.2767 228.798C55.2767 228.843 55.2767 228.887 55.2321 228.896C55.1696 228.914 55.1429 228.825 55.0626 228.807C55.0358 228.798 54.9823 228.807 54.9645 228.789C54.911 228.762 54.8931 228.682 54.8307 228.655C54.7861 228.629 54.7415 228.637 54.7058 228.602C54.6969 228.575 54.7058 228.522 54.7058 228.486C54.6434 228.45 54.5898 228.316 54.5185 228.281C54.4739 228.263 54.3936 228.263 54.3312 228.245C54.3044 228.236 54.2776 228.227 54.2509 228.218C54.2152 228.218 54.1795 228.218 54.1438 228.191C54.0279 228.138 53.9654 227.951 53.8316 227.96C53.7692 227.96 53.7157 228.013 53.6622 228.013C53.6086 228.013 53.5194 227.968 53.4481 227.942C53.3767 227.906 53.2964 227.888 53.2429 227.861C53.1983 227.835 53.1626 227.79 53.127 227.772C53.0913 227.754 53.0467 227.754 53.0199 227.745C52.9842 227.728 52.9486 227.692 52.895 227.656C52.8504 227.63 52.8058 227.585 52.8058 227.54C52.8058 227.496 52.8504 227.46 52.8504 227.415C52.8683 227.282 52.7612 227.184 52.6988 227.103C52.6542 227.041 52.6007 226.996 52.5472 226.934C52.5472 226.898 52.5472 226.889 52.5472 226.853C52.5115 226.818 52.4847 226.764 52.4401 226.72C52.4044 226.675 52.342 226.622 52.3331 226.568C52.3242 226.506 52.3598 226.443 52.3331 226.381C52.2885 226.274 52.1458 226.327 52.1636 226.461C52.1636 226.497 52.226 226.55 52.235 226.586C52.2528 226.622 52.2439 226.675 52.2617 226.72C52.2796 226.764 52.3242 226.8 52.3331 226.853C52.3598 226.934 52.3598 227.014 52.3777 227.068C52.3955 227.112 52.4669 227.148 52.4312 227.201C52.3777 227.21 52.3598 227.157 52.3242 227.13C52.3063 227.112 52.235 227.076 52.226 227.041C52.226 227.005 52.2439 226.961 52.235 226.925C52.2171 226.845 52.0476 226.845 52.0476 226.755C52.0476 226.702 52.119 226.693 52.119 226.648C52.119 226.595 52.0476 226.55 52.0298 226.497C52.012 226.452 52.012 226.381 52.003 226.327C52.003 226.274 52.003 226.202 51.9941 226.158C51.9852 226.122 51.9228 226.069 51.8871 226.042C51.8336 226.015 51.7979 226.024 51.7711 225.988C51.7533 225.953 51.7354 225.881 51.7354 225.837C51.7354 225.765 51.7354 225.694 51.7354 225.623C51.7354 225.551 51.7265 225.48 51.7354 225.4C51.7622 225.346 51.8157 225.319 51.8425 225.266C51.8603 225.23 51.8692 225.177 51.8871 225.141C51.9317 225.069 52.0209 224.998 52.0833 224.927C52.1458 224.846 52.2082 224.775 52.2528 224.677C52.2706 224.641 52.3063 224.57 52.2974 224.534C52.2974 224.481 52.1904 224.436 52.1904 224.365C52.1904 224.32 52.2528 224.329 52.2706 224.285C52.2796 224.267 52.2885 224.204 52.2885 224.177C52.2885 224.124 52.2617 224.062 52.2706 224.008C52.2796 223.954 52.3509 223.937 52.3152 223.883C52.2796 223.83 52.2082 223.91 52.1636 223.883C52.1279 223.847 52.1636 223.812 52.1725 223.749C52.1725 223.723 52.1547 223.696 52.1636 223.678C52.1636 223.651 52.2171 223.607 52.1993 223.589C52.1814 223.562 52.1547 223.508 52.1279 223.464C52.7702 222.955 53.5373 222.59 54.3758 222.438C54.3758 222.438 54.3936 222.474 54.4204 222.483C54.4739 222.456 54.5185 222.483 54.572 222.483C54.6255 222.483 54.6701 222.456 54.7326 222.465C54.8396 222.483 54.9823 222.581 55.0626 222.527C55.0804 222.509 55.0804 222.492 55.0983 222.456C55.1161 222.429 55.134 222.393 55.1518 222.358C55.1964 222.358 55.2321 222.358 55.2767 222.358C55.4016 222.358 55.5264 222.358 55.6513 222.376V222.081C55.5621 222.081 55.4729 222.072 55.3748 222.072C55.3391 222.072 55.3124 222.072 55.2767 222.072C55.2232 222.072 55.1696 222.072 55.1072 222.072C54.5631 222.09 54.0457 222.188 53.5551 222.349C53.4748 222.376 53.3946 222.402 53.3054 222.438C53.2786 222.447 53.2518 222.456 53.234 222.465C53.1805 222.492 53.127 222.509 53.0645 222.536C52.9842 222.572 52.904 222.608 52.8326 222.652C52.7523 222.688 52.681 222.732 52.6096 222.777C52.3063 222.947 52.0298 223.152 51.7711 223.375C51.7444 223.401 51.7087 223.428 51.6819 223.455C51.6195 223.508 51.557 223.571 51.4946 223.633C51.4322 223.696 51.3786 223.758 51.3162 223.821C51.227 223.919 51.1467 224.017 51.0664 224.115C50.9059 224.32 50.7632 224.534 50.6294 224.757C50.5848 224.829 50.5491 224.909 50.5045 224.989C50.4866 225.025 50.4688 225.069 50.451 225.105C50.3974 225.221 50.3439 225.337 50.2904 225.462C50.2726 225.507 50.2547 225.542 50.2458 225.587C50.1834 225.747 50.1298 225.917 50.0852 226.086C50.0674 226.176 50.0406 226.256 50.0228 226.345H50.0406ZM55.6513 226.256V228.753C55.6513 228.753 55.6156 228.78 55.5978 228.78C55.5532 228.78 55.4997 228.718 55.464 228.691C55.3302 228.637 55.2678 228.745 55.1607 228.745C55.0626 228.745 54.911 228.584 54.9199 228.486C54.9199 228.432 54.9556 228.343 54.9645 228.272C54.9645 228.218 55.0091 228.183 55.0091 228.129C55.0091 228.058 54.9199 228.004 54.8753 227.995C54.7682 227.977 54.6166 228.04 54.5006 227.995C54.4739 227.96 54.5274 227.933 54.5363 227.888C54.5363 227.87 54.5363 227.835 54.5452 227.817C54.5542 227.781 54.5988 227.754 54.6166 227.71C54.6255 227.683 54.6344 227.638 54.6434 227.603C54.6612 227.558 54.688 227.531 54.688 227.505C54.688 227.469 54.679 227.424 54.6434 227.398C54.5452 227.398 54.4828 227.407 54.4293 227.433C54.3044 227.487 54.3312 227.656 54.2063 227.692C54.1617 227.71 54.1082 227.71 54.0546 227.719C54.01 227.719 53.9654 227.745 53.9208 227.745C53.8673 227.745 53.787 227.701 53.7514 227.665C53.7246 227.638 53.6622 227.496 53.6532 227.469C53.6086 227.299 53.6532 227.148 53.7246 227.032C53.7424 227.005 53.7603 226.987 53.7692 226.961C53.787 226.925 53.7692 226.862 53.787 226.818C53.8049 226.738 53.9119 226.693 53.9833 226.648C54.0636 226.604 54.1349 226.532 54.233 226.532C54.2776 226.532 54.349 226.541 54.4025 226.559C54.4471 226.559 54.4828 226.595 54.5185 226.595C54.6255 226.595 54.6523 226.523 54.7326 226.479C54.8218 226.488 54.8842 226.461 54.9645 226.479C55.018 226.479 55.0626 226.541 55.0983 226.55C55.134 226.55 55.1696 226.515 55.2053 226.523C55.241 226.523 55.2945 226.604 55.3034 226.639C55.3034 226.693 55.2678 226.738 55.2767 226.791C55.3302 226.845 55.4283 226.853 55.5086 226.889C55.5621 226.845 55.5086 226.773 55.5086 226.711C55.5086 226.684 55.5086 226.657 55.5086 226.639C55.5086 226.595 55.4818 226.559 55.4818 226.523C55.4818 226.399 55.5532 226.327 55.6424 226.274L55.6513 226.256Z" fill="#FFE4A4"/>
<path d="M2.76598 204.482H-2.38086V208.478H2.76598V204.482Z" fill="#DE564A"/>
<path d="M18.2094 206.123H6.4707V209.219H18.2094V206.123Z" fill="#DE564A"/>
<path d="M8.00433 206.123H7.57617V209.219H8.00433V206.123Z" fill="#FAC58C"/>
<path d="M9.51996 206.123H9.0918V209.219H9.51996V206.123Z" fill="#FAC58C"/>
<path d="M11.0375 206.123H10.6094V209.219H11.0375V206.123Z" fill="#FAC58C"/>
<path d="M12.5532 206.123H12.125V209.219H12.5532V206.123Z" fill="#FAC58C"/>
<path d="M14.0707 206.123H13.6426V209.219H14.0707V206.123Z" fill="#FAC58C"/>
<path d="M15.5766 206.123H15.1484V209.219H15.5766V206.123Z" fill="#FAC58C"/>
<path d="M17.0942 206.123H16.666V209.219H17.0942V206.123Z" fill="#FAC58C"/>
<path fill-rule="evenodd" clip-rule="evenodd" d="M29.1055 208.282H33.9669L33.2889 206.016H29.7834L29.1055 208.282Z" fill="#DE564A"/>
<path fill-rule="evenodd" clip-rule="evenodd" d="M29.8574 208.282H33.2203L32.7475 206.016H30.3302L29.8574 208.282Z" fill="#FAC58C"/>
<path fill-rule="evenodd" clip-rule="evenodd" d="M30.293 208.282H32.7816L32.4338 206.016H30.6408L30.293 208.282Z" fill="#DE564A"/>
<path fill-rule="evenodd" clip-rule="evenodd" d="M30.793 208.282H32.2826L32.0775 206.016H30.9981L30.793 208.282Z" fill="#FAC58C"/>
<path fill-rule="evenodd" clip-rule="evenodd" d="M31.2832 208.282H31.7916L31.7203 206.016H31.3546L31.2832 208.282Z" fill="#DE564A"/>
<path fill-rule="evenodd" clip-rule="evenodd" d="M22.6113 208.282H27.4727L26.7948 206.016H23.2982L22.6113 208.282Z" fill="#DE564A"/>
<path fill-rule="evenodd" clip-rule="evenodd" d="M23.3613 208.282H26.7242L26.2514 206.016H23.8341L23.3613 208.282Z" fill="#FAC58C"/>
<path fill-rule="evenodd" clip-rule="evenodd" d="M23.7988 208.282H26.2875L25.9396 206.016H24.1467L23.7988 208.282Z" fill="#DE564A"/>
<path fill-rule="evenodd" clip-rule="evenodd" d="M24.2988 208.282H25.7974L25.5833 206.016H24.504L24.2988 208.282Z" fill="#FAC58C"/>
<path fill-rule="evenodd" clip-rule="evenodd" d="M24.7891 208.282H25.3064L25.2261 206.016H24.8604L24.7891 208.282Z" fill="#DE564A"/>
<path d="M35.1902 207.907H-3.89727C-5.1535 207.907 -6.17188 208.926 -6.17188 210.182V234.123C-6.17188 235.379 -5.1535 236.398 -3.89727 236.398H35.1902C36.4464 236.398 37.4648 235.379 37.4648 234.123V210.182C37.4648 208.926 36.4464 207.907 35.1902 207.907Z" fill="#4D4D4D"/>
<path d="M34.9048 209.228H-3.6118C-4.36554 209.228 -4.97656 209.839 -4.97656 210.592V233.731C-4.97656 234.484 -4.36554 235.096 -3.6118 235.096H34.9048C35.6585 235.096 36.2695 234.484 36.2695 233.731V210.592C36.2695 209.839 35.6585 209.228 34.9048 209.228Z" fill="#DE564A"/>
<path d="M37.4648 214.267H-6.17188V215.427H37.4648V214.267Z" fill="#4D4D4D"/>
<path d="M37.4648 230.377H-6.17188V231.536H37.4648V230.377Z" fill="#4D4D4D"/>
<path fill-rule="evenodd" clip-rule="evenodd" d="M15.646 231.884C20.5342 231.884 24.5304 227.897 24.5304 223C24.5304 218.103 20.5431 214.116 15.646 214.116C10.749 214.116 6.76172 218.103 6.76172 223C6.76172 227.897 10.749 231.884 15.646 231.884Z" fill="#FAC58C"/>
<path fill-rule="evenodd" clip-rule="evenodd" d="M15.6474 230.448C19.7506 230.448 23.0956 227.103 23.0956 223C23.0956 218.897 19.7506 215.552 15.6474 215.552C11.5442 215.552 8.19922 218.897 8.19922 223C8.19922 227.103 11.5442 230.448 15.6474 230.448Z" fill="#4D4D4D"/>
<path fill-rule="evenodd" clip-rule="evenodd" d="M15.6474 216.355C16.5394 216.355 17.3868 216.533 18.1717 216.854C18.1985 217.095 18.2163 217.345 18.2163 217.594C18.2163 221.27 15.237 224.24 11.5709 224.24C10.6789 224.24 9.83151 224.061 9.04655 223.749C9.01979 223.508 9.00195 223.259 9.00195 223.009C9.00195 219.334 11.9812 216.364 15.6474 216.364V216.355Z" fill="#B3B3B3"/>
<path fill-rule="evenodd" clip-rule="evenodd" d="M30.1324 211.752C31.845 211.752 33.2276 213.134 33.2276 214.847C33.2276 216.56 31.845 217.942 30.1324 217.942C28.4197 217.942 27.0371 216.56 27.0371 214.847C27.0371 213.134 28.4197 211.752 30.1324 211.752Z" fill="#4D4D4D"/>
<path fill-rule="evenodd" clip-rule="evenodd" d="M30.131 212.385C31.4958 212.385 32.6018 213.491 32.6018 214.856C32.6018 216.221 31.4958 217.327 30.131 217.327C28.7662 217.327 27.6602 216.221 27.6602 214.856C27.6602 213.491 28.7662 212.385 30.131 212.385Z" fill="white"/>
<path fill-rule="evenodd" clip-rule="evenodd" d="M30.097 214.856L27.9473 214.276C28.2059 213.304 29.089 212.626 30.097 212.626V214.847V214.856Z" fill="#FAC58C"/>
<path fill-rule="evenodd" clip-rule="evenodd" d="M30.0977 214.856L31.6676 213.286C32.3812 214 32.5239 215.097 32.0244 215.971L30.0977 214.856Z" fill="#FAC58C"/>
<path fill-rule="evenodd" clip-rule="evenodd" d="M30.0966 214.856L30.6764 217.006C29.7042 217.264 28.6784 216.845 28.1699 215.971L30.0966 214.856Z" fill="#FAC58C"/>
<path fill-rule="evenodd" clip-rule="evenodd" d="M33.2904 227.059C33.4598 226.925 33.5044 226.684 33.3706 226.506L30.3022 222.393C30.1684 222.224 29.9275 222.188 29.7491 222.313C29.5707 222.447 29.535 222.688 29.6688 222.866L32.7373 226.969C32.8711 227.148 33.112 227.183 33.2904 227.05V227.059Z" fill="#FAC58C"/>
<path fill-rule="evenodd" clip-rule="evenodd" d="M32.0154 223.366C32.5952 222.117 32.0511 220.636 30.8023 220.047C29.5535 219.468 28.0639 220.012 27.4841 221.261C26.9043 222.509 27.4484 223.999 28.6972 224.579C29.946 225.159 31.4356 224.615 32.0154 223.366Z" fill="#FAC58C"/>
<path fill-rule="evenodd" clip-rule="evenodd" d="M31.0079 222.893C31.329 222.197 31.0257 221.377 30.3389 221.055C29.652 220.734 28.8225 221.038 28.5013 221.724C28.1802 222.411 28.4835 223.241 29.1703 223.562C29.8572 223.883 30.6867 223.58 31.0079 222.893Z" fill="white"/>
<path fill-rule="evenodd" clip-rule="evenodd" d="M1.47113 210.369C3.95089 210.369 5.95789 212.376 5.95789 214.856C5.95789 217.336 3.95089 219.343 1.47113 219.343C-1.00863 219.343 -3.01562 217.336 -3.01562 214.856C-3.01562 212.376 -1.00863 210.369 1.47113 210.369Z" fill="#4D4D4D"/>
<path fill-rule="evenodd" clip-rule="evenodd" d="M1.47385 211.44C3.35597 211.44 4.88129 212.965 4.88129 214.847C4.88129 216.729 3.35597 218.255 1.47385 218.255C-0.408274 218.255 -1.93359 216.729 -1.93359 214.847C-1.93359 212.965 -0.408274 211.44 1.47385 211.44Z" fill="white"/>
<path fill-rule="evenodd" clip-rule="evenodd" d="M1.47184 212.849C2.57792 212.849 3.47884 213.75 3.47884 214.856C3.47884 215.962 2.57792 216.863 1.47184 216.863C0.365764 216.863 -0.535156 215.962 -0.535156 214.856C-0.535156 213.75 0.365764 212.849 1.47184 212.849Z" fill="#FAC58C"/>
<path fill-rule="evenodd" clip-rule="evenodd" d="M1.47073 213.723C2.09513 213.723 2.60357 214.232 2.60357 214.856C2.60357 215.48 2.09513 215.989 1.47073 215.989C0.846328 215.989 0.337891 215.48 0.337891 214.856C0.337891 214.232 0.846328 213.723 1.47073 213.723Z" fill="#4D4D4D"/>
<path fill-rule="evenodd" clip-rule="evenodd" d="M2.58658 214.642C2.5955 214.713 2.60442 214.785 2.60442 214.856C2.60442 214.927 2.60442 214.999 2.58658 215.07H0.3655C0.35658 214.999 0.347656 214.927 0.347656 214.856C0.347656 214.785 0.34766 214.713 0.3655 214.642H2.58658Z" fill="#4D4D4D"/>
<path d="M1.47266 211.44V211.957" stroke="#4D4D4D" stroke-width="0.50844" stroke-miterlimit="22.93"/>
<path d="M3.17738 211.904L2.91797 212.342" stroke="#4D4D4D" stroke-width="0.50844" stroke-miterlimit="22.93"/>
<path d="M4.42452 213.143L3.97852 213.402" stroke="#4D4D4D" stroke-width="0.50844" stroke-miterlimit="22.93"/>
<path d="M4.8826 214.856H4.36523" stroke="#4D4D4D" stroke-width="0.50844" stroke-miterlimit="22.93"/>
<path d="M4.42452 216.56L3.97852 216.301" stroke="#4D4D4D" stroke-width="0.50844" stroke-miterlimit="22.93"/>
<path d="M3.17738 217.801L2.91797 217.363" stroke="#4D4D4D" stroke-width="0.50844" stroke-miterlimit="22.93"/>
<path d="M1.47266 218.263V217.746" stroke="#4D4D4D" stroke-width="0.50844" stroke-miterlimit="22.93"/>
<path d="M-0.228516 217.8L0.0212433 217.354" stroke="#4D4D4D" stroke-width="0.50844" stroke-miterlimit="22.93"/>
<path d="M-0.228516 211.904L0.0219528 212.342" stroke="#4D4D4D" stroke-width="0.50844" stroke-miterlimit="22.93"/>
<path d="M1.47325 203.403H-1.0957V206.48H1.47325V203.403Z" fill="#DE564A"/>
<path d="M2.76598 205.624H-2.38086V206.998H2.76598V205.624Z" fill="#FAC58C"/>
<path d="M1.47325 204.107H-1.0957V204.482H1.47325V204.107Z" fill="#FAC58C"/>
<path d="M293.739 209.599C291.286 207.699 289.297 205.362 287.941 202.73C286.621 200.17 285.881 197.343 285.881 194.363C285.881 188.708 288.521 183.597 292.794 179.904C297.022 176.247 302.838 173.99 309.26 173.99C315.683 173.99 321.507 176.247 325.726 179.904C329.999 183.597 332.639 188.708 332.639 194.363C332.639 197.343 331.908 200.17 330.579 202.73C329.214 205.371 327.225 207.708 324.781 209.599L323.381 207.779C325.566 206.084 327.332 204.015 328.545 201.678C329.696 199.448 330.338 196.968 330.338 194.363C330.338 189.404 328.001 184.908 324.228 181.643C320.41 178.343 315.121 176.3 309.269 176.3C303.418 176.3 298.128 178.343 294.31 181.643C290.537 184.908 288.2 189.404 288.2 194.363C288.2 196.968 288.842 199.439 289.993 201.678C291.197 204.015 292.972 206.093 295.158 207.779L293.748 209.599H293.739Z" fill="#4D4D4D"/>
<path fill-rule="evenodd" clip-rule="evenodd" d="M319.189 196.834C319.135 196.834 319.082 196.834 319.037 196.834L319.064 214.879C319.117 214.879 319.171 214.879 319.216 214.879C324.202 214.879 328.234 210.83 328.225 205.843C328.225 200.857 324.175 196.825 319.189 196.834Z" fill="#FCE09F"/>
<path fill-rule="evenodd" clip-rule="evenodd" d="M319.189 196.834C319.135 196.834 319.082 196.834 319.037 196.834L319.064 214.879C319.117 214.879 319.171 214.879 319.216 214.879C320.161 214.879 321.071 214.728 321.927 214.46L321.909 197.245C321.053 196.977 320.143 196.834 319.198 196.834H319.189Z" fill="#4D4D4D"/>
<path d="M318.181 196.277L319.867 196.275C320.224 196.275 320.51 196.56 320.51 196.917L320.532 214.846C320.533 215.203 320.247 215.488 319.891 215.489L318.205 215.491C317.848 215.491 317.562 215.206 317.562 214.849L317.54 196.92C317.539 196.563 317.825 196.278 318.181 196.277Z" fill="#DE564A"/>
<path d="M295.901 181.599C294.964 182.312 293.626 182.125 292.912 181.189C292.199 180.252 292.386 178.914 293.323 178.2C295.508 176.541 298.032 175.221 300.771 174.329C303.42 173.464 306.275 173 309.254 173C312.233 173 315.087 173.473 317.737 174.329C320.484 175.221 323 176.541 325.185 178.2C326.122 178.914 326.309 180.252 325.595 181.189C324.882 182.125 323.544 182.312 322.607 181.599C320.814 180.234 318.718 179.146 316.408 178.397C314.195 177.674 311.778 177.282 309.245 177.282C306.712 177.282 304.303 177.674 302.082 178.397C299.772 179.146 297.685 180.243 295.883 181.599H295.901Z" fill="#4D4D4D"/>
<path d="M263.278 224.592L270.874 223.096C271.583 222.956 272.266 223.422 272.404 224.122L276.095 242.869C276.235 243.578 275.769 244.26 275.069 244.398L267.473 245.894C266.764 246.034 266.081 245.568 265.943 244.868L262.252 226.121C262.112 225.412 262.578 224.73 263.278 224.592Z" fill="#FCE09F"/>
<path d="M271.808 226.176L263.59 227.794L266.549 242.821L274.767 241.203L271.808 226.176Z" fill="#DE564A"/>
<path fill-rule="evenodd" clip-rule="evenodd" d="M267.222 224.638C267.356 224.611 267.49 224.7 267.517 224.834C267.544 224.968 267.454 225.102 267.321 225.129C267.187 225.155 267.053 225.066 267.026 224.932C266.999 224.798 267.089 224.665 267.222 224.638Z" fill="#4D4D4D"/>
<path fill-rule="evenodd" clip-rule="evenodd" d="M266.606 225.78L268.229 225.459C268.309 225.441 268.381 225.494 268.399 225.566C268.417 225.646 268.363 225.717 268.283 225.735L266.659 226.056C266.579 226.074 266.508 226.021 266.49 225.94C266.472 225.86 266.525 225.789 266.597 225.771L266.606 225.78Z" fill="#4D4D4D"/>
<path d="M271.143 242.925L270.495 243.053C270.278 243.095 270.136 243.306 270.179 243.524L270.306 244.172C270.349 244.389 270.56 244.531 270.778 244.488L271.425 244.361C271.643 244.318 271.785 244.107 271.742 243.889L271.614 243.242C271.572 243.024 271.361 242.882 271.143 242.925Z" fill="#4D4D4D"/>
<path fill-rule="evenodd" clip-rule="evenodd" d="M267.971 228.465C269.737 228.117 271.45 229.267 271.797 231.034C272.145 232.8 270.995 234.512 269.229 234.86C267.462 235.208 265.75 234.057 265.402 232.291C265.054 230.525 266.205 228.812 267.971 228.465Z" fill="white"/>
<path fill-rule="evenodd" clip-rule="evenodd" d="M268.32 230.195C269.131 230.034 269.916 230.561 270.077 231.373C270.237 232.184 269.711 232.969 268.899 233.13C268.088 233.29 267.303 232.764 267.142 231.952C266.982 231.141 267.508 230.356 268.32 230.195Z" fill="#DE564A"/>
<path fill-rule="evenodd" clip-rule="evenodd" d="M268.489 231.06C268.819 230.998 269.14 231.212 269.211 231.542C269.274 231.872 269.059 232.193 268.729 232.264C268.399 232.327 268.078 232.113 268.007 231.783C267.944 231.453 268.159 231.132 268.489 231.06Z" fill="#4D4D4D"/>
<path fill-rule="evenodd" clip-rule="evenodd" d="M269.737 237.411C270.237 237.313 270.719 237.634 270.826 238.143C270.924 238.642 270.603 239.124 270.094 239.231C269.595 239.329 269.113 239.008 269.006 238.5C268.908 238 269.229 237.518 269.737 237.411Z" fill="white"/>
<path fill-rule="evenodd" clip-rule="evenodd" d="M269.496 237.866L270.442 238.214L269.701 238.892L269.496 237.866Z" fill="#4D4D4D"/>
<path fill-rule="evenodd" clip-rule="evenodd" d="M272.272 237.269C272.584 237.206 272.878 237.411 272.941 237.715C273.003 238.027 272.798 238.321 272.495 238.384C272.182 238.446 271.888 238.241 271.826 237.938C271.763 237.625 271.968 237.331 272.272 237.269Z" fill="white"/>
<path fill-rule="evenodd" clip-rule="evenodd" d="M272.416 237.527L272.675 237.777L272.532 238.098L272.416 237.527Z" fill="#4D4D4D"/>
<path fill-rule="evenodd" clip-rule="evenodd" d="M272.129 237.59L272.388 237.831L272.245 238.152L272.129 237.59Z" fill="#4D4D4D"/>
<path fill-rule="evenodd" clip-rule="evenodd" d="M267.338 238.241C267.026 238.303 266.83 238.598 266.892 238.91C266.955 239.222 267.249 239.418 267.561 239.356C267.874 239.293 268.07 238.999 268.007 238.687C267.945 238.375 267.651 238.178 267.338 238.241Z" fill="white"/>
<path fill-rule="evenodd" clip-rule="evenodd" d="M267.302 238.535L267.15 238.865L267.409 239.106L267.302 238.535Z" fill="#4D4D4D"/>
<path fill-rule="evenodd" clip-rule="evenodd" d="M267.588 238.482L267.445 238.803L267.704 239.053L267.588 238.482Z" fill="#4D4D4D"/>
<path fill-rule="evenodd" clip-rule="evenodd" d="M299.733 196.834C299.787 196.834 299.84 196.834 299.885 196.834L299.858 214.879C299.805 214.879 299.751 214.879 299.707 214.879C294.72 214.879 290.688 210.83 290.697 205.843C290.697 200.857 294.747 196.825 299.733 196.834Z" fill="#FCE09F"/>
<path fill-rule="evenodd" clip-rule="evenodd" d="M299.735 196.834C299.788 196.834 299.842 196.834 299.886 196.834L299.859 214.879C299.806 214.879 299.752 214.879 299.708 214.879C298.762 214.879 297.852 214.728 296.996 214.46L297.014 197.245C297.87 196.977 298.78 196.834 299.726 196.834H299.735Z" fill="#4D4D4D"/>
<path d="M298.38 196.89L298.358 214.81C298.358 215.165 298.645 215.453 299 215.453L300.686 215.455C301.04 215.456 301.328 215.168 301.329 214.814L301.35 196.893C301.351 196.539 301.064 196.251 300.709 196.25L299.023 196.248C298.668 196.248 298.381 196.535 298.38 196.89Z" fill="#DE564A"/>
<path d="M274.568 244.564L273.859 244.703L274.383 247.364L275.092 247.224L274.568 244.564Z" fill="#4D4D4D"/>
<path d="M320.536 212.703C321.303 226.948 329.777 251.3 316.335 264.724C302.893 278.14 276.097 272.984 274.75 247.259" stroke="#FCE09F" stroke-width="0.50844" stroke-miterlimit="22.93"/>
<path fill-rule="evenodd" clip-rule="evenodd" d="M398.287 238.11H408.358C408.17 238.342 407.903 238.512 407.591 238.574L400 240.073C399.295 240.216 398.608 239.752 398.465 239.047L398.287 238.119V238.11Z" fill="#CAB37F"/>
<path fill-rule="evenodd" clip-rule="evenodd" d="M402.818 238.11H404.281C404.263 238.28 404.139 238.414 403.96 238.449L403.309 238.574C403.095 238.619 402.881 238.476 402.845 238.262L402.818 238.11Z" fill="#A28F65"/>
<path d="M238.005 210.343H233.967V211.451H238.005V210.343Z" fill="#DE564A"/>
<path d="M218.982 210.343H214.943V211.451H218.982V210.343Z" fill="#DE564A"/>
<path d="M226.383 211.876H226.262V212.963H226.383V211.876Z" fill="#5A5657"/>
<path fill-rule="evenodd" clip-rule="evenodd" d="M232.108 206.052H220.969C219.85 206.052 218.941 206.955 218.941 208.058V212.722C218.941 213.079 219.23 213.368 219.593 213.368C219.866 213.368 220.097 213.2 220.197 212.963H222.155L222.25 212.974L222.345 212.963H226.257V211.876H221.704C221.704 211.876 221.72 208.94 221.73 208.326H226.378L231.588 208.337C231.598 208.993 231.635 211.876 231.635 211.876H226.383V212.963H230.837L230.931 212.974L231.026 212.963H232.88C232.974 213.2 233.21 213.368 233.484 213.368C233.757 213.368 233.988 213.2 234.087 212.963H234.108V212.89C234.124 212.837 234.135 212.779 234.135 212.722V208.058C234.135 206.95 233.226 206.052 232.108 206.052Z" fill="#4D4D4D"/>
<path fill-rule="evenodd" clip-rule="evenodd" d="M213.935 211.277H208.468C207.896 211.277 207.434 211.74 207.434 212.312V237.904C207.434 238.476 207.896 238.944 208.468 238.944H213.52H226.256H243.734C244.306 238.944 244.774 238.476 244.774 237.904V232.852V217.364V212.312C244.774 211.74 244.311 211.277 243.734 211.277H226.256H213.93H213.935Z" fill="#FCE09F"/>
<path fill-rule="evenodd" clip-rule="evenodd" d="M212.617 211.545C212.617 211.456 212.617 211.361 212.607 211.272H208.258C207.801 211.272 207.434 211.64 207.434 212.097V216.377C207.544 216.387 207.654 216.387 207.77 216.387C210.448 216.387 212.617 214.218 212.617 211.54V211.545Z" fill="#4D4D4D"/>
<path fill-rule="evenodd" clip-rule="evenodd" d="M244.779 216.456V212.155C244.779 211.666 244.385 211.272 243.897 211.272H239.596C239.596 214.134 241.917 216.456 244.779 216.456Z" fill="#4D4D4D"/>
<path fill-rule="evenodd" clip-rule="evenodd" d="M244.779 238.061V233.76C241.917 233.76 239.596 236.082 239.596 238.944H243.897C244.385 238.944 244.779 238.55 244.779 238.061Z" fill="#4D4D4D"/>
<path fill-rule="evenodd" clip-rule="evenodd" d="M207.434 233.765V238.067C207.434 238.555 207.827 238.949 208.316 238.949H212.617C212.617 236.087 210.296 233.765 207.434 233.765Z" fill="#4D4D4D"/>
<path d="M218.09 211.277H215.863V238.944H218.09V211.277Z" fill="#4D4D4D"/>
<path d="M237.242 211.277H235.016V238.944H237.242V211.277Z" fill="#4D4D4D"/>
<path d="M220.207 223.504H213.879V227.337H220.207V223.504Z" fill="#DE564A"/>
<path d="M239.291 223.504H232.963V227.337H239.291V223.504Z" fill="#DE564A"/>
</g>
</g>
<defs>
<clipPath id="clip0_4038_34615">
<rect width="430" height="287" fill="white"/>
</clipPath>
<clipPath id="clip1_4038_34615">
<rect width="672.506" height="446" fill="white" transform="translate(-70.8691)"/>
</clipPath>
</defs>
</svg>
