<svg width="240" height="240" viewBox="0 0 240 240" fill="none" xmlns="http://www.w3.org/2000/svg">
<path d="M46.2625 194.64V198.25H73.2864V194.64H46.2625Z" fill="#E0E0E0"/>
<path d="M49.9487 194.784C50.0399 194.784 50.1167 195.543 50.1167 196.479C50.1167 197.415 50.0399 198.168 49.9487 198.168C49.8575 198.168 49.7759 197.41 49.7759 196.479C49.7759 195.547 49.8527 194.784 49.9487 194.784Z" fill="#FAFAFA"/>
<path d="M49.3584 194.712C49.4544 194.712 49.5264 195.47 49.5264 196.402C49.5264 197.333 49.4544 198.096 49.3584 198.096C49.2624 198.096 49.1904 197.338 49.1904 196.402C49.1904 195.466 49.2624 194.712 49.3584 194.712Z" fill="#FAFAFA"/>
<path d="M71.1983 194.784C71.2943 194.784 71.3711 195.543 71.3711 196.479C71.3711 197.415 71.2943 198.168 71.1983 198.168C71.1023 198.168 71.0303 197.41 71.0303 196.479C71.0303 195.547 71.1071 194.784 71.1983 194.784Z" fill="#FAFAFA"/>
<path d="M70.6127 194.712C70.7039 194.712 70.7807 195.47 70.7807 196.402C70.7807 197.333 70.7039 198.096 70.6127 198.096C70.5215 198.096 70.4399 197.338 70.4399 196.402C70.4399 195.466 70.5167 194.712 70.6127 194.712Z" fill="#FAFAFA"/>
<path d="M67.0799 196.55C67.0799 196.646 63.9839 196.718 60.1679 196.718C56.3519 196.718 53.2559 196.646 53.2559 196.55C53.2559 196.454 56.3519 196.382 60.1679 196.382C63.9839 196.382 67.0799 196.454 67.0799 196.55Z" fill="#FAFAFA"/>
<path d="M46.1472 210.893V218.112H73.1712V210.893H46.1472Z" fill="#E0E0E0"/>
<path d="M73.5167 216.082C73.5167 216.082 73.4735 216.115 73.3727 216.163C73.2719 216.211 73.1231 216.283 72.9215 216.37C72.3341 216.619 71.7182 216.794 71.0879 216.893C70.0778 217.076 69.0357 216.928 68.1167 216.471C67.5482 216.168 67.0635 215.729 66.7055 215.194C66.2946 214.584 66.1236 213.844 66.2255 213.115C66.2845 212.72 66.4505 212.348 66.7055 212.04C66.842 211.872 67.0159 211.737 67.2133 211.647C67.4107 211.557 67.6263 211.514 67.8431 211.522C68.0662 211.54 68.2832 211.604 68.4806 211.71C68.6779 211.815 68.8514 211.96 68.9903 212.136C69.2858 212.485 69.4683 212.915 69.5135 213.37C69.5503 213.838 69.4862 214.309 69.3256 214.75C69.1649 215.191 68.9115 215.593 68.5823 215.928C67.8983 216.651 66.9761 217.103 65.9855 217.2C64.9654 217.298 63.9362 217.17 62.9711 216.826C61.9396 216.503 61.0241 215.888 60.3359 215.055C59.9809 214.607 59.767 214.064 59.7215 213.495C59.6928 213.198 59.7295 212.9 59.829 212.619C59.9285 212.339 60.0885 212.084 60.2975 211.872C60.5262 211.652 60.8257 211.521 61.1423 211.503C61.4552 211.494 61.7633 211.581 62.0255 211.752C62.532 212.084 62.8886 212.601 63.0191 213.192C63.1321 213.769 63.0933 214.366 62.9065 214.924C62.7197 215.482 62.3913 215.982 61.9535 216.375C61.0955 217.099 60.0301 217.532 58.9103 217.613C57.8489 217.735 56.7736 217.629 55.7567 217.301C54.7585 216.987 53.9066 216.324 53.3567 215.434C53.0832 215.011 52.9137 214.53 52.862 214.029C52.8102 213.529 52.8778 213.023 53.0591 212.554C53.1488 212.318 53.2967 212.11 53.4889 211.947C53.6811 211.784 53.9114 211.672 54.1583 211.623C54.3957 211.58 54.6394 211.587 54.874 211.643C55.1087 211.699 55.3291 211.803 55.5215 211.949C55.8584 212.245 56.0995 212.634 56.214 213.068C56.3286 213.501 56.3114 213.959 56.1647 214.383C55.9019 215.139 55.4291 215.805 54.8015 216.303C53.7619 217.183 52.4573 217.69 51.0959 217.743C50.2672 217.772 49.4416 217.627 48.6726 217.317C47.9036 217.007 47.2083 216.539 46.6319 215.943C46.5165 215.824 46.4075 215.699 46.3055 215.568C46.2694 215.525 46.2373 215.478 46.2095 215.429C46.7801 216.059 47.4619 216.578 48.2207 216.96C49.1148 217.399 50.1058 217.604 51.1007 217.555C52.4141 217.481 53.6661 216.975 54.6623 216.115C55.247 215.642 55.6862 215.013 55.9295 214.301C56.0566 213.93 56.0711 213.53 55.9712 213.15C55.8713 212.771 55.6613 212.43 55.3679 212.17C55.2066 212.05 55.0225 211.964 54.8269 211.918C54.6312 211.871 54.4282 211.866 54.2303 211.901C54.0296 211.942 53.8429 212.035 53.6882 212.169C53.5336 212.304 53.4161 212.476 53.3471 212.669C53.1893 213.093 53.1335 213.548 53.1844 213.997C53.2353 214.447 53.3913 214.878 53.6399 215.256C54.1552 216.079 54.9491 216.689 55.8767 216.975C56.8497 217.283 57.8772 217.381 58.8911 217.263C59.939 217.184 60.9362 216.78 61.7423 216.106C62.1377 215.75 62.4339 215.297 62.6022 214.792C62.7705 214.288 62.8049 213.748 62.7023 213.226C62.5941 212.718 62.2929 212.272 61.8623 211.983C61.6681 211.839 61.4296 211.768 61.1884 211.782C60.9471 211.796 60.7185 211.894 60.5423 212.059C60.3677 212.236 60.2343 212.449 60.1513 212.683C60.0683 212.917 60.0379 213.166 60.0623 213.413C60.1027 213.917 60.2914 214.398 60.6047 214.795C61.2516 215.576 62.1098 216.155 63.0767 216.461C63.9983 216.793 64.9812 216.919 65.9567 216.831C66.8697 216.742 67.7211 216.33 68.3567 215.669C68.6596 215.366 68.894 215.001 69.0439 214.599C69.1938 214.198 69.2557 213.769 69.2255 213.341C69.2093 212.952 69.0618 212.581 68.8073 212.287C68.5527 211.993 68.206 211.795 67.8239 211.723C67.646 211.718 67.4691 211.753 67.3069 211.826C67.1446 211.899 67.0013 212.009 66.8879 212.146C66.6538 212.419 66.4993 212.751 66.4415 213.106C66.3433 213.778 66.499 214.462 66.8783 215.026C67.2111 215.538 67.6643 215.962 68.1983 216.259C69.0851 216.714 70.0942 216.874 71.0783 216.715C71.7011 216.63 72.3127 216.477 72.9023 216.259C73.3055 216.159 73.5119 216.067 73.5167 216.082Z" fill="#FAFAFA"/>
<path d="M48.5615 198.35V210.878H73.1711V198.35H48.5615Z" fill="#EBEBEB"/>
<path d="M52.6511 198.782C52.7423 198.782 52.8191 201.494 52.8191 204.845C52.8191 208.195 52.7423 210.907 52.6511 210.907C52.5599 210.907 52.4783 208.195 52.4783 204.845C52.4783 201.494 52.5551 198.782 52.6511 198.782Z" fill="#E0E0E0"/>
<path d="M54.5183 198.624C54.6095 198.624 54.6863 201.307 54.6863 204.61C54.6863 207.912 54.6095 210.595 54.5183 210.595C54.4271 210.595 54.3455 207.917 54.3455 204.61C54.3455 201.302 54.4223 198.624 54.5183 198.624Z" fill="#E0E0E0"/>
<path d="M70.392 198.24C70.4832 198.24 70.56 201.063 70.56 204.547C70.56 208.032 70.4832 210.85 70.392 210.85C70.3008 210.85 70.2192 208.027 70.2192 204.547C70.2192 201.067 70.296 198.24 70.392 198.24Z" fill="#E0E0E0"/>
<path d="M68.1984 198.394C68.2896 198.394 68.3664 201.139 68.3664 204.533C68.3664 207.926 68.2896 210.672 68.1984 210.672C68.1072 210.672 68.0256 207.926 68.0256 204.533C68.0256 201.139 68.1024 198.394 68.1984 198.394Z" fill="#E0E0E0"/>
<path d="M200.673 171.005C203.227 169.685 206.227 169.517 209.064 169.982C210.585 170.237 212.169 170.688 213.206 171.835C214.243 172.982 214.435 174.989 213.249 175.968C212.539 176.554 211.555 176.645 210.633 176.63C208.416 176.606 205.958 176.218 204.187 177.552C203.174 178.31 202.502 179.578 201.307 179.952C200.112 180.326 198.792 179.621 198.168 178.555C197.591 177.444 197.464 176.153 197.813 174.95C197.954 174.117 198.286 173.328 198.782 172.643C199.278 171.959 199.925 171.398 200.673 171.005Z" fill="#EBEBEB"/>
<path d="M194.827 159.72C196.387 161.947 199.421 161.208 200.827 159.849C202.234 158.491 202.829 156.518 203.366 154.637C204.605 150.345 205.848 145.838 204.931 141.465C204.711 140.139 204.128 138.9 203.246 137.885C202.8 137.384 202.231 137.009 201.595 136.797C200.96 136.585 200.279 136.543 199.622 136.675C198.096 137.083 197.146 138.595 196.459 140.001C194.437 144.208 193.376 148.812 193.354 153.48C193.354 155.649 193.603 157.925 194.827 159.72Z" fill="#EBEBEB"/>
<path d="M190.56 162.917C192.254 160.906 192.576 157.973 191.822 155.458C191.069 152.942 189.365 150.792 187.402 149.045C185.092 146.988 182.403 145.402 179.486 144.374C178.358 143.92 177.145 143.714 175.93 143.77C175.322 143.805 174.732 143.988 174.212 144.304C173.692 144.619 173.256 145.057 172.944 145.579C172.109 147.168 172.91 149.093 173.774 150.667C175.297 153.435 177.034 156.08 178.968 158.578C180.528 160.589 182.328 162.571 184.685 163.478C187.042 164.386 189.528 164.275 190.786 162.629" fill="#EBEBEB"/>
<path d="M194.722 193.33C194.804 192.998 194.852 192.659 194.866 192.317C194.938 191.583 195.024 190.656 195.134 189.557C195.272 188.195 195.479 186.842 195.754 185.501C196.115 183.864 196.608 182.259 197.227 180.701C197.835 179.154 198.658 177.699 199.67 176.381C200.496 175.306 201.55 174.429 202.757 173.813C203.577 173.41 204.455 173.136 205.358 173.002C205.699 172.991 206.037 172.943 206.366 172.858C206.025 172.82 205.681 172.82 205.339 172.858C204.4 172.929 203.482 173.168 202.627 173.563C201.358 174.164 200.244 175.049 199.373 176.151C198.314 177.489 197.46 178.977 196.838 180.567C196.218 182.143 195.737 183.769 195.398 185.429C195.137 186.785 194.956 188.155 194.856 189.533C194.77 190.704 194.736 191.655 194.722 192.312C194.686 192.65 194.686 192.991 194.722 193.33Z" fill="#E0E0E0"/>
<path d="M194.914 191.203C194.942 191.045 194.952 190.884 194.942 190.723C194.942 190.373 194.942 189.927 194.942 189.379C194.942 188.218 194.942 186.528 195 184.445C195.106 180.279 195.48 175.805 196.157 169.469C196.814 163.527 197.693 156.605 198.624 152.107C198.821 151.085 199.022 150.163 199.214 149.357C199.406 148.551 199.546 147.855 199.694 147.293C199.843 146.731 199.925 146.333 200.006 145.987C200.05 145.83 200.079 145.67 200.093 145.507C200.02 145.647 199.965 145.795 199.93 145.949C199.824 146.285 199.694 146.712 199.536 147.235C199.378 147.759 199.186 148.483 198.984 149.29C198.782 150.096 198.552 151.013 198.336 152.035C197.183 157.355 196.316 162.732 195.739 168.144C195.048 174.48 194.736 180.25 194.707 184.426C194.683 186.514 194.707 188.203 194.779 189.37C194.813 189.917 194.842 190.363 194.861 190.714C194.858 190.878 194.876 191.043 194.914 191.203Z" fill="#E0E0E0"/>
<path d="M194.942 180.077C194.979 179.61 194.979 179.142 194.942 178.675C194.889 177.773 194.765 176.467 194.51 174.874C194.204 173.006 193.792 171.156 193.277 169.335C192.671 167.093 191.896 164.901 190.958 162.778C189.352 158.863 187.048 155.274 184.157 152.184C183.653 151.656 183.117 151.16 182.553 150.696C182.309 150.49 182.073 150.283 181.872 150.12L181.253 149.693C180.879 149.408 180.483 149.154 180.067 148.935C180 149.026 181.742 150.048 183.941 152.391C186.737 155.507 188.98 159.079 190.574 162.951C191.491 165.06 192.266 167.228 192.893 169.44C193.502 171.475 193.905 173.347 194.213 174.922C194.52 176.496 194.669 177.802 194.769 178.69C194.79 179.156 194.847 179.62 194.942 180.077Z" fill="#E0E0E0"/>
<path d="M183.442 198.015L184.56 213.288H204.178L205.296 198.015H183.442Z" fill="#EBEBEB"/>
<path d="M207.634 191.995H181.546V198.014H207.634V191.995Z" fill="#EBEBEB"/>
<path d="M181.546 212.703V214.373H182.774H207.206V212.703H181.546Z" fill="#E0E0E0"/>
<path d="M183.974 217.123L182.774 214.19H206.27L204.869 217.123H183.974Z" fill="#E0E0E0"/>
<path d="M204.931 203.006C204.907 203.057 204.876 203.103 204.84 203.146C204.758 203.251 204.662 203.376 204.547 203.534L203.4 204.998L203.352 205.066L203.304 204.994C202.584 204 201.624 202.675 200.496 201.11H200.64L197.875 205.027L197.789 205.147L197.693 205.032L194.429 201.12H194.616L194.438 201.346L191.52 205.032L191.419 205.157L191.333 205.027C190.334 203.621 189.413 202.301 188.563 201.115H188.726L185.318 204.998L185.261 205.066L185.213 204.989L184.147 203.198C184.032 203.002 183.946 202.843 183.874 202.718C183.838 202.666 183.809 202.61 183.787 202.55C183.831 202.595 183.87 202.645 183.902 202.699L184.205 203.179L185.323 204.941H185.218L188.578 201.01L188.659 200.914L188.736 201.019L191.529 204.917H191.338L194.266 201.235L194.443 201.005L194.539 200.89L194.635 201.005L197.904 204.912H197.722L200.515 201.014L200.597 200.899L200.674 201.014L203.424 204.941H203.323C203.827 204.336 204.221 203.861 204.514 203.501L204.83 203.131C204.888 203.04 204.926 203.002 204.931 203.006Z" fill="#F5F5F5"/>
<path d="M205.57 197.913C205.57 197.981 200.65 198.033 194.587 198.033C188.525 198.033 183.605 197.981 183.605 197.913C183.605 197.846 188.52 197.793 194.587 197.793C200.654 197.793 205.57 197.846 205.57 197.913Z" fill="#F5F5F5"/>
<path d="M93.7007 38.8033C93.7007 38.8033 93.6574 38.8033 93.5854 38.7697L93.2686 38.645L92.059 38.141L87.619 36.221L73.027 29.8658L72.5183 29.6402H72.6239L58.3247 35.7794L54.0047 37.5938L52.8239 38.0738C52.6893 38.1355 52.5496 38.1853 52.4062 38.2225C52.5337 38.1466 52.6669 38.0808 52.8047 38.0258L53.9662 37.4978L58.2862 35.6018L72.5518 29.4146H72.6046H72.6574L73.1662 29.6354L87.7295 36.0674L92.1311 38.0402L93.3214 38.5922L93.6286 38.741C93.655 38.7589 93.6792 38.7798 93.7007 38.8033Z" fill="#E0E0E0"/>
<path d="M116.462 36.7104H22.7231V106.901H116.462V36.7104Z" fill="#E0E0E0"/>
<path d="M113.539 39.9744H26.0015V104.016H113.539V39.9744Z" fill="#FAFAFA"/>
<path d="M45.3359 67.9536C45.3359 67.9536 45.4271 78.7008 45.9743 81.984L59.4575 81.3456C59.4575 81.3456 58.2767 70.7856 58.7327 67.9536H45.3359Z" fill="#E0E0E0"/>
<path d="M51.9791 69.4705H52.1759C52.3636 69.4636 52.5516 69.4732 52.7375 69.4993C53.033 69.5432 53.3207 69.6288 53.5919 69.7537C53.9511 69.9316 54.2684 70.1835 54.5231 70.4929C54.8362 70.8692 55.058 71.3127 55.1711 71.7889C55.2766 72.3465 55.2285 72.9222 55.0319 73.4545C54.9315 73.744 54.8046 74.0236 54.6527 74.2897C54.4917 74.5606 54.3474 74.8411 54.2207 75.1297C53.9519 75.7419 53.7678 76.3878 53.6735 77.0497V77.0929H53.6304H52.3007H50.9039H50.8511V77.0449C50.7913 76.3863 50.5686 75.7529 50.2031 75.2017C50.0399 74.9233 49.8623 74.6689 49.7231 74.4049C49.5489 74.1565 49.3887 73.8985 49.2431 73.6321C48.9969 73.1222 48.9228 72.5462 49.0319 71.9905C49.1103 71.5108 49.2886 71.053 49.5551 70.6465C49.7828 70.3199 50.0815 70.0492 50.4287 69.8545C50.8575 69.6271 51.3276 69.4883 51.8111 69.4465H52.0031C52.0031 69.4465 52.0031 69.4465 51.9551 69.4465H51.8111C51.628 69.4681 51.4467 69.5034 51.2687 69.5521C50.9849 69.6262 50.7121 69.7376 50.4575 69.8833C50.1179 70.0753 49.8272 70.343 49.6079 70.6657C49.36 71.0686 49.1967 71.5177 49.1279 71.9857C49.0232 72.5242 49.0974 73.0821 49.3391 73.5745C49.4861 73.8369 49.6463 74.0916 49.8191 74.3377C49.9871 74.5921 50.1647 74.8561 50.3279 75.1345C50.7068 75.6983 50.9364 76.349 50.9951 77.0257L50.9423 76.9729H52.3391H53.6735L53.6207 77.0209C53.7167 76.3506 53.9041 75.6965 54.1775 75.0769C54.3093 74.786 54.4567 74.5024 54.6191 74.2273C54.7682 73.9671 54.8935 73.694 54.9935 73.4113C55.1879 72.8954 55.2393 72.3365 55.1423 71.7937C55.0329 71.329 54.8214 70.8945 54.5231 70.5217C54.2755 70.2161 53.9664 69.9659 53.6159 69.7873C53.3503 69.6589 53.0673 69.5699 52.7759 69.5233C52.5932 69.4953 52.4088 69.4793 52.2239 69.4753H52.0751C51.9983 69.4753 51.9791 69.4753 51.9791 69.4705Z" fill="white"/>
<path d="M52.6703 76.9633C52.6693 76.9489 52.6693 76.9345 52.6703 76.9201V76.7953C52.6703 76.6849 52.6271 76.5217 52.5983 76.3153C52.5359 75.8929 52.4447 75.2881 52.3871 74.5345C52.3871 74.3473 52.3583 74.1505 52.3535 73.9441C52.3414 73.7282 52.3414 73.5119 52.3535 73.2961C52.3586 73.0645 52.4092 72.8362 52.5023 72.6241C52.606 72.3949 52.7906 72.2121 53.0207 72.1105C53.1432 72.059 53.2782 72.0447 53.4088 72.0695C53.5394 72.0942 53.6598 72.1569 53.7551 72.2497C53.8057 72.2966 53.8457 72.3539 53.8722 72.4177C53.8987 72.4815 53.9112 72.5502 53.9087 72.6193C53.9059 72.7583 53.8588 72.8929 53.7743 73.0033C53.6875 73.1155 53.5757 73.2059 53.4479 73.2673C53.321 73.3269 53.1871 73.3705 53.0495 73.3969C52.4871 73.5119 51.9095 73.5313 51.3407 73.4545C51.1999 73.4353 51.0626 73.3965 50.9327 73.3393C50.8059 73.2823 50.6917 73.2007 50.5967 73.0993C50.4993 72.9977 50.4312 72.8716 50.3999 72.7345C50.3697 72.6001 50.3866 72.4594 50.4479 72.3361C50.5034 72.2118 50.6049 72.1137 50.7311 72.0625C50.791 72.0367 50.8555 72.0234 50.9207 72.0234C50.9859 72.0234 51.0504 72.0367 51.1103 72.0625C51.2261 72.115 51.3257 72.198 51.3983 72.3025C51.4659 72.405 51.5146 72.5188 51.5423 72.6385C51.5829 72.8667 51.6054 73.0979 51.6095 73.3297L51.6767 74.5633C51.7103 75.3169 51.7439 75.9265 51.7631 76.3537C51.7631 76.5601 51.7631 76.7233 51.7631 76.8337V77.0017C51.7641 76.9873 51.7641 76.9729 51.7631 76.9585C51.7631 76.9297 51.7631 76.8865 51.7631 76.8337C51.7631 76.7809 51.7631 76.5553 51.7343 76.3537C51.7343 75.9265 51.6719 75.3169 51.6287 74.5633C51.6287 74.1889 51.5855 73.7761 51.5615 73.3297C51.5584 73.1008 51.5343 72.8726 51.4895 72.6481C51.466 72.5332 51.4203 72.4239 51.3551 72.3265C51.2838 72.2287 51.1899 72.1496 51.0815 72.0961C51.0261 72.0724 50.9665 72.0603 50.9063 72.0603C50.846 72.0603 50.7864 72.0724 50.7311 72.0961C50.6142 72.1447 50.52 72.2355 50.4671 72.3505C50.4118 72.4671 50.3966 72.5987 50.4239 72.7249C50.4562 72.8526 50.5206 72.9699 50.6111 73.0657C50.8059 73.2578 51.0593 73.3795 51.3311 73.4113C51.6126 73.4482 51.8969 73.4611 52.1807 73.4497C52.4645 73.4422 52.7472 73.4101 53.0255 73.3537C53.1602 73.3279 53.291 73.2843 53.4143 73.2241C53.5359 73.1657 53.6426 73.0803 53.7263 72.9745C53.8055 72.8707 53.8508 72.745 53.8559 72.6145C53.8556 72.551 53.8427 72.4881 53.818 72.4296C53.7933 72.3711 53.7572 72.3181 53.7119 72.2737C53.6215 72.1875 53.5084 72.1291 53.3859 72.1053C53.2634 72.0815 53.1367 72.0933 53.0207 72.1393C52.8075 72.2355 52.6369 72.4062 52.5407 72.6193C52.4494 72.8286 52.3989 73.0534 52.3919 73.2817C52.3919 73.5025 52.3919 73.7137 52.3919 73.9201C52.3919 74.1265 52.3919 74.3233 52.4255 74.5153C52.4831 75.2689 52.5695 75.8737 52.6223 76.2913C52.6511 76.5025 52.6751 76.6609 52.6895 76.7713V76.8961C52.6857 76.9191 52.6793 76.9417 52.6703 76.9633Z" fill="white"/>
<path d="M50.8799 77.0353C50.9018 77.1832 50.9146 77.3322 50.9183 77.4817C50.9183 77.8017 50.9375 78.1905 50.9759 78.6481V78.6193L51.8879 79.6801H51.8399L52.8911 79.6225H52.8479L53.3663 78.9889L53.6303 78.6673V78.7105C53.6303 78.0913 53.6015 77.5105 53.5919 76.9825L53.6495 77.0353H51.6863H50.8799C50.942 77.0264 51.005 77.0264 51.0671 77.0353L51.6191 77.0065L53.6159 76.9297H53.6735V76.9873C53.6735 77.5201 53.7071 78.1009 53.7263 78.7153V78.7201C53.6399 78.8257 53.5535 78.9361 53.4623 79.0417L52.9391 79.6801H52.9103L51.8591 79.7329H51.8399L50.9471 78.6721C50.9471 78.1921 50.9471 77.8081 50.9471 77.4721C50.9161 77.3279 50.8937 77.1821 50.8799 77.0353Z" fill="white"/>
<path d="M53.6063 78.552C53.6063 78.552 53.5679 78.552 53.5055 78.5088C53.4162 78.4689 53.3249 78.4336 53.2319 78.4032C52.9237 78.2956 52.5981 78.2468 52.2719 78.2592C51.9422 78.2664 51.6167 78.3348 51.3119 78.4608L51.0479 78.5856L50.9519 78.6336C50.9766 78.6077 51.0059 78.5866 51.0383 78.5712C51.1234 78.5195 51.2116 78.473 51.3023 78.432C51.605 78.2976 51.9312 78.2242 52.2623 78.216C52.5897 78.2039 52.9162 78.2578 53.2223 78.3744C53.3148 78.4075 53.4047 78.4476 53.4911 78.4944L53.6063 78.552Z" fill="white"/>
<path d="M53.6015 78.1344L53.5055 78.0912L53.2319 77.9808C52.923 77.8761 52.5979 77.8273 52.2719 77.8368C51.9427 77.8486 51.618 77.9168 51.3119 78.0384C51.1967 78.0864 51.1103 78.1296 51.0479 78.1632L50.9519 78.2112L51.0383 78.1488C51.1226 78.0971 51.2109 78.0522 51.3023 78.0144C51.6046 77.8783 51.9309 77.8032 52.2623 77.7936C52.5894 77.7863 52.9149 77.84 53.2223 77.952C53.3375 78 53.4287 78.0432 53.4911 78.0768C53.5535 78.1104 53.6063 78.1296 53.6015 78.1344Z" fill="white"/>
<path d="M53.5776 77.7314L53.4816 77.693C53.4144 77.6642 53.3232 77.621 53.208 77.5826C52.899 77.478 52.574 77.4293 52.248 77.4386C51.9182 77.4451 51.5925 77.5135 51.288 77.6402C51.1728 77.6882 51.0864 77.7314 51.024 77.765L50.928 77.813L51.0144 77.7506C51.0989 77.6978 51.1871 77.6513 51.2784 77.6114C51.5819 77.4794 51.9076 77.4061 52.2384 77.3954C52.5654 77.3885 52.8909 77.4422 53.1984 77.5538C53.2908 77.5891 53.3806 77.6308 53.4672 77.6786C53.5071 77.6887 53.5446 77.7067 53.5776 77.7314Z" fill="white"/>
<path d="M30.3215 50.4001C30.3215 50.4001 30.4127 61.1521 30.9599 64.4305L44.4431 63.7921C44.4431 63.7921 43.2575 53.2321 43.7135 50.4001H30.3215Z" fill="#EBEBEB"/>
<path d="M41.6832 54.8928C40.1866 55.1144 38.6785 55.249 37.1664 55.296C35.6586 55.435 34.1438 55.4815 32.6304 55.4352C34.1273 55.2165 35.6352 55.0819 37.1472 55.032C38.6553 54.8988 40.1697 54.8523 41.6832 54.8928Z" fill="white"/>
<path d="M41.6833 57.168C40.1871 57.3934 38.6788 57.5296 37.1665 57.576C35.66 57.7093 34.1471 57.7557 32.6353 57.7152C34.1318 57.4934 35.6399 57.3587 37.1521 57.312C38.6584 57.1759 40.1713 57.1278 41.6833 57.168Z" fill="white"/>
<path d="M39.3935 59.4049C38.5478 59.5873 37.6858 59.6838 36.8207 59.6929C35.9621 59.7803 35.0969 59.7803 34.2383 59.6929C35.0824 59.5107 35.9428 59.4142 36.8063 59.4049C37.6665 59.3175 38.5333 59.3175 39.3935 59.4049Z" fill="white"/>
<path d="M29.6831 82.0081C29.6831 82.0081 29.7743 92.7553 30.3215 96.0385L43.8047 95.4001C43.8047 95.4001 42.6191 84.8401 43.0751 82.0081H29.6831Z" fill="#EBEBEB"/>
<path d="M41.0448 86.5201C39.5486 86.7448 38.0403 86.881 36.528 86.9281C35.0215 87.0613 33.5086 87.1078 31.9968 87.0673C33.4917 86.8452 34.9983 86.7106 36.5088 86.6641C38.0167 86.528 39.5313 86.4799 41.0448 86.5201Z" fill="white"/>
<path d="M41.0448 88.8C39.5484 89.0222 38.0402 89.1568 36.528 89.2032C35.0215 89.3365 33.5086 89.383 31.9968 89.3424C33.4933 89.1206 35.0015 88.9859 36.5136 88.9392C38.0201 88.806 39.533 88.7595 41.0448 88.8Z" fill="white"/>
<path d="M38.7551 91.0368C37.911 91.2187 37.0505 91.3136 36.1871 91.32C35.3277 91.4154 34.4608 91.4234 33.5999 91.344C34.444 91.1617 35.3043 91.0653 36.1679 91.056C37.0273 90.9606 37.8943 90.9541 38.7551 91.0368Z" fill="white"/>
<path d="M66.5327 53.2273L67.8671 84.2353L106.574 84.7009L104.837 53.6353L66.5327 53.2273Z" fill="#EBEBEB"/>
<path d="M104.534 53.0063H66.0815V82.0415H104.534V53.0063Z" fill="#F5F5F5"/>
<path d="M104.534 82.0417C104.534 82.0417 104.534 81.8545 104.534 81.4993C104.534 81.1441 104.534 80.6257 104.534 79.9537C104.534 78.5905 104.534 76.5937 104.506 74.0785C104.506 69.0145 104.472 61.7713 104.448 53.0065L104.558 53.1121H66.1104L66.2448 52.9825C66.2448 63.4225 66.2448 73.3105 66.2448 82.0177L66.1248 81.8977L93.8592 81.9553L101.75 81.9889H103.848H104.39H104.578H103.872L101.76 82.0801L93.9024 82.1137L66.0624 82.1713H65.9424V82.0561C65.9424 73.3489 65.9424 63.4609 65.9424 53.0209V52.8865H66.0768H104.525H104.64V52.9969C104.64 61.7857 104.597 69.0577 104.582 74.1169C104.582 76.6369 104.582 78.6097 104.554 79.9681C104.554 80.6305 104.554 81.1393 104.554 81.4945C104.544 81.8689 104.534 82.0417 104.534 82.0417Z" fill="#E0E0E0"/>
<path d="M86.3087 59.1553H70.7231V78.7729H86.3087V59.1553Z" fill="#F5F5F5"/>
<path d="M86.3089 78.7728C86.3036 78.7394 86.3036 78.7054 86.3089 78.672V78.3936C86.3089 78.1344 86.3089 77.7792 86.3089 77.3232C86.3089 76.3632 86.3089 75.0144 86.2801 73.296C86.2801 69.8448 86.2417 64.9584 86.2177 59.1552L86.3377 59.2752H70.7521C70.7185 59.2752 71.0017 59.0256 70.8817 59.1456V64.4784C70.8817 66.2208 70.8817 67.92 70.8817 69.5664C70.8817 72.864 70.8817 75.9504 70.8817 78.7536L70.7761 78.6432L82.0609 78.7008L85.2241 78.7296H86.0641H86.3617C86.2706 78.7362 86.1791 78.7362 86.0881 78.7296H85.2721L82.1281 78.7584L70.7761 78.816H70.6657V78.7056C70.6657 75.9024 70.6657 72.816 70.6657 69.5184C70.6657 67.872 70.6657 66.1584 70.6657 64.4304V59.1648C70.5457 59.28 70.8241 58.9968 70.8001 59.0304H86.3857H86.5057V59.1504C86.4817 64.9824 86.4577 69.8976 86.4433 73.368L86.4145 77.3664C86.4145 77.8144 86.4145 78.1648 86.4145 78.4176C86.4145 78.5232 86.4145 78.6096 86.4145 78.6816C86.383 78.716 86.3475 78.7467 86.3089 78.7728Z" fill="#E0E0E0"/>
<path d="M101.189 54.6672H71.3184V57.4944H101.189V54.6672Z" fill="#F5F5F5"/>
<path d="M101.189 57.4944C101.189 57.4944 101.189 57.4224 101.189 57.3024C101.189 57.1824 101.189 56.9808 101.189 56.7504C101.189 56.2704 101.189 55.5648 101.155 54.6672L101.208 54.72C96.1727 54.768 84.691 54.8016 71.3374 54.8016C71.6014 54.5328 71.4094 54.7248 71.4718 54.6672V57.4848L71.3422 57.3504L92.515 57.408L98.8702 57.4464H100.598H101.054C101.107 57.4424 101.16 57.4424 101.213 57.4464H101.073H100.637H98.9374L92.611 57.4896L71.3422 57.5424H71.2126V57.4128C71.2126 56.9616 71.2126 56.496 71.2126 56.0256V54.5856L71.347 54.4512C84.7006 54.4512 96.1822 54.4848 101.217 54.5328H101.275V54.5856C101.275 55.4928 101.275 56.2032 101.246 56.7024C101.246 56.928 101.246 57.1008 101.246 57.2352C101.242 57.3243 101.223 57.412 101.189 57.4944Z" fill="#E0E0E0"/>
<path d="M101.189 59.1553H88.2144V70.9777H101.189V59.1553Z" fill="#F5F5F5"/>
<path d="M101.189 70.9776C101.189 70.9776 101.189 70.896 101.189 70.752V70.1088C101.189 69.5328 101.189 68.7216 101.16 67.7088C101.16 65.6256 101.126 62.6928 101.102 59.1648L101.213 59.28H88.2527L88.3823 59.1504V62.3232C88.3823 63.36 88.3823 64.3776 88.3823 65.3712C88.3823 67.3536 88.3823 69.2112 88.3823 70.968L88.2623 70.8528L97.6223 70.9104L100.277 70.944H100.987C101.07 70.937 101.154 70.937 101.237 70.944C101.162 70.9509 101.086 70.9509 101.011 70.944H100.325L97.6991 70.9728L88.2623 71.0304H88.1471V70.9104C88.1471 69.1776 88.1471 67.296 88.1471 65.3136C88.1471 64.32 88.1471 63.3024 88.1471 62.2656V59.0928C88.0271 59.208 88.3055 58.9296 88.2815 58.9584H101.242H101.357V59.0688C101.333 62.6256 101.314 65.5872 101.299 67.7088C101.299 68.7168 101.275 69.5184 101.27 70.1088C101.27 70.3616 101.27 70.568 101.27 70.728C101.255 70.8145 101.227 70.8985 101.189 70.9776Z" fill="#E0E0E0"/>
<path d="M101.189 72.8306H88.2144V78.773H101.189V72.8306Z" fill="#F5F5F5"/>
<path d="M101.189 78.7729C101.189 78.7729 101.189 78.6193 101.189 78.3409L101.165 77.1505C101.165 76.0992 101.136 74.6352 101.112 72.8304L101.208 72.9264L88.248 72.9648C88.128 73.0848 88.4064 72.8017 88.3776 72.8353V75.8929C88.3776 76.8865 88.3776 77.8513 88.3776 78.7729L88.248 78.6481L97.5264 78.7057L100.234 78.7441H100.963H101.222C101.146 78.7511 101.069 78.7511 100.992 78.7441H100.286L97.6128 78.7825L88.248 78.8401H88.1232V78.7153C88.1232 77.7937 88.1232 76.8289 88.1232 75.8353V72.7776C88.0944 72.7776 88.3728 72.5232 88.2576 72.6432L101.218 72.6769H101.28V72.7729C101.28 74.6017 101.242 76.0896 101.232 77.1505C101.232 77.6305 101.232 78.0289 101.232 78.3217C101.232 78.4731 101.218 78.6242 101.189 78.7729Z" fill="#E0E0E0"/>
<path d="M85.9199 59.189C81.0911 65.8562 75.5423 72.1058 70.7183 78.773Z" fill="white"/>
<path d="M70.7231 78.773C70.7231 78.773 70.7567 78.6914 70.8479 78.5522L71.2559 77.957C71.6111 77.4386 72.1439 76.7042 72.8159 75.8066C74.1551 74.0018 76.0703 71.5634 78.2207 68.8994C80.3711 66.2354 82.3055 63.8162 83.6783 62.045L85.3055 59.9474L85.7519 59.3762C85.8575 59.2514 85.9151 59.1842 85.9247 59.189C85.89 59.2672 85.8465 59.3412 85.7951 59.4098L85.3871 60.005C85.0319 60.5234 84.4991 61.2578 83.8271 62.1602C82.4879 63.9602 80.5727 66.3986 78.4223 69.0626C76.2719 71.7266 74.3423 74.1458 72.9647 75.917L71.3375 78.0194L70.8911 78.5858C70.8426 78.6545 70.7862 78.7173 70.7231 78.773Z" fill="#E0E0E0"/>
<path d="M86.3087 78.7728C86.2511 78.816 82.7135 74.4528 78.4127 69.048C74.1119 63.6432 70.6655 59.2032 70.7327 59.1552C70.7999 59.1072 74.3231 63.4752 78.6287 68.8848C82.9343 74.2944 86.3663 78.72 86.3087 78.7728Z" fill="#E0E0E0"/>
<path d="M67.867 59.1984C67.867 59.6807 67.724 60.1521 67.4561 60.5531C67.1882 60.9541 66.8073 61.2666 66.3618 61.4512C65.9162 61.6358 65.4259 61.684 64.9529 61.59C64.4799 61.4959 64.0454 61.2636 63.7044 60.9226C63.3634 60.5816 63.1312 60.1471 63.0371 59.6741C62.943 59.2011 62.9913 58.7108 63.1759 58.2653C63.3604 57.8197 63.6729 57.4389 64.0739 57.171C64.4749 56.903 64.9464 56.76 65.4286 56.76C66.0749 56.7613 66.6944 57.0186 67.1514 57.4756C67.6085 57.9326 67.8658 58.5521 67.867 59.1984Z" fill="#E0E0E0"/>
<path d="M107.75 53.28C107.75 53.7622 107.607 54.2337 107.339 54.6347C107.071 55.0356 106.691 55.3482 106.245 55.5327C105.8 55.7173 105.309 55.7656 104.836 55.6715C104.363 55.5774 103.929 55.3452 103.588 55.0042C103.247 54.6631 103.014 54.2287 102.92 53.7557C102.826 53.2827 102.875 52.7924 103.059 52.3468C103.244 51.9013 103.556 51.5204 103.957 51.2525C104.358 50.9846 104.83 50.8416 105.312 50.8416C105.958 50.8428 106.578 51.1001 107.035 51.5571C107.492 52.0142 107.749 52.6336 107.75 53.28Z" fill="#E0E0E0"/>
<path d="M203.136 70.2625H175.037V110.995H203.136V70.2625Z" fill="#E0E0E0"/>
<path d="M201.73 70.2625H173.63V110.995H201.73V70.2625Z" fill="#F5F5F5"/>
<path d="M198.24 74.6736H177.12V106.584H198.24V74.6736Z" fill="white"/>
<path d="M198.24 106.584C198.24 106.584 198.24 106.526 198.24 106.426C198.24 106.325 198.24 106.171 198.24 105.974C198.24 105.571 198.24 104.986 198.24 104.222C198.24 102.696 198.24 100.464 198.24 97.6512C198.24 92.0256 198.24 84.0576 198.206 74.6736L198.278 74.7456H177.12L177.197 74.6688C177.197 86.7072 177.197 97.8048 177.197 106.579L177.134 106.517L192.494 106.55H196.742H197.856H198.245H197.87H196.766H192.533L177.125 106.579H177.062V106.522C177.062 97.7472 177.062 86.6496 177.062 74.6112V74.5344H177.12H198.24H198.307V74.6016C198.307 84.0048 198.283 91.9872 198.273 97.6416C198.273 100.45 198.273 102.672 198.273 104.198C198.273 104.952 198.273 105.533 198.273 105.931C198.273 106.128 198.273 106.272 198.273 106.378L198.24 106.584Z" fill="#E0E0E0"/>
<path d="M201.806 70.2625C201.671 70.5209 201.51 70.7653 201.326 70.992C201 71.4288 200.534 72.0193 200.006 72.6625C199.478 73.3057 198.984 73.872 198.619 74.28C198.433 74.5085 198.226 74.719 198 74.9088C198.16 74.6612 198.34 74.4269 198.538 74.2081L199.891 72.5664L201.24 70.9248C201.412 70.6905 201.602 70.4691 201.806 70.2625Z" fill="#E0E0E0"/>
<path d="M198.345 106.479C199.394 108.149 200.629 109.695 202.027 111.087Z" fill="white"/>
<path d="M202.027 111.087C201.793 110.915 201.579 110.719 201.389 110.501C200.898 110.004 200.433 109.481 199.997 108.936C199.56 108.391 199.152 107.824 198.773 107.237C198.604 107 198.46 106.746 198.345 106.479C198.534 106.698 198.707 106.931 198.864 107.175C199.171 107.611 199.608 108.202 200.117 108.84C200.625 109.479 201.11 110.031 201.465 110.429C201.669 110.633 201.857 110.853 202.027 111.087Z" fill="#E0E0E0"/>
<path d="M173.625 110.962L177.307 106.421Z" fill="white"/>
<path d="M177.307 106.421C177.336 106.421 176.539 107.486 175.526 108.739C174.926 109.513 174.285 110.255 173.606 110.962C174.753 109.385 175.982 107.869 177.288 106.421H177.307Z" fill="#E0E0E0"/>
<path d="M173.63 70.2625C174.261 70.9441 174.857 71.657 175.416 72.3984C176.012 73.1112 176.568 73.8563 177.082 74.6304C176.449 73.9456 175.853 73.2278 175.296 72.48C174.699 71.7735 174.142 71.033 173.63 70.2625Z" fill="#E0E0E0"/>
<path d="M191.659 81.1536H184.589V101.232H191.659V81.1536Z" fill="#E0E0E0"/>
<path d="M196.66 26.9817L192.638 27.0034L192.746 47.0191L196.768 46.9974L196.66 26.9817Z" fill="#E0E0E0"/>
<path d="M168.206 27.035L157.791 27.0913L157.85 38.1407L168.266 38.0844L168.206 27.035Z" fill="#EBEBEB"/>
<path d="M178.569 26.9837L168.153 27.04L168.213 38.0895L178.629 38.0331L178.569 26.9837Z" fill="#F5F5F5"/>
<path d="M157.805 30.1536C164.726 30.2112 171.667 30.1536 178.589 30.0576C178.618 30.0576 178.646 30.046 178.667 30.0253C178.688 30.0046 178.699 29.9765 178.699 29.9472C178.699 29.9179 178.688 29.8899 178.667 29.8692C178.646 29.8485 178.618 29.8368 178.589 29.8368C171.661 29.7984 164.733 29.84 157.805 29.9616C157.779 29.9616 157.755 29.9717 157.737 29.9897C157.719 30.0077 157.709 30.0322 157.709 30.0576C157.709 30.0831 157.719 30.1075 157.737 30.1255C157.755 30.1435 157.779 30.1536 157.805 30.1536Z" fill="#E0E0E0"/>
<path d="M170.219 37.9057L151.293 38.0081L151.341 47.0127L170.268 46.9103L170.219 37.9057Z" fill="#EBEBEB"/>
<path d="M189.058 37.8036L170.132 37.906L170.181 46.9107L189.107 46.8083L189.058 37.8036Z" fill="#F5F5F5"/>
<path d="M151.305 40.5168C163.881 40.6608 176.496 40.5168 189.067 40.3296C189.096 40.3296 189.124 40.3179 189.145 40.2972C189.166 40.2765 189.177 40.2484 189.177 40.2192C189.177 40.1899 189.166 40.1618 189.145 40.1411C189.124 40.1204 189.096 40.1088 189.067 40.1088C176.491 40.0416 163.877 40.0512 151.305 40.3248C151.28 40.3248 151.256 40.3349 151.238 40.3529C151.22 40.3709 151.209 40.3953 151.209 40.4208C151.209 40.4462 151.22 40.4706 151.238 40.4887C151.256 40.5067 151.28 40.5168 151.305 40.5168Z" fill="#E0E0E0"/>
<path d="M217.555 47.0161H144.23V50.2417H217.555V47.0161Z" fill="#E0E0E0"/>
<path d="M159.211 48.5664H156.235V59.5728H159.211V48.5664Z" fill="#E0E0E0"/>
<path d="M203.645 48.5664H200.669V59.5728H203.645V48.5664Z" fill="#E0E0E0"/>
<path d="M200.584 19.5205L196.562 19.5422L196.711 47.0698L200.733 47.0481L200.584 19.5205Z" fill="#EBEBEB"/>
<path d="M206.871 24.6466L200.622 24.6804L200.742 46.9905L206.992 46.9567L206.871 24.6466Z" fill="#F5F5F5"/>
<path d="M206.827 28.9488C204.75 29.0955 202.665 29.0955 200.587 28.9488C202.665 28.8084 204.75 28.8084 206.827 28.9488Z" fill="#E0E0E0"/>
<path d="M206.827 28.0127C204.75 28.1595 202.665 28.1595 200.587 28.0127C202.665 27.8724 204.75 27.8724 206.827 28.0127Z" fill="#E0E0E0"/>
<path d="M206.827 43.6033C204.75 43.7501 202.665 43.7501 200.587 43.6033C202.665 43.463 204.75 43.463 206.827 43.6033Z" fill="#E0E0E0"/>
<path d="M206.827 42.6673C204.75 42.814 202.665 42.814 200.587 42.6673C202.665 42.5269 204.75 42.5269 206.827 42.6673Z" fill="#E0E0E0"/>
<path d="M203.803 40.6225C203.741 40.6225 203.693 38.3713 203.693 35.5969C203.693 32.8225 203.741 30.5713 203.803 30.5713C203.865 30.5713 203.909 32.8225 203.909 35.5969C203.909 38.3713 203.861 40.6225 203.803 40.6225Z" fill="#E0E0E0"/>
<path d="M213.696 30.1296H206.894V46.968H213.696V30.1296Z" fill="#EBEBEB"/>
<path d="M210.49 42.6048C210.287 42.6166 210.084 42.5855 209.895 42.5135C209.705 42.4416 209.533 42.3303 209.389 42.1871C209.246 42.0439 209.134 41.872 209.061 41.6826C208.989 41.4932 208.957 41.2906 208.968 41.088C208.957 40.8673 209.002 40.6474 209.098 40.4485C209.195 40.2497 209.34 40.0784 209.52 39.9504L209.674 40.1664C209.529 40.2717 209.413 40.4108 209.335 40.5715C209.258 40.7322 209.22 40.9096 209.227 41.088C209.227 41.4228 209.36 41.7439 209.597 41.9807C209.834 42.2174 210.155 42.3504 210.49 42.3504C210.824 42.3504 211.146 42.2174 211.382 41.9807C211.619 41.7439 211.752 41.4228 211.752 41.088C211.759 40.9091 211.722 40.7311 211.643 40.5702C211.564 40.4093 211.447 40.2706 211.301 40.1664L211.459 39.9504C211.637 40.0802 211.78 40.2519 211.876 40.4504C211.971 40.6489 212.016 40.868 212.006 41.088C212.017 41.2901 211.986 41.4923 211.914 41.6814C211.841 41.8704 211.73 42.0421 211.587 42.1852C211.444 42.3284 211.272 42.4397 211.083 42.512C210.894 42.5843 210.692 42.6159 210.49 42.6048Z" fill="#FAFAFA"/>
<path d="M211.622 39.5329L211.397 39.4033C211.633 39.0929 211.759 38.7132 211.757 38.3233C211.757 37.6945 211.531 37.4401 211.195 37.4401C210.322 37.4401 210.965 39.4273 209.789 39.4273C209.338 39.4273 208.968 39.0481 208.968 38.2897C208.962 37.9259 209.064 37.5685 209.261 37.2625L209.491 37.3969C209.31 37.6608 209.216 37.9746 209.222 38.2945C209.222 38.8801 209.462 39.1393 209.784 39.1393C210.682 39.1393 210.048 37.1521 211.19 37.1521C211.67 37.1521 212.006 37.5745 212.006 38.3377C212.021 38.7686 211.885 39.1911 211.622 39.5329Z" fill="#FAFAFA"/>
<path d="M211.622 36.7922L211.397 36.6626C211.633 36.3522 211.759 35.9724 211.757 35.5826C211.757 34.9538 211.531 34.6994 211.195 34.6994C210.322 34.6994 210.965 36.6818 209.789 36.6818C209.338 36.6818 208.968 36.3074 208.968 35.549C208.962 35.1852 209.064 34.8278 209.261 34.5218L209.491 34.6514C209.311 34.9173 209.217 35.2325 209.222 35.5538C209.222 36.1394 209.462 36.3986 209.784 36.3986C210.682 36.3986 210.048 34.4114 211.19 34.4114C211.67 34.4114 212.006 34.829 212.006 35.5922C212.022 36.0246 211.886 36.4489 211.622 36.7922Z" fill="#FAFAFA"/>
<path d="M198.513 25.3873C199.152 25.3873 199.67 24.8694 199.67 24.2305C199.67 23.5916 199.152 23.0737 198.513 23.0737C197.875 23.0737 197.357 23.5916 197.357 24.2305C197.357 24.8694 197.875 25.3873 198.513 25.3873Z" fill="#E0E0E0"/>
<path d="M198.869 27.408H198.154V43.7856H198.869V27.408Z" fill="#E0E0E0"/>
<path d="M74.9663 52.9152C67.2623 65.0304 67.7663 81.8304 76.1855 93.4608C81.7967 101.218 90.2111 106.421 96.8927 113.266C103.574 120.11 108.653 130.214 105.125 139.114C101.534 148.171 91.0175 151.853 83.1455 157.594C74.4601 163.919 68.5639 173.365 66.695 183.946C64.8262 194.527 67.1302 205.421 73.1231 214.339H154.925C154.925 214.339 169.296 186.955 150.821 166.08C132.346 145.205 122.424 144.869 123.106 131.179C123.787 117.49 133.368 113.05 138.845 107.914C144.322 102.778 171.005 90.8112 155.266 52.9104L74.9663 52.9152Z" fill="#FAFAFA"/>
<path d="M74.9663 52.915H76.3727H80.5199H96.4847L155.266 52.8718H155.328V52.9294C156.533 55.7992 157.559 58.7408 158.4 61.7374C159.283 64.8749 159.865 68.0894 160.138 71.3374C160.421 74.7326 160.246 78.1503 159.619 81.499C158.93 84.9703 157.682 88.3065 155.923 91.3774C155.012 92.9437 153.982 94.4377 152.842 95.8462C151.678 97.2737 150.419 98.6207 149.074 99.8782C147.711 101.159 146.283 102.368 144.797 103.502C143.309 104.654 141.754 105.739 140.237 106.891C139.478 107.462 138.797 108.105 138.058 108.749C137.318 109.392 136.584 109.992 135.826 110.597C134.314 111.806 132.787 112.997 131.347 114.336C128.342 116.941 126.032 120.253 124.627 123.974C123.952 125.883 123.526 127.87 123.36 129.888C123.317 130.368 123.25 130.896 123.23 131.405C123.211 131.913 123.192 132.422 123.23 132.931C123.241 133.953 123.344 134.971 123.538 135.974C123.918 138.007 124.748 139.929 125.966 141.6C127.22 143.27 128.64 144.81 130.205 146.193C133.31 149.03 136.608 151.742 139.762 154.67C142.915 157.598 146.002 160.651 148.978 163.881C150.496 165.48 151.916 167.17 153.23 168.941C154.552 170.733 155.702 172.648 156.662 174.657C158.605 178.731 159.798 183.121 160.186 187.617C160.577 192.176 160.309 196.767 159.389 201.249C158.942 203.514 158.355 205.749 157.632 207.941C156.921 210.151 156.055 212.308 155.04 214.397L155.006 214.464H73.0559L73.0223 214.411C69.1863 208.635 66.8336 202.003 66.1727 195.101C65.5078 188.471 66.4802 181.779 69.0047 175.613C71.404 169.718 75.0984 164.439 79.8143 160.166C82.1028 158.146 84.5743 156.343 87.1967 154.781C89.7503 153.197 92.3279 151.728 94.7615 150.125C97.1974 148.602 99.4353 146.783 101.424 144.71C103.323 142.674 104.732 140.231 105.542 137.568C106.253 134.969 106.364 132.243 105.869 129.595C105.395 127.039 104.543 124.569 103.339 122.265C102.188 120.047 100.808 117.956 99.2207 116.025C97.6889 114.173 96.0236 112.436 94.2383 110.827C90.7775 107.64 87.2303 104.851 84.0431 101.985C82.4447 100.545 80.9327 99.1054 79.5359 97.6318C78.1821 96.1892 76.9341 94.6508 75.8015 93.0286C73.7541 90.0537 72.1757 86.782 71.1215 83.3278C70.1981 80.3449 69.6625 77.2555 69.5279 74.1358C69.4607 73.4254 69.4895 72.7246 69.4895 72.0382C69.4895 71.3518 69.4895 70.6846 69.5519 70.0366C69.6143 69.3886 69.6479 68.755 69.6959 68.1166C69.7439 67.4782 69.8735 66.907 69.9551 66.3262C70.4854 62.7905 71.5674 59.36 73.1615 56.1598C73.3774 55.6648 73.6243 55.1838 73.9007 54.7198L74.4911 53.7166C74.8031 53.1838 74.9711 52.915 74.9711 52.915L74.4911 53.731L73.9199 54.7198C73.6501 55.1859 73.4065 55.6666 73.1903 56.1598C71.6106 59.3678 70.5417 62.8028 70.0223 66.3406C69.9407 66.9166 69.8447 67.5118 69.7727 68.1214C69.7007 68.731 69.6767 69.3694 69.6287 70.0174C69.5807 70.6654 69.5807 71.3326 69.5759 72.0142C69.5711 72.6958 69.5519 73.3966 69.6191 74.107C69.758 77.2164 70.2984 80.2947 71.2271 83.2654C72.28 86.7072 73.8569 89.9663 75.9023 92.9278C77.032 94.5432 78.2786 96.0737 79.6319 97.507C81.0239 98.9854 82.5359 100.425 84.1343 101.827C87.3215 104.707 90.8543 107.467 94.3391 110.659C96.1383 112.28 97.8164 114.03 99.3599 115.896C100.956 117.84 102.344 119.946 103.502 122.179C104.717 124.497 105.578 126.984 106.056 129.557C106.559 132.233 106.447 134.989 105.73 137.616C104.915 140.31 103.493 142.782 101.573 144.84C99.5743 146.925 97.327 148.756 94.8815 150.293C92.4383 151.901 89.8607 153.369 87.3119 154.953C84.7006 156.512 82.2389 158.308 79.9583 160.32C75.2714 164.571 71.5987 169.82 69.2111 175.68C66.7019 181.815 65.7377 188.472 66.4031 195.067C67.0641 201.93 69.405 208.524 73.2191 214.267L73.1231 214.214H154.925L154.814 214.281C155.828 212.199 156.691 210.046 157.397 207.84C158.116 205.657 158.699 203.432 159.144 201.177C160.06 196.718 160.327 192.149 159.936 187.613C159.556 183.141 158.371 178.774 156.437 174.725C155.483 172.729 154.343 170.828 153.034 169.046C151.722 167.285 150.309 165.602 148.8 164.006C145.84 160.784 142.773 157.718 139.598 154.809C136.45 151.886 133.162 149.179 130.046 146.328C128.469 144.932 127.037 143.382 125.77 141.701C124.527 140.009 123.676 138.063 123.278 136.003C123.086 134.985 122.982 133.952 122.966 132.917C122.942 132.403 122.966 131.889 122.966 131.376C122.966 130.862 123.053 130.353 123.091 129.845C123.267 127.815 123.703 125.816 124.387 123.897C125.804 120.144 128.135 116.803 131.17 114.177C132.61 112.843 134.15 111.633 135.662 110.429C136.421 109.824 137.165 109.214 137.89 108.59C138.614 107.966 139.33 107.294 140.078 106.718C141.605 105.566 143.155 104.481 144.638 103.334C146.121 102.205 147.545 101.002 148.906 99.7294C150.242 98.4776 151.494 97.1387 152.654 95.7214C153.785 94.3177 154.81 92.8321 155.722 91.2766C157.47 88.227 158.712 84.9134 159.398 81.4654C160.023 78.1439 160.199 74.7537 159.922 71.3854C159.653 68.138 159.076 64.9234 158.198 61.7854C157.369 58.7805 156.356 55.8294 155.165 52.9486L155.246 53.0014L96.4991 52.9582H80.5247H76.3679L74.9663 52.915Z" fill="#263238"/>
<path d="M152.001 75.1343C164.049 77.1167 145.056 98.4575 134.299 106.877C128.059 111.749 121.387 117.038 118.43 124.373C115.07 132.696 117.561 142.046 115.939 150.418C115.887 150.706 115.727 150.964 115.492 151.14C115.258 151.316 114.965 151.397 114.673 151.366C114.382 151.335 114.112 151.194 113.92 150.973C113.727 150.752 113.626 150.466 113.635 150.173C113.712 144.677 113.568 139.186 112.675 133.776C111.384 126.096 108.437 118.517 103.075 112.896C98.6831 108.302 92.9279 105.254 88.2479 100.963C81.4127 94.6991 74.3903 86.6207 73.7039 77.3759C73.7039 77.3759 86.8271 66.8159 94.1135 68.1359C102.629 69.6959 111.009 82.8335 124.2 81.3311C133.377 80.2799 138.029 72.8399 152.001 75.1343Z" fill="#E87C36"/>
<path d="M153.072 189.35C152.769 186.336 151.963 182.928 149.289 181.507C147.672 180.643 145.699 180.739 143.923 181.205C142.147 181.67 140.481 182.481 138.725 183.005C135.232 184.032 131.503 183.912 128.083 182.664C124.814 181.464 122.011 179.304 118.963 177.585C115.915 175.867 112.377 174.609 108.998 175.449C103.171 176.889 100.137 183.917 94.3775 185.611C91.8143 186.36 89.0639 185.937 86.4623 185.352C83.8607 184.766 81.2447 184.003 78.5807 184.104C76.4879 184.181 74.3135 184.905 72.8495 186.336L72.8111 186.379C72.5674 186.618 72.3457 186.878 72.1487 187.157C70.3631 189.557 70.0751 192.739 70.6271 195.648C71.2415 198.907 72.7631 201.917 74.3951 204.801C76.3151 208.2 78.5039 211.579 81.6815 213.845C85.6079 216.643 90.5375 214.713 95.3423 215.093C106.541 215.976 118.589 216.576 129.792 215.712C135.71 215.232 141.254 215.894 145.949 212.261C149.251 209.707 151.401 205.857 152.438 201.816C153.475 197.774 153.489 193.502 153.072 189.35Z" fill="#E87C36"/>
<g opacity="0.24">
<path d="M131.933 183.581C131.304 184.541 131.03 185.846 131.64 186.825C132.249 187.805 133.08 188.702 133.339 189.83C133.757 191.597 132.691 193.325 131.899 194.961C130.433 197.888 129.88 201.187 130.31 204.432C130.764 207.687 132.445 210.646 135.009 212.702C136.147 213.581 137.625 214.262 138.998 213.83C140.289 213.427 141.12 212.117 141.398 210.787C141.677 209.457 141.442 208.089 141.274 206.75C140.492 200.509 140.654 194.185 141.754 187.992C141.936 186.96 142.109 185.779 141.456 184.958C140.985 184.48 140.387 184.147 139.733 183.998C137.237 183.168 134.544 184.089 131.957 183.6" fill="black"/>
</g>
<path d="M67.1183 218.054C67.1183 218.054 66.8927 214.301 71.7887 212.208H157.829C157.829 212.208 162.317 214.483 162.869 217.968L67.1183 218.054Z" fill="#263238"/>
<path d="M156 53.3711L155.861 53.4335L74.9568 52.9151C74.9568 52.9151 74.6688 52.7327 74.2416 52.3919C73.7373 51.9968 73.3693 51.4537 73.1894 50.8388C73.0094 50.2239 73.0266 49.5681 73.2384 48.9634C73.4501 48.3588 73.846 47.8356 74.3703 47.4674C74.8945 47.0991 75.521 46.9043 76.1616 46.9103L154.69 47.5439C157.92 47.5727 158.938 51.9887 156 53.3711Z" fill="#263238"/>
<g opacity="0.24">
<path d="M143.04 84.2352C143.203 84.5472 142.594 85.1952 141.437 86.2512C140.28 87.3072 138.557 88.6944 136.416 90.4368C133.846 92.5605 131.118 94.486 128.256 96.1968C126.478 97.2262 124.608 98.086 122.669 98.7648C121.618 99.128 120.546 99.4246 119.458 99.6528C118.315 99.8955 117.154 100.046 115.987 100.104C113.622 100.233 111.255 99.9068 109.013 99.144C107.031 98.4231 105.147 97.4555 103.406 96.264C101.794 95.1984 100.406 94.1424 99.0864 93.1296C97.7664 92.1168 96.5904 91.1424 95.5248 90.2208C91.2768 86.5392 89.04 83.832 89.472 83.3088C89.904 82.7856 92.928 84.4896 97.632 87.3696L101.472 89.7216C102.85 90.5568 104.323 91.4832 105.83 92.3376C107.326 93.2156 108.911 93.9316 110.558 94.4736C112.244 94.9784 114.005 95.1863 115.762 95.088C119.448 94.896 123.024 93.6 126.12 92.1024C129.216 90.6048 132.019 88.8576 134.448 87.4944C136.37 86.3601 138.38 85.381 140.458 84.5664C141.979 84.0336 142.901 83.9328 143.04 84.2352Z" fill="black"/>
</g>
<path d="M113.693 160.445C114.033 160.309 114.412 160.314 114.75 160.456C115.087 160.599 115.354 160.868 115.494 161.207C115.633 161.545 115.634 161.925 115.496 162.264C115.358 162.603 115.092 162.873 114.756 163.018C114.419 163.162 114.039 163.168 113.699 163.034C113.358 162.9 113.084 162.638 112.935 162.303C112.786 161.969 112.776 161.589 112.905 161.247C113.034 160.904 113.293 160.627 113.625 160.474" fill="#E87C36"/>
<path d="M84.7584 97.6222C84.6532 97.5359 84.5567 97.4394 84.4704 97.3342L83.688 96.4798C83.3568 96.1006 82.92 95.659 82.4736 95.0974L80.9472 93.1774C80.424 92.4382 79.8336 91.6414 79.2384 90.7774L78.36 89.3806C78.2112 89.1406 78.0528 88.9006 77.9088 88.6462L77.4864 87.8686C76.2089 85.6047 75.2082 83.1954 74.5056 80.6926C73.7996 78.1919 73.4189 75.6107 73.3728 73.0126C73.3728 72.4126 73.4064 71.8318 73.416 71.2606C73.416 70.9774 73.416 70.699 73.4544 70.4254C73.4928 70.1518 73.512 69.883 73.5408 69.619C73.6032 69.091 73.6416 68.5774 73.7136 68.0878C73.7856 67.5982 73.8864 67.1278 73.968 66.691C74.1024 65.7934 74.3424 65.011 74.5104 64.291C74.6016 63.9454 74.6736 63.619 74.7648 63.331L75.0288 62.5294L75.3984 61.4302C75.4337 61.2994 75.482 61.1723 75.5424 61.051C75.5227 61.1849 75.4905 61.3167 75.4464 61.4446C75.3648 61.723 75.2592 62.0926 75.12 62.5582L74.88 63.3598C74.7984 63.6526 74.7312 63.979 74.6448 64.3198C74.4912 65.0158 74.2656 65.803 74.1648 66.7198C74.088 67.1614 74.0112 67.627 73.9296 68.1118C73.848 68.5966 73.8288 69.1054 73.7712 69.6334C73.7712 69.8974 73.7184 70.1614 73.6896 70.435C73.6608 70.7086 73.6896 70.987 73.6608 71.2654C73.6608 71.8318 73.6224 72.4078 73.6272 73.003C73.6741 75.5858 74.0499 78.1521 74.7456 80.6398C75.4444 83.1242 76.4319 85.5181 77.688 87.7726C77.8272 88.0318 77.9664 88.291 78.1008 88.5502C78.2352 88.8094 78.4032 89.0302 78.5472 89.2798L79.4112 90.6766C79.9968 91.5598 80.5776 92.3566 81.0864 93.0766L82.584 94.9966C83.016 95.5678 83.4432 96.0142 83.76 96.4078L84.5088 97.2958C84.5988 97.3993 84.6821 97.5083 84.7584 97.6222Z" fill="#263238"/>
<path d="M80.2031 168.931C80.2269 168.875 80.2558 168.822 80.2895 168.772L80.5775 168.321C80.7071 168.12 80.8655 167.88 81.0575 167.592L81.3599 167.112C81.4799 166.953 81.6191 166.795 81.7583 166.632L82.7183 165.48C83.0879 165.081 83.5103 164.668 83.9567 164.217C84.9918 163.221 86.0918 162.294 87.2495 161.443C89.7983 159.523 93.0863 157.603 96.6479 155.352C98.5207 154.198 100.321 152.93 102.038 151.555C103.881 150.087 105.508 148.368 106.872 146.448C109.369 142.612 110.725 138.146 110.784 133.569C110.845 129.839 110.22 126.13 108.941 122.625C108.093 120.26 107.03 117.979 105.763 115.809C105.317 115.036 104.952 114.451 104.702 114.052L104.419 113.601C104.357 113.5 104.328 113.443 104.328 113.443C104.371 113.486 104.408 113.534 104.438 113.587L104.746 114.028C105.01 114.412 105.389 114.988 105.845 115.761C107.15 117.919 108.244 120.199 109.109 122.568C110.422 126.087 111.073 129.818 111.029 133.574C111.008 134.657 110.92 135.737 110.765 136.809C110.609 137.93 110.373 139.039 110.059 140.126C109.403 142.428 108.384 144.611 107.04 146.592C105.662 148.533 104.017 150.27 102.154 151.752C100.426 153.128 98.6162 154.397 96.7343 155.553C93.1583 157.785 89.8655 159.686 87.3167 161.592C86.1593 162.431 85.0562 163.344 84.0143 164.323C83.5679 164.769 83.1407 165.172 82.7663 165.566L81.8063 166.694C81.6623 166.867 81.5231 167.025 81.4031 167.174L81.0911 167.63L80.6111 168.345L80.3039 168.782C80.2744 168.834 80.2407 168.884 80.2031 168.931Z" fill="#263238"/>
<path d="M75.7391 177.413C75.7101 177.491 75.6748 177.566 75.6335 177.638L75.2879 178.248C75.1343 178.507 74.9519 178.834 74.7647 179.208C74.5775 179.582 74.3375 180.024 74.1359 180.528C74.0303 180.778 73.9151 181.037 73.7999 181.306C73.6847 181.574 73.5887 181.872 73.4735 182.17C73.2431 182.765 73.0607 183.418 72.8495 184.09C72.0146 187.099 71.7268 190.233 71.9999 193.344C72.0815 194.054 72.1391 194.736 72.2639 195.36C72.3167 195.672 72.3599 195.979 72.4223 196.267C72.4847 196.555 72.5519 196.834 72.6143 197.098C72.7199 197.63 72.8783 198.096 72.9935 198.509C73.1087 198.922 73.2239 199.277 73.3295 199.565L73.5551 200.227C73.5875 200.302 73.6085 200.381 73.6175 200.462C73.5712 200.396 73.5341 200.323 73.5071 200.246C73.4351 200.069 73.3487 199.858 73.2383 199.598C73.0932 199.257 72.9666 198.907 72.8591 198.552C72.7295 198.139 72.5615 197.674 72.4415 197.141C72.3743 196.877 72.3071 196.598 72.2351 196.31C72.1631 196.022 72.1199 195.71 72.0575 195.398C71.9231 194.765 71.8559 194.083 71.7695 193.368C71.469 190.238 71.7588 187.079 72.6239 184.056C72.8399 183.365 73.0319 182.707 73.2767 182.112C73.3967 181.814 73.4927 181.522 73.6175 181.248L73.9727 180.466C74.1839 179.986 74.4527 179.539 74.6399 179.155C74.8091 178.825 74.9965 178.505 75.2015 178.195L75.5855 177.605C75.6815 177.475 75.7295 177.408 75.7391 177.413Z" fill="#263238"/>
<path d="M135.082 188.952L134.986 189.019L134.688 189.206L133.522 189.907L132.677 190.387C132.36 190.565 132.01 190.728 131.635 190.915C130.877 191.28 130.042 191.746 129.053 192.12L127.517 192.749C126.984 192.96 126.403 193.128 125.818 193.33C124.651 193.757 123.355 194.064 122.006 194.414C116.084 195.801 109.941 195.965 103.954 194.894C102.581 194.616 101.275 194.376 100.085 194.011C99.4895 193.838 98.9039 193.704 98.3567 193.531L96.7919 192.96C95.7887 192.638 94.9247 192.221 94.1519 191.894C93.7679 191.726 93.4079 191.578 93.0863 191.414L92.2127 190.958L91.0127 190.32L90.7055 190.147L90.6047 190.085C90.6047 190.085 90.6479 190.085 90.7199 190.128L91.0367 190.277L92.2559 190.872L93.1343 191.304C93.4607 191.458 93.8255 191.597 94.2095 191.76C94.9823 192.067 95.8463 192.475 96.8543 192.782L98.3999 193.344C98.9471 193.526 99.5327 193.656 100.128 193.824C101.314 194.179 102.614 194.405 103.968 194.678C109.928 195.711 116.033 195.547 121.93 194.198C123.274 193.853 124.565 193.56 125.731 193.142C126.317 192.946 126.893 192.787 127.426 192.576L128.962 191.966C129.95 191.602 130.79 191.15 131.549 190.8C131.923 190.618 132.278 190.459 132.595 190.32L133.45 189.84L134.635 189.178L134.947 189.014C135.043 188.962 135.082 188.947 135.082 188.952Z" fill="#263238"/>
<path d="M140.088 87.3599C140.058 87.3946 140.025 87.4253 139.987 87.4511L139.67 87.7103C139.377 87.9455 138.969 88.2767 138.446 88.6703C137.381 89.5151 135.835 90.7391 133.881 92.1983C131.608 93.9386 129.224 95.5292 126.744 96.9599C125.269 97.7852 123.731 98.493 122.145 99.0767C120.435 99.6991 118.65 100.096 116.837 100.257C113.311 100.455 109.795 99.7237 106.641 98.1359C105.277 97.4431 103.961 96.6606 102.701 95.7935C101.529 94.9679 100.459 94.1663 99.5134 93.3935C97.5934 91.8671 96.1246 90.5759 95.0878 89.6927L93.9022 88.6655L93.5998 88.3967L93.499 88.2959C93.499 88.2959 93.5422 88.2959 93.6142 88.3727L93.9358 88.6271L95.1502 89.6159C96.2062 90.4799 97.7134 91.7471 99.6238 93.2543C100.584 94.0079 101.645 94.7999 102.821 95.6159C104.077 96.468 105.387 97.2376 106.742 97.9199C109.865 99.4763 113.339 100.193 116.822 99.9983C118.614 99.8394 120.377 99.4489 122.069 98.8367C123.644 98.2608 125.172 97.5626 126.638 96.7487C129.114 95.3439 131.501 93.7874 133.785 92.0879C135.744 90.6479 137.304 89.4479 138.393 88.6271L139.646 87.6671L139.977 87.4271C140.011 87.3993 140.048 87.3766 140.088 87.3599Z" fill="#263238"/>
<g opacity="0.24">
<path d="M96.7966 192.984C99.0718 191.227 102.269 191.65 105.081 192.245C107.894 192.84 110.726 193.795 113.573 193.397C115.718 193.094 117.686 192.043 119.813 191.582C121.939 191.122 124.497 191.462 125.673 193.282C116.274 196.31 106.146 196.206 96.811 192.984" fill="black"/>
</g>
</svg>
