<svg width="245" height="218" viewBox="0 0 245 218" fill="none" xmlns="http://www.w3.org/2000/svg">
<path d="M164.908 75.4767C147.579 75.4767 129.939 74.7728 113.439 70.1766C97.2487 65.684 82.3836 56.9678 69.1334 46.8852C60.4586 40.3222 52.5706 35.1049 41.3079 35.8917C30.2802 36.4954 19.7398 40.6331 11.2464 47.6926C-3.08037 60.1147 -0.927211 83.3647 4.80765 99.6998C13.4203 124.296 39.6309 141.334 61.9078 152.473C87.6423 165.33 115.923 172.783 144.266 177.089C169.11 180.857 201.035 183.611 222.567 167.379C242.339 152.473 247.763 118.436 242.918 95.4556C241.744 88.6604 238.129 82.5278 232.753 78.2096C218.861 68.0649 198.137 74.8349 182.526 75.1869C176.729 75.3111 170.829 75.456 164.908 75.4767Z" fill="#F2F2F2"/>
<path d="M122.508 217.357C164.483 217.357 198.511 215.235 198.511 212.616C198.511 209.998 164.483 207.875 122.508 207.875C80.5333 207.875 46.5059 209.998 46.5059 212.616C46.5059 215.235 80.5333 217.357 122.508 217.357Z" fill="#F2F2F2"/>
<path d="M13.525 150.03C14.6456 150.03 15.554 149.122 15.554 148.001C15.554 146.881 14.6456 145.972 13.525 145.972C12.4045 145.972 11.4961 146.881 11.4961 148.001C11.4961 149.122 12.4045 150.03 13.525 150.03Z" fill="#CFCFCF"/>
<path d="M100.977 175.764V184.687" stroke="#BABABA" stroke-width="2.07035" stroke-linecap="round" stroke-linejoin="round"/>
<path d="M96.5254 180.236H105.428" stroke="#BABABA" stroke-width="2.07035" stroke-linecap="round" stroke-linejoin="round"/>
<path d="M207.866 35.436H37.1243C32.7107 35.436 29.1328 39.014 29.1328 43.4276V160.547C29.1328 164.961 32.7107 168.539 37.1243 168.539H207.866C212.28 168.539 215.857 164.961 215.857 160.547V43.4276C215.857 39.014 212.28 35.436 207.866 35.436Z" fill="white" stroke="#BABABA" stroke-width="2.07035" stroke-linecap="round" stroke-linejoin="round"/>
<path d="M190.685 70.8389H54.2903C51.1345 70.8389 48.5762 73.3972 48.5762 76.553V150.982C48.5762 154.138 51.1345 156.696 54.2903 156.696H190.685C193.841 156.696 196.399 154.138 196.399 150.982V76.553C196.399 73.3972 193.841 70.8389 190.685 70.8389Z" fill="white" stroke="#BABABA" stroke-width="2.07035" stroke-linecap="round" stroke-linejoin="round"/>
<path d="M215.857 57.8584V43.5523C215.86 42.5011 215.656 41.4597 215.255 40.4877C214.855 39.5157 214.267 38.6323 213.524 37.888C212.782 37.1437 211.9 36.5532 210.929 36.1503C209.958 35.7474 208.917 35.54 207.866 35.54H37.1244C36.0732 35.54 35.0323 35.7474 34.0614 36.1503C33.0904 36.5532 32.2085 37.1437 31.4662 37.888C30.7238 38.6323 30.1356 39.5157 29.7352 40.4877C29.3348 41.4597 29.1301 42.5011 29.1328 43.5523V58.0447L215.857 57.8584Z" fill="#D2D2D2"/>
<path d="M85.2383 22V47.7758" stroke="#BABABA" stroke-width="2.07035" stroke-linecap="round" stroke-linejoin="round"/>
<path d="M159.771 22V47.7758" stroke="#BABABA" stroke-width="2.07035" stroke-linecap="round" stroke-linejoin="round"/>
<path d="M187.453 23.7175C188.573 23.7175 189.482 22.8092 189.482 21.6886C189.482 20.5681 188.573 19.6597 187.453 19.6597C186.332 19.6597 185.424 20.5681 185.424 21.6886C185.424 22.8092 186.332 23.7175 187.453 23.7175Z" fill="#CFCFCF"/>
<path d="M60.6657 25.4978C61.7862 25.4978 62.6946 24.5894 62.6946 23.4689C62.6946 22.3483 61.7862 21.4399 60.6657 21.4399C59.5451 21.4399 58.6367 22.3483 58.6367 23.4689C58.6367 24.5894 59.5451 25.4978 60.6657 25.4978Z" fill="#CFCFCF"/>
<path d="M112.59 10.0327V18.9352" stroke="#BABABA" stroke-width="2.07035" stroke-linecap="round" stroke-linejoin="round"/>
<path d="M108.139 14.4839H117.041" stroke="#BABABA" stroke-width="2.07035" stroke-linecap="round" stroke-linejoin="round"/>
<path d="M19.2598 2V10.9025" stroke="#BABABA" stroke-width="2.07035" stroke-linecap="round" stroke-linejoin="round"/>
<path d="M14.8066 6.45117H23.7298" stroke="#BABABA" stroke-width="2.07035" stroke-linecap="round" stroke-linejoin="round"/>
<path d="M96.6055 132.908C97.9232 127.028 101.204 121.772 105.908 118.005C110.612 114.239 116.459 112.187 122.485 112.187C128.511 112.187 134.357 114.239 139.061 118.005C143.765 121.772 147.046 127.028 148.364 132.908" stroke="#BABABA" stroke-width="2.07035" stroke-linecap="round" stroke-linejoin="round"/>
<path d="M151.738 102.018C153.773 102.018 155.423 100.368 155.423 98.3332C155.423 96.2979 153.773 94.6479 151.738 94.6479C149.703 94.6479 148.053 96.2979 148.053 98.3332C148.053 100.368 149.703 102.018 151.738 102.018Z" fill="#BABABA"/>
<path d="M93.2516 102.018C95.2869 102.018 96.9369 100.368 96.9369 98.3332C96.9369 96.2979 95.2869 94.6479 93.2516 94.6479C91.2163 94.6479 89.5664 96.2979 89.5664 98.3332C89.5664 100.368 91.2163 102.018 93.2516 102.018Z" fill="#BABABA"/>
</svg>
