<svg width="78" height="78" viewBox="0 0 78 78" fill="none" xmlns="http://www.w3.org/2000/svg">
<path d="M78 39C78 60.5391 60.5391 78 39 78C17.4609 78 0 60.5391 0 39C0 17.4609 17.4609 0 39 0C60.5391 0 78 17.4609 78 39ZM61.5481 30.383L60.0037 29.4256C55.2558 34.285 49.4103 38.0656 42.8672 40.3673C38.2238 42.0004 33.2301 42.889 28.0294 42.889C22.5014 42.889 17.2082 41.8849 12.321 40.0509C18.6571 46.0636 28.4195 53.9084 41.2471 53.9084C41.264 53.9074 41.2799 53.9074 41.2968 53.9064C44.6077 53.774 47.8539 52.9232 50.8134 51.4334C58.088 47.7713 64.3614 41.8461 68.7411 35.0353L61.5481 30.383ZM15.2318 31.2289L9.25989 35.8493C14.8715 39.206 23.9374 41.2132 30.9522 41.2132C32.1056 41.2132 33.246 41.1605 34.3725 41.058C27.2602 40.4151 20.3459 36.2215 15.2318 31.2289Z" fill="#EB361F"/>
</svg>
