<svg width="32" height="32" viewBox="0 0 32 32" fill="none" xmlns="http://www.w3.org/2000/svg">
<path d="M30.08 16.3334C30.08 15.2934 29.9867 14.2934 29.8133 13.3334H16V19.0067H23.8933C23.5533 20.84 22.52 22.3934 20.9667 23.4334V27.1134H25.7067C28.48 24.56 30.08 20.8 30.08 16.3334Z" fill="#4285F4"/>
<path d="M15.9992 30.6666C19.9592 30.6666 23.2792 29.3533 25.7059 27.1133L20.9659 23.4333C19.6526 24.3133 17.9726 24.8333 15.9992 24.8333C12.1792 24.8333 8.94591 22.2533 7.79258 18.7866H2.89258V22.5866C5.30591 27.38 10.2659 30.6666 15.9992 30.6666Z" fill="#34A853"/>
<path d="M7.79399 18.7867C7.50065 17.9067 7.33399 16.9667 7.33399 16C7.33399 15.0333 7.50065 14.0933 7.79399 13.2133V9.41333H2.89399C1.86732 11.4571 1.33308 13.7128 1.33399 16C1.33399 18.3667 1.90065 20.6067 2.89399 22.5867L7.79399 18.7867Z" fill="#FBBC05"/>
<path d="M15.9992 7.16671C18.1526 7.16671 20.0859 7.90671 21.6059 9.36004L25.8126 5.15337C23.2726 2.78671 19.9526 1.33337 15.9992 1.33337C10.2659 1.33337 5.30591 4.62004 2.89258 9.41337L7.79258 13.2134C8.94591 9.74671 12.1792 7.16671 15.9992 7.16671Z" fill="#EA4335"/>
</svg>
